<svg width="80" height="80" viewBox="0 0 80 80" fill="none" xmlns="http://www.w3.org/2000/svg">
<circle cx="40" cy="40" r="40" fill="#E5E5E5"/>
<path d="M40 11.9609C47.3091 11.9609 53.232 17.8856 53.232 25.1912C53.232 32.4986 47.3091 38.4214 40 38.4214C32.6944 38.4214 26.7715 32.4986 26.7715 25.1912C26.7715 17.8856 32.6944 11.9609 40 11.9609ZM39.9912 69.5398C32.7014 69.5398 26.0248 66.8849 20.875 62.4907C19.6205 61.4207 18.8966 59.8516 18.8966 58.2053C18.8966 50.796 24.8933 44.8661 32.3043 44.8661H47.6992C55.112 44.8661 61.0858 50.796 61.0858 58.2053C61.0858 59.8534 60.3655 61.4189 59.1092 62.4889C53.9612 66.8849 47.2828 69.5398 39.9912 69.5398Z" fill="#9E9DA3"/>
</svg>
