<svg width="24" height="24" viewBox="0 0 24 24" fill="none" xmlns="http://www.w3.org/2000/svg">
<path d="M24 5.47622V12.7413C24 12.7413 22.4451 13.0476 22.1248 13.0879C21.8055 13.1281 20.802 13.4521 20.0748 12.7531C18.9533 11.6782 14.9686 7.71554 14.9686 7.71554C14.9686 7.71554 14.2816 7.04138 13.1784 7.62401C12.1658 8.15774 10.6647 8.93994 10.0377 9.24452C8.85244 9.87539 7.87006 8.87447 7.87006 8.11203C7.87006 7.52063 8.2391 7.11924 8.76663 6.82405C10.1963 5.95736 13.2096 4.26596 14.4647 3.59911C15.2276 3.19336 15.7772 3.1586 16.8246 4.04093C18.1145 5.12577 19.2624 6.11464 19.2624 6.11464C19.2624 6.11464 19.6369 6.42712 20.234 6.30126C21.7002 5.99125 24 5.47622 24 5.47622ZM8.13998 17.7861C8.33295 17.2904 8.26845 16.7359 7.89849 16.3554C7.56606 16.0152 7.0807 15.9255 6.61791 16.0315C6.74735 15.5725 6.67588 15.084 6.34166 14.7392C6.00821 14.3998 5.52377 14.3083 5.06103 14.4153C5.1895 13.957 5.11822 13.4685 4.78381 13.1247C4.26015 12.5876 3.35438 12.6107 2.75934 13.1779C2.16746 13.7458 1.7883 14.7748 2.31656 15.3805C2.84394 15.9832 3.44992 15.6165 3.91188 15.5112C3.78337 15.9696 3.3983 16.3959 3.87252 16.9958C4.3463 17.596 5.00583 17.2319 5.46828 17.1276C5.33933 17.5842 4.97106 18.0533 5.42707 18.6095C5.8872 19.1675 6.64082 18.8702 7.13857 18.7156C6.94647 19.2095 6.5353 19.7418 7.06356 20.3384C7.59099 20.9393 8.80988 20.6613 9.40525 20.0932C9.99902 19.5253 10.056 18.6251 9.53376 18.0863C9.1732 17.7166 8.63569 17.6306 8.13998 17.7861ZM19.0036 14.0064C14.6997 9.70247 16.7241 11.7277 14.4079 9.40655C14.4079 9.40655 13.7118 8.71355 12.7943 9.1161C12.1503 9.39832 11.3211 9.78295 10.6972 10.0766C10.0117 10.4361 9.51827 10.5474 9.28661 10.5458C7.96124 10.5372 6.88594 9.47187 6.88594 8.14782C6.88594 7.28887 7.34195 6.54106 8.02206 6.11658C8.97844 5.45477 11.1798 4.28387 11.1798 4.28387C11.1798 4.28387 10.5092 3.43408 9.04008 3.43408C7.57143 3.43408 4.503 5.44426 4.503 5.44426C4.503 5.44426 3.63253 6.00181 2.39166 5.49961L0 4.66676V12.98C0 12.98 0.682924 13.1777 1.29655 13.4284C1.43514 13.0331 1.65876 12.6682 1.96897 12.3667C2.98699 11.3971 4.67437 11.387 5.60057 12.3407C5.87959 12.6306 6.07431 12.9765 6.17367 13.3588C6.54688 13.474 6.88492 13.678 7.15658 13.9579C7.43642 14.2459 7.63041 14.5937 7.7306 14.9741C8.10337 15.0894 8.44093 15.2942 8.71351 15.5743C9.02047 15.8908 9.22497 16.2732 9.32046 16.6874C9.71012 16.8009 10.0623 17.0121 10.3459 17.3021C10.9025 17.8738 11.1001 18.6495 10.9804 19.3978C10.9814 19.3978 10.9832 19.3978 10.9841 19.3995C10.9932 19.4114 11.3289 19.7857 11.5383 19.9968C11.9487 20.4076 12.6187 20.4076 13.0303 19.9968C13.4392 19.5862 13.441 18.9175 13.0303 18.5048C13.0156 18.4902 11.5499 16.9571 11.6679 16.8382C11.7849 16.7201 13.6523 18.6632 13.6871 18.6987C14.0969 19.1086 14.7665 19.1086 15.1782 18.6987C15.5888 18.2881 15.588 17.6194 15.1782 17.2077C15.158 17.1885 15.074 17.108 15.0428 17.0759C15.0428 17.0759 13.1913 15.4266 13.3322 15.2857C13.4749 15.1439 15.7747 17.2901 15.7784 17.2901C16.1918 17.6624 16.8286 17.6596 17.2263 17.2617C17.6132 16.8748 17.6215 16.2628 17.2785 15.8503C17.2712 15.8284 15.5258 14.0044 15.662 13.8671C15.8002 13.7281 17.5273 15.5064 17.5309 15.5101C17.9398 15.9199 18.6103 15.9199 19.022 15.5101C19.4318 15.1002 19.4318 14.4307 19.022 14.0172C19.0164 14.0137 19.0091 14.01 19.0036 14.0064Z" fill="#278FFF"/>
</svg>
