<svg width="24" height="24" viewBox="0 0 24 24" fill="none" xmlns="http://www.w3.org/2000/svg">
<path d="M19.4709 14.1094H15.5156V14.8125C15.5156 15.201 15.201 15.5156 14.8125 15.5156H9.1875C8.79895 15.5156 8.48438 15.201 8.48438 14.8125V14.1094H4.52911C3.62 14.1094 2.81598 13.5298 2.52814 12.6674L0 5.08173V20.4375C0 21.6006 0.946289 22.5469 2.10938 22.5469H21.8906C23.0537 22.5469 24 21.6006 24 20.4375V5.08228L21.4717 12.6674C21.184 13.5298 20.38 14.1094 19.4709 14.1094Z" fill="#278FFF"/>
<path d="M14.8137 1.45312H9.18866C8.02557 1.45312 7.07928 2.39941 7.07928 3.5625V4.26562H1.21094L3.86285 12.2225C3.95898 12.5101 4.22742 12.7031 4.53027 12.7031H8.48553V12C8.48553 11.6115 8.80011 11.2969 9.18866 11.2969H14.8137C15.2022 11.2969 15.5168 11.6115 15.5168 12V12.7031H19.472C19.7749 12.7031 20.0433 12.5101 20.1395 12.2225L22.7916 4.26562H16.923V3.5625C16.923 2.39941 15.9767 1.45312 14.8137 1.45312ZM8.48553 4.26562V3.5625C8.48553 3.1745 8.80066 2.85938 9.18866 2.85938H14.8137C15.2017 2.85938 15.5168 3.1745 15.5168 3.5625V4.26562H8.48553Z" fill="#278FFF"/>
</svg>
