<svg width="24" height="24" viewBox="0 0 24 24" fill="none" xmlns="http://www.w3.org/2000/svg">
<path d="M23.9822 5.17107C23.9822 5.14365 24.001 5.11695 23.9998 5.08984L16.6758 12.1469L23.991 18.9785C23.9953 18.9297 23.9822 18.8805 23.9822 18.8306V5.17107Z" fill="white"/>
<path d="M15.5583 13.2329L12.5685 16.1095C12.4172 16.2551 12.2218 16.3281 12.0263 16.3281C11.8348 16.3281 11.6434 16.2582 11.4931 16.1182L8.51141 13.3397L1.14844 20.4368C1.32747 20.5011 1.51964 20.551 1.72088 20.551H22.3318C22.6306 20.551 22.9109 20.46 23.1546 20.3243L15.5583 13.2329Z" fill="white"/>
<path d="M12.0168 14.4692L23.1942 3.70208C22.9411 3.55162 22.6466 3.45068 22.3308 3.45068H1.71996C1.30882 3.45068 0.93209 3.61032 0.638672 3.85379L12.0168 14.4692Z" fill="white"/>
<path d="M0 5.43311V18.8302C0 18.984 0.0353478 19.1323 0.0737194 19.274L7.34535 12.2716L0 5.43311Z" fill="white"/>
</svg>
