<svg width="28" height="28" viewBox="0 0 28 28" fill="none" xmlns="http://www.w3.org/2000/svg">
<g clip-path="url(#clip0)">
<path d="M27.3096 9.76559C27.6191 9.5107 27.6991 9.06937 27.4986 8.7221L25.4379 5.15293C25.2374 4.80561 24.8152 4.65429 24.4397 4.79489L23.738 5.05777L26.7311 10.2418L27.3096 9.76559Z" fill="#DBBDE5"/>
<path d="M16.0543 20.007C14.582 20.4684 13.0994 21.067 11.7516 21.8447L11.0383 22.2565L14.0948 27.5505C14.2467 27.8137 14.5225 27.9608 14.806 27.9608C14.9451 27.9608 15.0862 27.9253 15.2154 27.8507L18.5306 25.9367C18.719 25.8279 18.8565 25.6487 18.9128 25.4386C18.9691 25.2284 18.9396 25.0045 18.8308 24.8161L16.0543 20.007Z" fill="#DBBDE5"/>
<path d="M3.50222 15.6801C3.05941 15.9358 2.74272 16.3485 2.61038 16.8423C2.55301 17.0564 2.53343 17.2745 2.55027 17.4891L0.416149 18.6974C0.225837 18.8052 0.0863835 18.9845 0.0288523 19.1956C-0.028679 19.4067 0.000578825 19.632 0.109899 19.8214L2.04168 23.1673C2.19349 23.4304 2.46917 23.5776 2.75284 23.5776C2.88977 23.5776 3.02863 23.5433 3.15627 23.4711L5.25282 22.2841C5.59577 22.561 6.0237 22.7108 6.45977 22.7108C6.78429 22.7108 7.11291 22.6283 7.41352 22.4547L9.50718 21.246L5.59566 14.4716L3.50222 15.6801Z" fill="#DBBDE5"/>
<path d="M27.8899 15.5298L19.7377 1.41005C19.5915 1.1569 19.3216 1.00071 19.0293 1C19.0286 1 19.0279 1 19.0272 1C18.7357 1 18.466 1.15482 18.3188 1.40666C18.2684 1.49295 13.2062 10.0777 7.01636 13.6514L10.9278 20.4258C14.3813 18.432 18.5973 17.5412 21.526 17.1451C24.7209 16.7129 27.1232 16.7592 27.1607 16.7601C27.4563 16.7671 27.734 16.6132 27.8851 16.3582C28.0363 16.1032 28.0381 15.7865 27.8899 15.5298Z" fill="#DBBDE5"/>
</g>
<defs>
<clipPath id="clip0">
<rect width="28" height="28" fill="white"/>
</clipPath>
</defs>
</svg>
