<svg width="28" height="28" viewBox="0 0 28 28" fill="none" xmlns="http://www.w3.org/2000/svg">
<path d="M23.1001 18.1064C21.7878 18.1064 20.7201 19.1744 20.7201 20.4865C20.7201 21.7988 21.7878 22.8665 23.1001 22.8665C24.4122 22.8665 25.4801 21.7988 25.4801 20.4865C25.4801 19.1744 24.4122 18.1064 23.1001 18.1064ZM23.1001 21.1865C22.714 21.1865 22.4001 20.8726 22.4001 20.4865C22.4001 20.1004 22.714 19.7865 23.1001 19.7865C23.4862 19.7865 23.8001 20.1004 23.8001 20.4865C23.8001 20.8726 23.4862 21.1865 23.1001 21.1865Z" fill="#EBBAB4"/>
<path d="M22.872 8.21313H18.76C18.4505 8.21313 18.2 8.46404 18.2 8.77313V19.6931C18.2 20.0022 18.4505 20.2531 18.76 20.2531H19.3539C19.6311 20.2531 19.8766 20.0535 19.9124 19.7786C20.1322 18.0946 21.4754 17.0502 23.1002 17.0502C24.7251 17.0502 26.0682 18.0947 26.288 19.7786C26.3238 20.0535 26.5691 20.2531 26.8466 20.2531H27.4399C27.749 20.2531 27.9999 20.0022 27.9999 19.6931V14.2331C27.9999 14.1016 27.9537 13.9744 27.8694 13.8739L23.3015 8.41389C23.1952 8.28679 23.0378 8.21313 22.872 8.21313ZM19.32 12.6931V9.89314C19.32 9.58404 19.5705 9.33313 19.88 9.33313H22.3467C22.5128 9.33313 22.6704 9.40707 22.7768 9.53472L25.1101 12.3347C25.4138 12.6995 25.1546 13.2531 24.6797 13.2531H19.88C19.5705 13.2531 19.32 13.0026 19.32 12.6931Z" fill="#EBBAB4"/>
<path d="M0.56 20.2534H1.9939C2.27111 20.2534 2.51666 20.0538 2.55248 19.7789C2.77227 18.0949 4.11545 17.0506 5.74028 17.0506C7.3651 17.0506 8.70828 18.095 8.92807 19.7789C8.96389 20.0538 9.20916 20.2534 9.48665 20.2534H16.52C16.8291 20.2534 17.08 20.0025 17.08 19.6934V5.69342C17.08 5.38433 16.8291 5.13342 16.52 5.13342H0.56C0.250582 5.13342 0 5.38433 0 5.69342V19.6934C0 20.0026 0.250582 20.2534 0.56 20.2534Z" fill="#EBBAB4"/>
<path d="M5.74011 18.1064C4.42777 18.1064 3.36011 19.1744 3.36011 20.4865C3.36011 21.7988 4.42777 22.8665 5.74011 22.8665C7.05217 22.8665 8.12011 21.7988 8.12011 20.4865C8.12011 19.1744 7.05217 18.1064 5.74011 18.1064ZM5.74011 21.1865C5.35401 21.1865 5.04011 20.8726 5.04011 20.4865C5.04011 20.1004 5.35401 19.7865 5.74011 19.7865C6.12621 19.7865 6.44011 20.1004 6.44011 20.4865C6.44011 20.8726 6.12621 21.1865 5.74011 21.1865Z" fill="#EBBAB4"/>
</svg>
