<svg width="12" height="12" viewBox="0 0 12 12" fill="none" xmlns="http://www.w3.org/2000/svg">
<path d="M6 0C3.48 0 1.42969 2.05031 1.42969 4.57031C1.42969 5.56758 1.74469 6.51516 2.34141 7.31016L5.71828 11.8582C5.72672 11.8692 5.73961 11.8735 5.74898 11.8833C5.91773 12.064 6.16125 12.0185 6.28148 11.8582C7.25391 10.5607 9.03633 8.1375 9.72164 7.22344C9.72164 7.22344 9.72188 7.22273 9.72211 7.22227L9.72633 7.21664C10.2785 6.44086 10.5703 5.52586 10.5703 4.57031C10.5703 2.05031 8.52 0 6 0ZM6 7.03594C4.6432 7.03594 3.53438 5.92711 3.53438 4.57031C3.53438 3.21352 4.6432 2.10469 6 2.10469C7.3568 2.10469 8.46563 3.21352 8.46563 4.57031C8.46563 5.92711 7.3568 7.03594 6 7.03594Z" fill="#909090"/>
</svg>
