<svg width="70" height="70" viewBox="0 0 70 70" fill="none" xmlns="http://www.w3.org/2000/svg">
<path d="M45 24C18.4326 24 5.93023 33.3333 3 38V48C3 60.1503 12.8497 70 25 70H29C37.8366 70 45 62.8366 45 54V24Z" fill="#278FFF"/>
<g filter="url(#filter0_b)">
<path fill-rule="evenodd" clip-rule="evenodd" d="M38 0C41.866 0 45 3.13401 45 7V33C45 36.866 41.866 40 38 40C34.134 40 31 36.866 31 33V7C31 3.13401 34.134 0 38 0ZM17 12C17 8.13401 13.866 5 10 5C6.13401 5 3 8.13401 3 12V38C3 41.866 6.13401 45 10 45C13.866 45 17 41.866 17 38V12ZM64.9497 30.9497C67.6834 33.6834 67.6834 38.1156 64.9497 40.8492L46.565 59.234C43.8313 61.9677 39.3991 61.9677 36.6655 59.234C33.9318 56.5003 33.9318 52.0682 36.6655 49.3345L55.0503 30.9497C57.7839 28.2161 62.2161 28.2161 64.9497 30.9497Z" fill="#9CCCFF" fill-opacity="0.4"/>
</g>
<defs>
<filter id="filter0_b" x="-1" y="-4" width="72" height="69.2843" filterUnits="userSpaceOnUse" color-interpolation-filters="sRGB">
<feFlood flood-opacity="0" result="BackgroundImageFix"/>
<feGaussianBlur in="BackgroundImage" stdDeviation="2"/>
<feComposite in2="SourceAlpha" operator="in" result="effect1_backgroundBlur"/>
<feBlend mode="normal" in="SourceGraphic" in2="effect1_backgroundBlur" result="shape"/>
</filter>
</defs>
</svg>
