<svg width="12" height="12" viewBox="0 0 12 12" fill="none" xmlns="http://www.w3.org/2000/svg">
<g clip-path="url(#clip0)">
<path d="M5.99964 4.36368C5.09691 4.36368 4.36328 5.0973 4.36328 6.00004C4.36328 6.90277 5.09691 7.6364 5.99964 7.6364C6.90237 7.6364 7.636 6.90277 7.636 6.00004C7.636 5.0973 6.90235 4.36368 5.99964 4.36368Z" fill="#909090"/>
<path d="M6.00001 1.90912C3.27273 1.90912 0.943646 3.60547 0 6.00003C0.943646 8.39457 3.27273 10.0909 6.00001 10.0909C8.73001 10.0909 11.0564 8.39457 12 6.00003C11.0564 3.60547 8.73001 1.90912 6.00001 1.90912ZM6.00001 8.72729C4.49456 8.72729 3.27273 7.50546 3.27273 6C3.27273 4.49455 4.49456 3.27275 6.00001 3.27275C7.50547 3.27275 8.7273 4.49457 8.7273 6.00003C8.7273 7.50549 7.50547 8.72729 6.00001 8.72729Z" fill="#909090"/>
</g>
<defs>
<clipPath id="clip0">
<rect width="12" height="12" fill="white"/>
</clipPath>
</defs>
</svg>
