<svg width="12" height="12" viewBox="0 0 12 12" fill="none" xmlns="http://www.w3.org/2000/svg">
<g clip-path="url(#clip0)">
<path d="M6.515 0.935051L1.02 0.100051C0.765 0.0600513 0.505 0.130051 0.31 0.295051C0.115 0.465051 0 0.710051 0 0.965051V11.5001C0 11.7751 0.225 12.0001 0.5 12.0001H2.125V9.37505C2.125 8.89005 2.515 8.50005 3 8.50005H4.25C4.735 8.50005 5.125 8.89005 5.125 9.37505V12.0001H7.25V1.80005C7.25 1.37005 6.94 1.00505 6.515 0.935051ZM2.75 7.37505H2C1.793 7.37505 1.625 7.20705 1.625 7.00005C1.625 6.79305 1.793 6.62505 2 6.62505H2.75C2.957 6.62505 3.125 6.79305 3.125 7.00005C3.125 7.20705 2.957 7.37505 2.75 7.37505ZM2.75 5.87505H2C1.793 5.87505 1.625 5.70705 1.625 5.50005C1.625 5.29305 1.793 5.12505 2 5.12505H2.75C2.957 5.12505 3.125 5.29305 3.125 5.50005C3.125 5.70705 2.957 5.87505 2.75 5.87505ZM2.75 4.37505H2C1.793 4.37505 1.625 4.20705 1.625 4.00005C1.625 3.79305 1.793 3.62505 2 3.62505H2.75C2.957 3.62505 3.125 3.79305 3.125 4.00005C3.125 4.20705 2.957 4.37505 2.75 4.37505ZM2.75 2.87505H2C1.793 2.87505 1.625 2.70705 1.625 2.50005C1.625 2.29305 1.793 2.12505 2 2.12505H2.75C2.957 2.12505 3.125 2.29305 3.125 2.50005C3.125 2.70705 2.957 2.87505 2.75 2.87505ZM5.25 7.37505H4.5C4.293 7.37505 4.125 7.20705 4.125 7.00005C4.125 6.79305 4.293 6.62505 4.5 6.62505H5.25C5.457 6.62505 5.625 6.79305 5.625 7.00005C5.625 7.20705 5.457 7.37505 5.25 7.37505ZM5.25 5.87505H4.5C4.293 5.87505 4.125 5.70705 4.125 5.50005C4.125 5.29305 4.293 5.12505 4.5 5.12505H5.25C5.457 5.12505 5.625 5.29305 5.625 5.50005C5.625 5.70705 5.457 5.87505 5.25 5.87505ZM5.25 4.37505H4.5C4.293 4.37505 4.125 4.20705 4.125 4.00005C4.125 3.79305 4.293 3.62505 4.5 3.62505H5.25C5.457 3.62505 5.625 3.79305 5.625 4.00005C5.625 4.20705 5.457 4.37505 5.25 4.37505ZM5.25 2.87505H4.5C4.293 2.87505 4.125 2.70705 4.125 2.50005C4.125 2.29305 4.293 2.12505 4.5 2.12505H5.25C5.457 2.12505 5.625 2.29305 5.625 2.50005C5.625 2.70705 5.457 2.87505 5.25 2.87505Z" fill="#909090"/>
<path d="M11.31 5.42095L7.75 4.67545V11.9999H11.125C11.6075 11.9999 12 11.6074 12 11.1249V6.27595C12 5.86295 11.7185 5.51145 11.31 5.42095ZM10.125 10.4999H9.37499C9.16799 10.4999 8.99999 10.3319 8.99999 10.1249C8.99999 9.91795 9.16799 9.74995 9.37499 9.74995H10.125C10.332 9.74995 10.5 9.91795 10.5 10.1249C10.5 10.3319 10.332 10.4999 10.125 10.4999ZM10.125 8.99995H9.37499C9.16799 8.99995 8.99999 8.83195 8.99999 8.62495C8.99999 8.41795 9.16799 8.24995 9.37499 8.24995H10.125C10.332 8.24995 10.5 8.41795 10.5 8.62495C10.5 8.83195 10.332 8.99995 10.125 8.99995ZM10.125 7.49995H9.37499C9.16799 7.49995 8.99999 7.33195 8.99999 7.12495C8.99999 6.91795 9.16799 6.74995 9.37499 6.74995H10.125C10.332 6.74995 10.5 6.91795 10.5 7.12495C10.5 7.33195 10.332 7.49995 10.125 7.49995Z" fill="#909090"/>
</g>
<defs>
<clipPath id="clip0">
<rect width="12" height="12" fill="white"/>
</clipPath>
</defs>
</svg>
