<svg width="16" height="16" viewBox="0 0 16 16" fill="none" xmlns="http://www.w3.org/2000/svg">
<path d="M15.6225 10.9512L10.7364 2.26585C10.1816 1.27947 9.13303 0.666687 8 0.666687C6.867 0.666687 5.81847 1.27947 5.26356 2.26585L0.3775 10.9512C0.130531 11.3902 0 11.8884 0 12.3919C0 14.0138 1.32141 15.3334 2.94566 15.3334H13.0543C14.6786 15.3334 16 14.0138 16 12.3919C16 11.8884 15.8695 11.3902 15.6225 10.9512ZM8 13.461C7.22459 13.461 6.59375 12.8311 6.59375 12.0568C6.59375 11.2825 7.22459 10.6525 8 10.6525C8.77541 10.6525 9.40625 11.2825 9.40625 12.0568C9.40625 12.8311 8.77541 13.461 8 13.461ZM9.40625 8.31208C9.40625 9.08638 8.77541 9.71633 8 9.71633C7.22459 9.71633 6.59375 9.08638 6.59375 8.31208V4.25534C6.59375 3.48103 7.22459 2.85108 8 2.85108C8.77541 2.85108 9.40625 3.48103 9.40625 4.25534V8.31208Z" fill="#ED7C79"/>
</svg>
