<svg width="24" height="24" viewBox="0 0 24 24" fill="none" xmlns="http://www.w3.org/2000/svg">
<g clip-path="url(#clip0)">
<path d="M9.00586 0V2.00206H11.0079V3.00306C11.7086 2.90298 12.3092 2.90298 13.01 3.00306V2.00206H15.012V0H9.00586Z" fill="#278FFF"/>
<path d="M18.8173 6.60674L19.518 5.90604L20.3189 6.70687L21.7203 5.30543L18.7172 2.30237L17.3158 3.70381L18.1166 4.5046L17.2157 5.40552C12.4108 2.50254 6.20446 4.00407 3.40162 8.80897C0.59878 13.6139 2.10026 19.62 6.80508 22.523C11.5099 25.4259 17.7162 23.9244 20.5191 19.1195C23.0216 15.0153 22.3209 9.81002 18.8173 6.60674ZM12.0104 20.9213C8.10639 20.9213 5.00324 17.8182 5.00324 13.9142C5.00324 10.0102 8.10639 6.90705 12.0104 6.90705V13.9142H19.0175C19.0175 17.8182 15.9143 20.9213 12.0104 20.9213Z" fill="#278FFF"/>
</g>
<defs>
<clipPath id="clip0">
<rect width="24" height="24" fill="white"/>
</clipPath>
</defs>
</svg>
