<svg width="28" height="28" viewBox="0 0 28 28" fill="none" xmlns="http://www.w3.org/2000/svg">
<path d="M0.381737 14.0363C0.080748 14.1471 -0.074395 14.4808 0.0352496 14.7829L0.401588 15.7909L3.19094 13.0015L0.381737 14.0363Z" fill="#B5D4E9"/>
<path d="M3.02194 22.9961L4.70188 27.6159C4.75438 27.7618 4.86403 27.8808 5.00402 27.9449C5.08217 27.9811 5.16616 27.9998 5.25016 27.9998C5.31901 27.9998 5.38666 27.9881 5.452 27.9636L7.30579 27.28L3.02194 22.9961Z" fill="#B5D4E9"/>
<path d="M27.964 19.0515L26.0414 13.7655L21.4275 18.3795L23.714 17.5372C24.0139 17.4228 24.3522 17.5792 24.463 17.8825C24.575 18.1846 24.4199 18.5206 24.1177 18.6315L21.2128 19.7024C21.1463 19.7269 21.0786 19.7386 21.0109 19.7386C20.7741 19.7386 20.5501 19.5927 20.4638 19.3571C20.4626 19.3536 20.4638 19.3501 20.4626 19.3466L15.5733 24.2359L27.6175 19.7981C27.9197 19.6873 28.0748 19.3536 27.964 19.0515Z" fill="#B5D4E9"/>
<path d="M27.8287 9.50377L18.4957 0.170741C18.2682 -0.0567509 17.8984 -0.0567509 17.6709 0.170741L0.171474 17.6701C-0.0560186 17.8976 -0.0560186 18.2675 0.171474 18.4949L9.50451 27.828C9.61765 27.9423 9.767 27.9995 9.91635 27.9995C10.0657 27.9995 10.215 27.9423 10.3293 27.8291L27.8287 10.3297C28.0562 10.1011 28.0562 9.73241 27.8287 9.50377ZM6.82945 16.1629L4.49618 18.4961C4.38183 18.6092 4.23254 18.6664 4.08319 18.6664C3.93385 18.6664 3.78455 18.6093 3.67021 18.4961C3.44271 18.2686 3.44271 17.8988 3.67021 17.6713L6.00348 15.338C6.23097 15.1105 6.60081 15.1105 6.8283 15.338C7.05579 15.5656 7.05694 15.9342 6.82945 16.1629ZM16.9033 16.9037C16.4903 17.3166 15.9291 17.515 15.305 17.515C14.2736 17.515 13.0685 16.9749 12.0606 15.9657C11.3232 15.2284 10.8053 14.3464 10.6035 13.4831C10.3795 12.5207 10.5638 11.683 11.1226 11.1231C11.6814 10.5631 12.5191 10.3787 13.4827 10.6039C14.346 10.8058 15.228 11.3226 15.9652 12.061C17.5857 13.6803 17.9987 15.8082 16.9033 16.9037ZM24.3289 10.3297L21.9956 12.663C21.8812 12.7762 21.7319 12.8334 21.5826 12.8334C21.4333 12.8334 21.284 12.7762 21.1696 12.663C20.9421 12.4355 20.9421 12.0657 21.1696 11.8382L23.5029 9.50491C23.7304 9.27742 24.1002 9.27742 24.3277 9.50491C24.5552 9.73241 24.5563 10.1011 24.3289 10.3297Z" fill="#B5D4E9"/>
</svg>
