<svg width="16" height="16" viewBox="0 0 16 16" fill="none" xmlns="http://www.w3.org/2000/svg">
<path d="M14.9487 2.23933C14.92 2.03304 14.7715 1.86335 14.5709 1.80757L8.14021 0.0191983C8.04861 -0.00631805 7.9517 -0.00631805 7.86002 0.0191983L1.42935 1.80757C1.22863 1.86335 1.08021 2.03297 1.05155 2.23933C1.01425 2.50753 0.163361 8.84457 2.34584 11.997C4.52575 15.1457 7.74157 15.9526 7.87738 15.9854C7.91775 15.9951 7.95888 16 8.00015 16C8.04143 16 8.08256 15.9951 8.12292 15.9854C8.2588 15.9525 11.4746 15.1456 13.6545 11.997C15.8369 8.84457 14.986 2.50753 14.9487 2.23933ZM12.7152 11.3443C10.8245 14.0754 7.99234 14.7594 7.99234 14.7594V8.00003H2.15559C1.81669 5.46317 2.17887 2.85737 2.17887 2.85737L7.99227 1.24064V8.00003H13.829C13.6643 9.23352 13.3338 10.4508 12.7152 11.3443Z" fill="url(#paint0_linear)"/>
<defs>
<linearGradient id="paint0_linear" x1="0.857422" y1="6.10352e-05" x2="16.2515" y2="1.14926" gradientUnits="userSpaceOnUse">
<stop stop-color="#51DB91"/>
<stop offset="1" stop-color="#38D0B5"/>
</linearGradient>
</defs>
</svg>
