<svg width="522" height="562" viewBox="0 0 522 562" fill="none" xmlns="http://www.w3.org/2000/svg">
<path d="M37.8018 76.6123C36.794 63.274 46.4638 51.5057 59.7443 49.9078L315.951 19.0808C329.961 17.395 342.59 27.6321 343.839 41.6883L383.405 486.811C384.767 502.128 372.107 515.032 356.766 513.964L90.8965 495.443C78.5143 494.581 68.64 484.764 67.7048 472.387L37.8018 76.6123Z" fill="url(#paint0_linear)"/>
<path fill-rule="evenodd" clip-rule="evenodd" d="M21.3182 331.957C21.5107 334.158 19.8828 336.098 17.682 336.291C15.4813 336.483 13.5412 334.855 13.3486 332.654C13.1561 330.454 14.784 328.514 16.9848 328.321C19.1855 328.129 21.1256 329.756 21.3182 331.957ZM41.2421 330.214C41.4346 332.415 39.8067 334.355 37.6059 334.547C35.4052 334.74 33.4651 333.112 33.2725 330.911C33.08 328.711 34.7079 326.77 36.9087 326.578C39.1094 326.385 41.0495 328.013 41.2421 330.214ZM57.5298 332.804C59.7305 332.612 61.3585 330.672 61.166 328.471C60.9734 326.27 59.0333 324.642 56.8326 324.835C54.6318 325.027 53.0039 326.967 53.1964 329.168C53.389 331.369 55.3291 332.997 57.5298 332.804ZM81.0899 326.728C81.2824 328.929 79.6544 330.869 77.4537 331.061C75.253 331.254 73.3128 329.626 73.1203 327.425C72.9278 325.224 74.5557 323.284 76.7565 323.092C78.9572 322.899 80.8973 324.527 81.0899 326.728ZM97.3776 329.318C99.5783 329.126 101.206 327.185 101.014 324.985C100.821 322.784 98.8811 321.156 96.6804 321.349C94.4796 321.541 92.8517 323.481 93.0442 325.682C93.2367 327.883 95.1769 329.511 97.3776 329.318ZM23.0613 351.881C23.2538 354.082 21.6259 356.022 19.4251 356.215C17.2244 356.407 15.2843 354.779 15.0917 352.578C14.8992 350.378 16.5272 348.437 18.7279 348.245C20.9286 348.052 22.8688 349.68 23.0613 351.881ZM39.349 354.471C41.5498 354.279 43.1777 352.339 42.9852 350.138C42.7927 347.937 40.8525 346.309 38.6518 346.502C36.4511 346.694 34.8231 348.635 35.0156 350.835C35.2082 353.036 37.1483 354.664 39.349 354.471ZM62.9091 348.395C63.1016 350.596 61.4737 352.536 59.2729 352.728C57.0722 352.921 55.1321 351.293 54.9395 349.092C54.747 346.891 56.3749 344.951 58.5757 344.759C60.7764 344.566 62.7165 346.194 62.9091 348.395ZM79.1968 350.985C81.3976 350.793 83.0255 348.852 82.833 346.652C82.6404 344.451 80.7003 342.823 78.4996 343.016C76.2988 343.208 74.6709 345.148 74.8634 347.349C75.056 349.55 76.9961 351.178 79.1968 350.985ZM102.757 344.909C102.949 347.109 101.321 349.05 99.1207 349.242C96.92 349.435 94.9799 347.807 94.7873 345.606C94.5948 343.405 96.2227 341.465 98.4235 341.272C100.624 341.08 102.564 342.708 102.757 344.909ZM21.1683 376.138C23.369 375.946 24.9969 374.006 24.8044 371.805C24.6119 369.604 22.6717 367.976 20.471 368.169C18.2703 368.361 16.6423 370.302 16.8349 372.502C17.0274 374.703 18.9675 376.331 21.1683 376.138ZM44.7283 370.062C44.9208 372.263 43.2929 374.203 41.0921 374.395C38.8914 374.588 36.9513 372.96 36.7587 370.759C36.5662 368.558 38.1942 366.618 40.3949 366.426C42.5956 366.233 44.5358 367.861 44.7283 370.062ZM61.016 372.652C63.2168 372.46 64.8447 370.52 64.6522 368.319C64.4597 366.118 62.5195 364.49 60.3188 364.683C58.1181 364.875 56.4901 366.815 56.6826 369.016C56.8752 371.217 58.8153 372.845 61.016 372.652ZM84.5761 366.576C84.7686 368.776 83.1407 370.717 80.9399 370.909C78.7392 371.102 76.7991 369.474 76.6065 367.273C76.414 365.072 78.042 363.132 80.2427 362.939C82.4434 362.747 84.3836 364.375 84.5761 366.576ZM100.864 369.166C103.065 368.973 104.693 367.033 104.5 364.833C104.307 362.632 102.367 361.004 100.167 361.196C97.9659 361.389 96.3379 363.329 96.5304 365.53C96.723 367.731 98.6631 369.358 100.864 369.166ZM26.5475 391.729C26.7401 393.93 25.1121 395.87 22.9114 396.062C20.7106 396.255 18.7705 394.627 18.578 392.426C18.3854 390.225 20.0134 388.285 22.2141 388.093C24.4149 387.9 26.355 389.528 26.5475 391.729ZM42.8353 394.319C45.036 394.127 46.664 392.187 46.4714 389.986C46.2789 387.785 44.3388 386.157 42.138 386.35C39.9373 386.542 38.3093 388.482 38.5019 390.683C38.6944 392.884 40.6345 394.512 42.8353 394.319ZM66.3953 388.243C66.5879 390.443 64.9599 392.384 62.7592 392.576C60.5584 392.769 58.6183 391.141 58.4258 388.94C58.2332 386.739 59.8612 384.799 62.0619 384.607C64.2626 384.414 66.2028 386.042 66.3953 388.243ZM82.6831 390.833C84.8838 390.64 86.5117 388.7 86.3192 386.5C86.1267 384.299 84.1865 382.671 81.9858 382.863C79.7851 383.056 78.1571 384.996 78.3497 387.197C78.5422 389.398 80.4823 391.025 82.6831 390.833ZM106.243 384.756C106.436 386.957 104.808 388.897 102.607 389.09C100.406 389.282 98.4661 387.654 98.2735 385.454C98.081 383.253 99.709 381.313 101.91 381.12C104.11 380.928 106.051 382.556 106.243 384.756ZM24.6545 415.986C26.8552 415.794 28.4832 413.854 28.2906 411.653C28.0981 409.452 26.158 407.824 23.9572 408.017C21.7565 408.209 20.1285 410.149 20.3211 412.35C20.5136 414.551 22.4538 416.179 24.6545 415.986ZM48.2145 409.91C48.4071 412.11 46.7791 414.051 44.5784 414.243C42.3776 414.436 40.4375 412.808 40.245 410.607C40.0524 408.406 41.6804 406.466 43.8811 406.274C46.0819 406.081 48.022 407.709 48.2145 409.91ZM64.5023 412.5C66.703 412.307 68.331 410.367 68.1384 408.167C67.9459 405.966 66.0058 404.338 63.805 404.53C61.6043 404.723 59.9763 406.663 60.1689 408.864C60.3614 411.065 62.3015 412.692 64.5023 412.5ZM88.0623 406.423C88.2549 408.624 86.6269 410.564 84.4262 410.757C82.2254 410.949 80.2853 409.321 80.0928 407.121C79.9002 404.92 81.5282 402.98 83.7289 402.787C85.9297 402.595 87.8698 404.223 88.0623 406.423ZM104.35 409.014C106.551 408.821 108.179 406.881 107.986 404.68C107.794 402.48 105.854 400.852 103.653 401.044C101.452 401.237 99.8241 403.177 100.017 405.378C100.209 407.578 102.149 409.206 104.35 409.014Z" fill="#F5F5F5"/>
<path fill-rule="evenodd" clip-rule="evenodd" d="M277.314 78.661C281.686 73.4514 289.453 72.7719 294.662 77.1432C299.026 80.8046 305.531 80.2355 309.193 75.872C313.564 70.6624 321.331 69.9829 326.541 74.3543C330.904 78.0156 337.409 77.4465 341.071 73.083C345.442 67.8734 353.209 67.1939 358.419 71.5653C362.782 75.2267 369.288 74.6575 372.949 70.294C377.32 65.0844 385.087 64.4049 390.297 68.7763C394.66 72.4377 401.166 71.8685 404.827 67.5051C409.199 62.2954 416.966 61.6159 422.175 65.9873C426.539 69.6487 433.044 69.0795 436.705 64.7161L438.238 66.0016C433.866 71.2113 426.099 71.8908 420.89 67.5194C416.526 63.858 410.021 64.4272 406.359 68.7906C401.988 74.0003 394.221 74.6798 389.011 70.3084C384.648 66.647 378.143 67.2161 374.481 71.5796C370.11 76.7892 362.343 77.4688 357.133 73.0974C352.77 69.436 346.264 70.0051 342.603 74.3686C338.231 79.5782 330.465 80.2577 325.255 75.8863C320.891 72.225 314.386 72.7941 310.725 77.1576C306.353 82.3672 298.586 83.0467 293.377 78.6753C289.013 75.0139 282.508 75.5831 278.846 79.9466L277.314 78.661ZM278.709 94.6001C283.08 89.3905 290.847 88.711 296.057 93.0824C300.42 96.7437 306.926 96.1746 310.587 91.8111C314.958 86.6015 322.725 85.922 327.935 90.2934C332.298 93.9548 338.804 93.3856 342.465 89.0221C346.837 83.8125 354.604 83.133 359.813 87.5044C364.177 91.1658 370.682 90.5966 374.344 86.2332C378.715 81.0235 386.482 80.344 391.691 84.7154C396.055 88.3768 402.56 87.8076 406.222 83.4442C410.593 78.2346 418.36 77.555 423.57 81.9264C427.933 85.5878 434.439 85.0187 438.1 80.6552L439.632 81.9408C435.261 87.1504 427.494 87.8299 422.284 83.4585C417.921 79.7971 411.415 80.3663 407.754 84.7297C403.382 89.9394 395.616 90.6189 390.406 86.2475C386.042 82.5861 379.537 83.1553 375.876 87.5187C371.504 92.7284 363.737 93.4079 358.528 89.0365C354.164 85.3751 347.659 85.9442 343.997 90.3077C339.626 95.5173 331.859 96.1969 326.649 91.8255C322.286 88.1641 315.781 88.7332 312.119 93.0967C307.748 98.3063 299.981 98.9858 294.771 94.6144C290.408 90.9531 283.902 91.5222 280.241 95.8857L278.709 94.6001ZM297.451 109.021C292.242 104.65 284.475 105.33 280.103 110.539L281.635 111.825C285.297 107.461 291.802 106.892 296.166 110.554C301.375 114.925 309.142 114.245 313.514 109.036C317.175 104.672 323.68 104.103 328.044 107.765C333.254 112.136 341.02 111.456 345.392 106.247C349.053 101.883 355.559 101.314 359.922 104.976C365.132 109.347 372.899 108.667 377.27 103.458C380.931 99.0944 387.437 98.5252 391.8 102.187C397.01 106.558 404.777 105.878 409.148 100.669C412.81 96.3054 419.315 95.7362 423.679 99.3976C428.888 103.769 436.655 103.089 441.027 97.8799L439.494 96.5943C435.833 100.958 429.328 101.527 424.964 97.8655C419.755 93.4942 411.988 94.1737 407.616 99.3833C403.955 103.747 397.449 104.316 393.086 100.655C387.876 96.2831 380.109 96.9627 375.738 102.172C372.077 106.536 365.571 107.105 361.208 103.444C355.998 99.0721 348.231 99.7516 343.86 104.961C340.198 109.325 333.693 109.894 329.329 106.232C324.12 101.861 316.353 102.541 311.982 107.75C308.32 112.114 301.815 112.683 297.451 109.021ZM281.498 126.478C285.869 121.269 293.636 120.589 298.846 124.961C303.209 128.622 309.715 128.053 313.376 123.689C317.747 118.48 325.514 117.8 330.724 122.172C335.087 125.833 341.593 125.264 345.254 120.9C349.626 115.691 357.393 115.011 362.602 119.383C366.966 123.044 373.471 122.475 377.132 118.111C381.504 112.902 389.271 112.222 394.48 116.594C398.844 120.255 405.349 119.686 409.011 115.322C413.382 110.113 421.149 109.433 426.359 113.805C430.722 117.466 437.228 116.897 440.889 112.533L442.421 113.819C438.05 119.029 430.283 119.708 425.073 115.337C420.71 111.675 414.204 112.245 410.543 116.608C406.171 121.818 398.404 122.497 393.195 118.126C388.831 114.464 382.326 115.033 378.665 119.397C374.293 124.607 366.526 125.286 361.317 120.915C356.953 117.253 350.448 117.822 346.786 122.186C342.415 127.396 334.648 128.075 329.438 123.704C325.075 120.042 318.57 120.611 314.908 124.975C310.537 130.185 302.77 130.864 297.56 126.493C293.197 122.831 286.691 123.4 283.03 127.764L281.498 126.478ZM300.24 140.9C295.031 136.528 287.264 137.208 282.892 142.417L284.424 143.703C288.086 139.34 294.591 138.77 298.955 142.432C304.164 146.803 311.931 146.124 316.303 140.914C319.964 136.551 326.469 135.981 330.833 139.643C336.043 144.014 343.809 143.335 348.181 138.125C351.842 133.762 358.348 133.192 362.711 136.854C367.921 141.225 375.688 140.546 380.059 135.336C383.72 130.973 390.226 130.403 394.589 134.065C399.799 138.436 407.566 137.757 411.937 132.547C415.599 128.184 422.104 127.614 426.468 131.276C431.677 135.647 439.444 134.968 443.816 129.758L442.283 128.473C438.622 132.836 432.117 133.405 427.753 129.744C422.544 125.372 414.777 126.052 410.405 131.262C406.744 135.625 400.238 136.194 395.875 132.533C390.665 128.161 382.898 128.841 378.527 134.05C374.866 138.414 368.36 138.983 363.997 135.322C358.787 130.95 351.02 131.63 346.649 136.839C342.987 141.203 336.482 141.772 332.118 138.111C326.909 133.739 319.142 134.419 314.771 139.628C311.109 143.992 304.604 144.561 300.24 140.9Z" fill="#F5F5F5"/>
<g filter="url(#filter0_diiiii)">
<circle cx="66" cy="66" r="50" fill="white"/>
</g>
<g filter="url(#filter1_diiiii)">
<circle cx="351" cy="391" r="75" fill="white"/>
</g>
<defs>
<filter id="filter0_diiiii" x="0" y="0" width="164" height="164" filterUnits="userSpaceOnUse" color-interpolation-filters="sRGB">
<feFlood flood-opacity="0" result="BackgroundImageFix"/>
<feColorMatrix in="SourceAlpha" type="matrix" values="0 0 0 0 0 0 0 0 0 0 0 0 0 0 0 0 0 0 127 0"/>
<feOffset dx="16" dy="16"/>
<feGaussianBlur stdDeviation="16"/>
<feColorMatrix type="matrix" values="0 0 0 0 0 0 0 0 0 0 0 0 0 0 0 0 0 0 0.15 0"/>
<feBlend mode="normal" in2="BackgroundImageFix" result="effect1_dropShadow"/>
<feBlend mode="normal" in="SourceGraphic" in2="effect1_dropShadow" result="shape"/>
<feColorMatrix in="SourceAlpha" type="matrix" values="0 0 0 0 0 0 0 0 0 0 0 0 0 0 0 0 0 0 127 0" result="hardAlpha"/>
<feOffset dx="-2" dy="-2"/>
<feGaussianBlur stdDeviation="2.5"/>
<feComposite in2="hardAlpha" operator="arithmetic" k2="-1" k3="1"/>
<feColorMatrix type="matrix" values="0 0 0 0 0 0 0 0 0 0 0 0 0 0 0 0 0 0 0.15 0"/>
<feBlend mode="normal" in2="shape" result="effect2_innerShadow"/>
<feColorMatrix in="SourceAlpha" type="matrix" values="0 0 0 0 0 0 0 0 0 0 0 0 0 0 0 0 0 0 127 0" result="hardAlpha"/>
<feOffset dx="-8" dy="-8"/>
<feGaussianBlur stdDeviation="12.5"/>
<feComposite in2="hardAlpha" operator="arithmetic" k2="-1" k3="1"/>
<feColorMatrix type="matrix" values="0 0 0 0 0 0 0 0 0 0 0 0 0 0 0 0 0 0 0.15 0"/>
<feBlend mode="normal" in2="effect2_innerShadow" result="effect3_innerShadow"/>
<feColorMatrix in="SourceAlpha" type="matrix" values="0 0 0 0 0 0 0 0 0 0 0 0 0 0 0 0 0 0 127 0" result="hardAlpha"/>
<feOffset dx="8" dy="8"/>
<feGaussianBlur stdDeviation="12.5"/>
<feComposite in2="hardAlpha" operator="arithmetic" k2="-1" k3="1"/>
<feColorMatrix type="matrix" values="0 0 0 0 1 0 0 0 0 1 0 0 0 0 1 0 0 0 0.5 0"/>
<feBlend mode="normal" in2="effect3_innerShadow" result="effect4_innerShadow"/>
<feColorMatrix in="SourceAlpha" type="matrix" values="0 0 0 0 0 0 0 0 0 0 0 0 0 0 0 0 0 0 127 0" result="hardAlpha"/>
<feOffset dx="32" dy="32"/>
<feGaussianBlur stdDeviation="25"/>
<feComposite in2="hardAlpha" operator="arithmetic" k2="-1" k3="1"/>
<feColorMatrix type="matrix" values="0 0 0 0 1 0 0 0 0 1 0 0 0 0 1 0 0 0 0.15 0"/>
<feBlend mode="normal" in2="effect4_innerShadow" result="effect5_innerShadow"/>
<feColorMatrix in="SourceAlpha" type="matrix" values="0 0 0 0 0 0 0 0 0 0 0 0 0 0 0 0 0 0 127 0" result="hardAlpha"/>
<feOffset dx="32" dy="32"/>
<feGaussianBlur stdDeviation="25"/>
<feComposite in2="hardAlpha" operator="arithmetic" k2="-1" k3="1"/>
<feColorMatrix type="matrix" values="0 0 0 0 1 0 0 0 0 1 0 0 0 0 1 0 0 0 0.5 0"/>
<feBlend mode="normal" in2="effect5_innerShadow" result="effect6_innerShadow"/>
</filter>
<filter id="filter1_diiiii" x="244" y="284" width="278" height="278" filterUnits="userSpaceOnUse" color-interpolation-filters="sRGB">
<feFlood flood-opacity="0" result="BackgroundImageFix"/>
<feColorMatrix in="SourceAlpha" type="matrix" values="0 0 0 0 0 0 0 0 0 0 0 0 0 0 0 0 0 0 127 0"/>
<feOffset dx="32" dy="32"/>
<feGaussianBlur stdDeviation="32"/>
<feColorMatrix type="matrix" values="0 0 0 0 0 0 0 0 0 0 0 0 0 0 0 0 0 0 0.15 0"/>
<feBlend mode="normal" in2="BackgroundImageFix" result="effect1_dropShadow"/>
<feBlend mode="normal" in="SourceGraphic" in2="effect1_dropShadow" result="shape"/>
<feColorMatrix in="SourceAlpha" type="matrix" values="0 0 0 0 0 0 0 0 0 0 0 0 0 0 0 0 0 0 127 0" result="hardAlpha"/>
<feOffset dx="-2" dy="-2"/>
<feGaussianBlur stdDeviation="5"/>
<feComposite in2="hardAlpha" operator="arithmetic" k2="-1" k3="1"/>
<feColorMatrix type="matrix" values="0 0 0 0 0 0 0 0 0 0 0 0 0 0 0 0 0 0 0.15 0"/>
<feBlend mode="normal" in2="shape" result="effect2_innerShadow"/>
<feColorMatrix in="SourceAlpha" type="matrix" values="0 0 0 0 0 0 0 0 0 0 0 0 0 0 0 0 0 0 127 0" result="hardAlpha"/>
<feOffset dx="-8" dy="-8"/>
<feGaussianBlur stdDeviation="25"/>
<feComposite in2="hardAlpha" operator="arithmetic" k2="-1" k3="1"/>
<feColorMatrix type="matrix" values="0 0 0 0 0 0 0 0 0 0 0 0 0 0 0 0 0 0 0.15 0"/>
<feBlend mode="normal" in2="effect2_innerShadow" result="effect3_innerShadow"/>
<feColorMatrix in="SourceAlpha" type="matrix" values="0 0 0 0 0 0 0 0 0 0 0 0 0 0 0 0 0 0 127 0" result="hardAlpha"/>
<feOffset dx="8" dy="8"/>
<feGaussianBlur stdDeviation="12.5"/>
<feComposite in2="hardAlpha" operator="arithmetic" k2="-1" k3="1"/>
<feColorMatrix type="matrix" values="0 0 0 0 1 0 0 0 0 1 0 0 0 0 1 0 0 0 0.5 0"/>
<feBlend mode="normal" in2="effect3_innerShadow" result="effect4_innerShadow"/>
<feColorMatrix in="SourceAlpha" type="matrix" values="0 0 0 0 0 0 0 0 0 0 0 0 0 0 0 0 0 0 127 0" result="hardAlpha"/>
<feOffset dx="32" dy="32"/>
<feGaussianBlur stdDeviation="25"/>
<feComposite in2="hardAlpha" operator="arithmetic" k2="-1" k3="1"/>
<feColorMatrix type="matrix" values="0 0 0 0 1 0 0 0 0 1 0 0 0 0 1 0 0 0 0.15 0"/>
<feBlend mode="normal" in2="effect4_innerShadow" result="effect5_innerShadow"/>
<feColorMatrix in="SourceAlpha" type="matrix" values="0 0 0 0 0 0 0 0 0 0 0 0 0 0 0 0 0 0 127 0" result="hardAlpha"/>
<feOffset dx="32" dy="32"/>
<feGaussianBlur stdDeviation="25"/>
<feComposite in2="hardAlpha" operator="arithmetic" k2="-1" k3="1"/>
<feColorMatrix type="matrix" values="0 0 0 0 1 0 0 0 0 1 0 0 0 0 1 0 0 0 0.5 0"/>
<feBlend mode="normal" in2="effect5_innerShadow" result="effect6_innerShadow"/>
</filter>
<linearGradient id="paint0_linear" x1="36" y1="16" x2="413.969" y2="38.1218" gradientUnits="userSpaceOnUse">
<stop stop-color="#51DB91"/>
<stop offset="1" stop-color="#38D0B5"/>
</linearGradient>
</defs>
</svg>
