<svg width="12" height="12" viewBox="0 0 12 12" fill="none" xmlns="http://www.w3.org/2000/svg">
<g clip-path="url(#clip0)">
<path d="M4.37204 6.6204C4.37204 6.47008 4.25011 6.3483 4.09966 6.3483H3.14918C2.99891 6.3483 2.87695 6.47008 2.87695 6.6204V7.57076C2.87695 7.72128 2.99891 7.84311 3.14918 7.84311H4.09966C4.25011 7.84311 4.37204 7.72128 4.37204 7.57076V6.6204Z" fill="#909090"/>
<path d="M6.74885 6.6204C6.74885 6.47008 6.6269 6.3483 6.47675 6.3483H5.52613C5.37586 6.3483 5.25391 6.47008 5.25391 6.6204V7.57076C5.25391 7.72128 5.37586 7.84311 5.52613 7.84311H6.47675C6.6269 7.84311 6.74885 7.72128 6.74885 7.57076V6.6204Z" fill="#909090"/>
<path d="M9.12204 6.6204C9.12204 6.47008 9.00008 6.3483 8.84981 6.3483H7.89933C7.74888 6.3483 7.62695 6.47008 7.62695 6.6204V7.57076C7.62695 7.72128 7.74888 7.84311 7.89933 7.84311H8.84981C9.00008 7.84311 9.12204 7.72128 9.12204 7.57076V6.6204Z" fill="#909090"/>
<path d="M4.37204 8.99595C4.37204 8.84538 4.25011 8.72369 4.09966 8.72369H3.14918C2.99891 8.72369 2.87695 8.84538 2.87695 8.99595V9.94613C2.87695 10.0966 2.99891 10.2184 3.14918 10.2184H4.09966C4.25011 10.2184 4.37204 10.0965 4.37204 9.94613V8.99595Z" fill="#909090"/>
<path d="M6.74885 8.99595C6.74885 8.84538 6.6269 8.72369 6.47675 8.72369H5.52613C5.37586 8.72369 5.25391 8.84538 5.25391 8.99595V9.94613C5.25391 10.0966 5.37586 10.2184 5.52613 10.2184H6.47675C6.6269 10.2184 6.74885 10.0965 6.74885 9.94613V8.99595Z" fill="#909090"/>
<path d="M9.12204 8.99595C9.12204 8.84538 9.00008 8.72369 8.84993 8.72369H7.89933C7.74888 8.72369 7.62695 8.84538 7.62695 8.99595V9.94613C7.62695 10.0966 7.74888 10.2184 7.89933 10.2184H8.84993C9.00008 10.2184 9.12204 10.0965 9.12204 9.94613V8.99595Z" fill="#909090"/>
<path d="M10.8223 1.33621V2.7878C10.8223 3.44391 10.2901 3.97263 9.63407 3.97263H8.88448C8.22842 3.97263 7.68911 3.44391 7.68911 2.7878V1.33099H4.31049V2.7878C4.31049 3.44391 3.7712 3.97263 3.11524 3.97263H2.36549C1.70951 3.97263 1.17727 3.44391 1.17727 2.7878V1.33621C0.603936 1.35349 0.132812 1.8279 0.132812 2.41103V10.9181C0.132812 11.5122 0.614335 12.0001 1.20842 12.0001H10.7912C11.3844 12.0001 11.8668 11.5112 11.8668 10.9181V2.41103C11.8668 1.8279 11.3957 1.35349 10.8223 1.33621ZM10.4742 10.3883C10.4742 10.6451 10.266 10.8533 10.0092 10.8533H1.96994C1.7131 10.8533 1.50493 10.6451 1.50493 10.3883V5.99412C1.50493 5.73729 1.71307 5.529 1.96994 5.529H10.0092C10.266 5.529 10.4742 5.73729 10.4742 5.99412L10.4742 10.3883Z" fill="#909090"/>
<path d="M2.36261 3.19437H3.10406C3.32912 3.19437 3.51159 3.01217 3.51159 2.78712V0.407406C3.51159 0.182328 3.32912 0 3.10406 0H2.36261C2.13753 0 1.95508 0.182328 1.95508 0.407406V2.78712C1.95508 3.01217 2.13753 3.19437 2.36261 3.19437Z" fill="#909090"/>
<path d="M8.8743 3.19437H9.61576C9.84066 3.19437 10.0231 3.01217 10.0231 2.78712V0.407406C10.0232 0.182328 9.84069 0 9.61576 0H8.8743C8.64927 0 8.4668 0.182328 8.4668 0.407406V2.78712C8.4668 3.01217 8.64927 3.19437 8.8743 3.19437Z" fill="#909090"/>
</g>
<defs>
<clipPath id="clip0">
<rect width="12" height="12" fill="white"/>
</clipPath>
</defs>
</svg>
