<svg width="12" height="12" viewBox="0 0 12 12" fill="none" xmlns="http://www.w3.org/2000/svg">
<path d="M10.1376 12C10.365 12 10.5493 11.8156 10.5493 11.5883C10.5493 11.3609 10.365 11.1766 10.1376 11.1766H9.43216L9.43212 9.91183C9.43212 8.63235 8.72998 7.45627 7.45498 6.60014C7.29636 6.49364 7.19785 6.2637 7.19785 6.00006C7.19785 5.73642 7.29636 5.50644 7.45506 5.3999C8.72998 4.54381 9.43212 3.36777 9.4322 2.08825V0.823478H10.1376C10.365 0.823478 10.5493 0.639113 10.5493 0.411759C10.5493 0.184405 10.365 0 10.1376 0H1.86094C1.63358 0 1.44922 0.184364 1.44922 0.411719C1.44922 0.639073 1.63358 0.823437 1.86094 0.823437H2.56635V2.08821C2.56635 3.36773 3.2685 4.54377 4.54354 5.3999C4.70212 5.5064 4.80063 5.7363 4.80063 6.00002C4.80063 6.2637 4.70212 6.49364 4.5435 6.60018C3.2685 7.45627 2.56635 8.63231 2.56635 9.91183V11.1766H1.86094C1.63358 11.1766 1.44922 11.3609 1.44922 11.5883C1.44922 11.8157 1.63358 12 1.86094 12H10.1376Z" fill="#909090"/>
</svg>
