<svg width="16" height="16" viewBox="0 0 16 16" fill="none" xmlns="http://www.w3.org/2000/svg">
<path d="M15.9882 3.44673C15.9882 3.42845 16.0008 3.41065 16 3.39258L11.1173 8.09727L15.9941 12.6517C15.997 12.6191 15.9882 12.5863 15.9882 12.5531V3.44673Z" fill="white"/>
<path d="M10.3719 8.82129L8.37868 10.739C8.27782 10.8361 8.14755 10.8847 8.01721 10.8847C7.88958 10.8847 7.76196 10.8382 7.66179 10.7448L5.67397 8.89247L0.76532 13.6239C0.884675 13.6668 1.01279 13.7 1.14695 13.7H14.8875C15.0868 13.7 15.2736 13.6394 15.4361 13.5489L10.3719 8.82129Z" fill="white"/>
<path d="M8.01151 9.64548L15.4631 2.4674C15.2944 2.36709 15.098 2.2998 14.8875 2.2998H1.14694C0.872852 2.2998 0.621698 2.40623 0.426086 2.56855L8.01151 9.64548Z" fill="white"/>
<path d="M0 3.62158V12.553C0 12.6555 0.0235652 12.7544 0.0491463 12.8488L4.8969 8.18058L0 3.62158Z" fill="white"/>
</svg>
