<svg width="48" height="48" viewBox="0 0 48 48" fill="none" xmlns="http://www.w3.org/2000/svg">
<circle cx="24" cy="24" r="24" fill="#1151B8"/>
<g clip-path="url(#clip0)">
<path d="M31.996 32V31.9993H32V26.1313C32 23.2606 31.382 21.0493 28.026 21.0493C26.4126 21.0493 25.33 21.9346 24.888 22.774H24.8413V21.3173H21.6593V31.9993H24.9726V26.71C24.9726 25.3173 25.2366 23.9706 26.9613 23.9706C28.6606 23.9706 28.686 25.56 28.686 26.7993V32H31.996Z" fill="white"/>
<path d="M16.264 21.3179H19.5814V31.9999H16.264V21.3179Z" fill="white"/>
<path d="M17.9213 16C16.8607 16 16 16.8607 16 17.9213C16 18.982 16.8607 19.8607 17.9213 19.8607C18.982 19.8607 19.8427 18.982 19.8427 17.9213C19.842 16.8607 18.9813 16 17.9213 16V16Z" fill="white"/>
</g>
<defs>
<clipPath id="clip0">
<rect width="16" height="16" fill="white" transform="translate(16 16)"/>
</clipPath>
</defs>
</svg>
