<svg width="365" height="163" viewBox="0 0 365 163" fill="none" xmlns="http://www.w3.org/2000/svg">
<path d="M133 113.184V63.8556C133 62.7692 133.356 61.855 134.069 61.113C134.782 60.371 135.653 60 136.683 60H152.802C153.832 60 154.809 60.371 155.733 61.113C156.657 61.855 157.277 62.7427 157.594 63.7762L169.277 97.7218L180.96 63.7762C181.277 62.7427 181.898 61.855 182.822 61.113C183.746 60.371 184.723 60 185.752 60H201.871C202.901 60 203.759 60.371 204.446 61.113C205.158 61.855 205.515 62.7692 205.515 63.8556V113.184C205.515 114.271 205.145 115.185 204.406 115.927C203.693 116.642 202.822 117 201.792 117H194.663C193.634 117 192.749 116.642 192.01 115.927C191.297 115.185 190.941 114.271 190.941 113.184V74.3494L176.96 113.423C176.591 114.403 175.944 115.251 175.02 115.967C174.096 116.656 173.119 117 172.089 117H166.426C165.396 117 164.419 116.656 163.495 115.967C162.597 115.251 161.95 114.403 161.554 113.423L147.614 74.3494V113.184C147.614 114.271 147.244 115.185 146.505 115.927C145.792 116.642 144.921 117 143.891 117H136.762C135.733 117 134.848 116.642 134.109 115.927C133.37 115.185 133 114.271 133 113.184Z" fill="white"/>
<path d="M216.881 113.343V63.7762C216.881 62.7427 217.251 61.855 217.99 61.113C218.729 60.371 219.614 60 220.644 60H228.01C229.092 60 229.99 60.371 230.703 61.113C231.442 61.855 231.812 62.7427 231.812 63.7762V113.264C231.812 114.297 231.429 115.185 230.663 115.927C229.924 116.642 229.04 117 228.01 117H220.644C219.614 117 218.729 116.656 217.99 115.967C217.251 115.251 216.881 114.377 216.881 113.343Z" fill="white"/>
<path d="M243.178 113.264V63.7762C243.178 62.7427 243.535 61.855 244.248 61.113C244.96 60.371 245.832 60 246.861 60H279.535C285.581 60 290.531 61.6297 294.386 64.8891C298.267 68.1485 300.208 72.5474 300.208 78.0858C300.208 85.7971 295.231 90.6332 285.277 92.5941C286.835 93.2036 288.287 94.2106 289.634 95.6151C291.007 97.0195 292.564 99.0732 294.307 101.776L301.515 113.264C301.964 114.032 302.188 114.695 302.188 115.251C302.188 115.49 302.149 115.715 302.069 115.927C301.805 116.642 301.158 117 300.129 117H290.624C289.594 117 288.485 116.642 287.297 115.927C286.109 115.185 285.198 114.297 284.564 113.264L277.832 102.69C275.086 98.3445 271.733 96.1715 267.772 96.1715H258.109V113.264C258.109 114.297 257.739 115.185 257 115.927C256.287 116.642 255.416 117 254.386 117H246.941C245.911 117 245.026 116.642 244.287 115.927C243.548 115.185 243.178 114.297 243.178 113.264ZM258.109 84.9226H274.98C277.673 84.9226 280.063 84.3794 282.149 83.2929C284.234 82.2064 285.277 80.4707 285.277 78.0858C285.277 75.7008 284.234 73.9651 282.149 72.8787C280.089 71.7922 277.7 71.249 274.98 71.249H258.109V84.9226Z" fill="white"/>
<path d="M304.01 113.343L313.95 75.5021C316.644 65.1939 325.409 60.0265 340.248 60H361.594C362.571 60 363.376 60.371 364.01 61.113C364.67 61.855 365 62.7162 365 63.6967V113.343C365 114.377 364.63 115.251 363.891 115.967C363.152 116.656 362.267 117 361.238 117H353.792C352.71 117 351.812 116.656 351.099 115.967C350.413 115.251 350.069 114.35 350.069 113.264V103.247H321.911L319.257 113.264C318.993 114.35 318.399 115.251 317.475 115.967C316.551 116.656 315.574 117 314.545 117H306.743C305.713 117 304.934 116.642 304.406 115.927C304.036 115.45 303.851 114.907 303.851 114.297C303.878 114.006 303.931 113.688 304.01 113.343ZM324.842 91.9979H350.069V71.249H338.782C336.248 71.249 334.03 71.9777 332.129 73.4351C330.254 74.8661 328.987 76.8006 328.327 79.2385L324.842 91.9979Z" fill="white"/>
<path d="M321.242 149.215C321.242 149.308 321.218 149.39 321.172 149.459C321.125 149.529 321.044 149.587 320.928 149.634C320.812 149.669 320.655 149.698 320.457 149.721C320.272 149.756 320.039 149.773 319.76 149.773C319.458 149.773 319.214 149.756 319.028 149.721C318.843 149.698 318.692 149.669 318.575 149.634C318.459 149.587 318.378 149.529 318.331 149.459C318.285 149.39 318.262 149.308 318.262 149.215V139.206H307.997V149.215C307.997 149.308 307.974 149.39 307.928 149.459C307.881 149.529 307.8 149.587 307.684 149.634C307.568 149.669 307.411 149.698 307.213 149.721C307.027 149.756 306.789 149.773 306.499 149.773C306.22 149.773 305.982 149.756 305.784 149.721C305.587 149.698 305.43 149.669 305.314 149.634C305.198 149.587 305.116 149.529 305.07 149.459C305.023 149.39 305 149.308 305 149.215V127.558C305 127.465 305.023 127.384 305.07 127.314C305.116 127.244 305.198 127.192 305.314 127.157C305.43 127.11 305.587 127.076 305.784 127.052C305.982 127.017 306.22 127 306.499 127C306.789 127 307.027 127.017 307.213 127.052C307.411 127.076 307.568 127.11 307.684 127.157C307.8 127.192 307.881 127.244 307.928 127.314C307.974 127.384 307.997 127.465 307.997 127.558V136.591H318.262V127.558C318.262 127.465 318.285 127.384 318.331 127.314C318.378 127.244 318.459 127.192 318.575 127.157C318.692 127.11 318.843 127.076 319.028 127.052C319.214 127.017 319.458 127 319.76 127C320.039 127 320.272 127.017 320.457 127.052C320.655 127.076 320.812 127.11 320.928 127.157C321.044 127.192 321.125 127.244 321.172 127.314C321.218 127.384 321.242 127.465 321.242 127.558V149.215Z" fill="#8BB70C"/>
<path d="M344.193 141.334C344.193 142.705 343.989 143.932 343.583 145.013C343.188 146.082 342.618 146.989 341.875 147.733C341.131 148.477 340.225 149.041 339.156 149.425C338.087 149.808 336.873 150 335.514 150C334.271 150 333.138 149.82 332.116 149.459C331.094 149.099 330.216 148.57 329.484 147.873C328.753 147.164 328.189 146.28 327.794 145.222C327.399 144.164 327.202 142.944 327.202 141.56V127.558C327.202 127.465 327.225 127.384 327.271 127.314C327.318 127.244 327.399 127.192 327.515 127.157C327.631 127.11 327.782 127.076 327.968 127.052C328.154 127.017 328.398 127 328.7 127C328.979 127 329.217 127.017 329.415 127.052C329.612 127.076 329.763 127.11 329.868 127.157C329.984 127.192 330.065 127.244 330.112 127.314C330.158 127.384 330.182 127.465 330.182 127.558V141.194C330.182 142.24 330.309 143.153 330.565 143.932C330.821 144.711 331.186 145.362 331.663 145.885C332.151 146.396 332.732 146.786 333.405 147.053C334.091 147.309 334.858 147.437 335.706 147.437C336.577 147.437 337.35 147.309 338.024 147.053C338.709 146.797 339.284 146.414 339.749 145.902C340.225 145.391 340.585 144.757 340.829 144.002C341.085 143.246 341.213 142.362 341.213 141.351V127.558C341.213 127.465 341.236 127.384 341.282 127.314C341.329 127.244 341.41 127.192 341.526 127.157C341.642 127.11 341.793 127.076 341.979 127.052C342.177 127.017 342.421 127 342.711 127C342.99 127 343.222 127.017 343.408 127.052C343.606 127.076 343.757 127.11 343.861 127.157C343.978 127.192 344.059 127.244 344.105 127.314C344.164 127.384 344.193 127.465 344.193 127.558V141.334Z" fill="#8BB70C"/>
<path d="M365 143.199C365 143.909 364.907 144.565 364.721 145.17C364.547 145.763 364.297 146.297 363.972 146.774C363.647 147.251 363.252 147.669 362.787 148.03C362.334 148.39 361.817 148.692 361.236 148.936C360.667 149.18 360.051 149.366 359.389 149.494C358.738 149.611 357.989 149.669 357.141 149.669H351.25C350.983 149.669 350.728 149.582 350.484 149.407C350.251 149.221 350.135 148.901 350.135 148.448V128.325C350.135 127.872 350.251 127.558 350.484 127.384C350.728 127.198 350.983 127.105 351.25 127.105H356.374C357.721 127.105 358.825 127.232 359.685 127.488C360.545 127.744 361.259 128.116 361.828 128.604C362.409 129.092 362.845 129.691 363.135 130.4C363.426 131.109 363.571 131.912 363.571 132.807C363.571 133.341 363.507 133.853 363.379 134.341C363.252 134.829 363.06 135.283 362.804 135.701C362.56 136.108 362.247 136.474 361.863 136.8C361.491 137.125 361.062 137.393 360.574 137.602C361.189 137.718 361.764 137.933 362.299 138.247C362.833 138.549 363.298 138.939 363.693 139.415C364.1 139.892 364.419 140.45 364.651 141.089C364.884 141.729 365 142.432 365 143.199ZM360.486 133.103C360.486 132.557 360.411 132.063 360.26 131.621C360.109 131.179 359.871 130.807 359.545 130.505C359.22 130.191 358.796 129.953 358.273 129.79C357.751 129.627 357.059 129.546 356.2 129.546H353.098V136.852H356.513C357.292 136.852 357.919 136.753 358.395 136.556C358.872 136.346 359.267 136.073 359.58 135.736C359.894 135.387 360.121 134.986 360.26 134.533C360.411 134.068 360.486 133.591 360.486 133.103ZM361.846 143.374C361.846 142.7 361.735 142.107 361.515 141.595C361.306 141.084 360.992 140.654 360.574 140.305C360.167 139.956 359.65 139.694 359.023 139.52C358.407 139.334 357.629 139.241 356.687 139.241H353.098V147.193H357.454C358.14 147.193 358.738 147.111 359.249 146.948C359.76 146.786 360.208 146.547 360.591 146.234C360.986 145.908 361.294 145.507 361.515 145.03C361.735 144.554 361.846 144.002 361.846 143.374Z" fill="#8BB70C"/>
<path fill-rule="evenodd" clip-rule="evenodd" d="M71.7143 115H64V122.714H64.0001C69.6807 122.714 74.2857 127.319 74.2858 133H82V125.286C76.3194 125.286 71.7143 120.681 71.7143 115C71.7143 115 71.7143 115 71.7143 115Z" fill="#8BB70C"/>
<path fill-rule="evenodd" clip-rule="evenodd" d="M85 51.4287L85 42L75.5713 42L75.5713 42.0001C75.5713 48.9431 69.9429 54.5715 63 54.5716L63 64L72.4284 64C72.4285 57.057 78.0569 51.4287 84.9999 51.4287C84.9999 51.4287 85 51.4287 85 51.4287Z" fill="#8BB70C"/>
<circle cx="91" cy="143" r="20" fill="#8BB70C"/>
<circle cx="98.5" cy="27.5" r="27.5" fill="#8BB70C"/>
<circle cx="41" cy="89" r="41" fill="#8BB70C"/>
</svg>
