<svg width="205" height="64" viewBox="0 0 205 64" fill="none" xmlns="http://www.w3.org/2000/svg">
<g clip-path="url(#clip0)">
<path fill-rule="evenodd" clip-rule="evenodd" d="M15.9393 18.954C18.5381 18.954 20.9636 19.5777 23.1466 20.6519C23.7357 20.9637 25.0178 21.5181 26.4038 21.4488C27.9284 21.3449 29.3145 20.1321 29.6263 18.6075C29.6956 17.7412 29.5224 16.7363 29.1412 16.0433C28.2749 14.484 27.7552 12.6822 27.7552 10.7764C27.7898 4.85111 32.6063 0 38.6009 0C44.5608 0 49.4119 4.85111 49.4119 10.811C49.4119 16.771 44.5608 21.6221 38.6009 21.6221C36.9376 21.6221 35.3437 21.2409 33.923 20.5826C33.5072 20.3747 33.0221 20.2707 32.537 20.2707C31.3935 20.2707 29.6956 21.137 29.0026 22.8349C28.5521 24.8793 29.5917 26.6811 30.0075 27.4781C31.2203 29.6957 31.8786 32.2252 31.8786 34.928C31.8786 38.3584 30.7698 41.5463 28.9333 44.1798C28.4828 44.9074 28.3096 45.7737 28.4482 46.64C28.7254 48.3378 30.25 49.2041 31.2203 49.2041C31.5668 49.2041 31.9133 49.1348 32.2251 48.9616C33.2647 48.4764 34.4081 48.1992 35.6209 48.1992C39.9869 48.1992 43.5213 51.7336 43.5213 56.0996C43.5213 60.4656 39.9869 64 35.6209 64C31.2549 64 27.7205 60.4656 27.7205 56.0996C27.7205 54.7136 28.1017 53.3969 28.7254 52.2534C29.0026 51.7683 29.1066 51.1099 29.0719 50.4862C28.8987 49.412 28.067 48.4764 27.0622 48.1646C25.988 47.8874 24.8792 48.1992 23.9089 48.719C21.1022 50.3476 17.8451 51.0753 14.5879 50.8327C6.7568 50.1743 0.519663 43.8679 -9.85805e-05 35.9675C-0.242654 31.5322 1.28198 27.2355 4.33125 23.9783C7.31122 20.7905 11.5733 18.9886 15.9393 18.954Z" fill="#86B227"/>
<path d="M65.005 45.9816C64.208 45.9816 63.4111 45.3579 63.0992 44.5956L57.659 29.4185V44.4916C57.659 45.3232 57.0353 45.9816 56.2037 45.9816H53.4316C52.6 45.9816 51.9763 45.3232 51.9763 44.4916V25.3297C51.9763 24.4981 52.6 23.8397 53.397 23.8397H59.6688C60.5004 23.8397 61.2627 24.4981 61.5399 25.2951L66.0792 38.4624L70.6184 25.2951C70.861 24.4981 71.658 23.8397 72.4896 23.8397H78.7614C79.5583 23.8397 80.182 24.4981 80.182 25.3297V44.457C80.182 45.2886 79.5583 45.9469 78.7267 45.9469H75.9546C75.123 45.9469 74.4993 45.2886 74.4993 44.457V29.4185L69.0591 44.5956C68.7819 45.3579 67.9503 45.9816 67.1534 45.9816H65.005Z" fill="#040405"/>
<path d="M84.6519 25.3297C84.6519 24.4981 85.3102 23.8744 86.1072 23.8744H88.9832C89.8148 23.8744 90.4732 24.4981 90.4732 25.3297V44.5263C90.4732 45.3232 89.8148 45.9816 88.9832 45.9816H86.1072C85.3102 45.9816 84.6519 45.3579 84.6519 44.5609V25.3297Z" fill="#040405"/>
<path d="M100.695 37.8733V44.4916C100.695 45.2886 100.071 45.9469 99.2398 45.9469H96.3291C95.5321 45.9469 94.8738 45.2886 94.8738 44.4916V25.3297C94.8738 24.4981 95.4975 23.8744 96.2945 23.8744H109.011C113.62 23.8744 117.05 26.5425 117.05 30.8739C117.05 34.2696 114.417 35.8636 111.229 36.4873C112.511 36.9724 113.481 38.0812 114.729 40.0563L117.535 44.5263C118.055 45.3579 117.813 45.9816 117.016 45.9816H113.308C112.511 45.9816 111.437 45.3579 110.952 44.5263L108.318 40.4028C107.521 39.1554 106.378 37.8733 104.403 37.8733H100.695ZM100.695 28.2057V33.5073H107.279C109.046 33.5073 111.298 32.8836 111.298 30.8392C111.298 28.8295 109.046 28.1711 107.279 28.1711H100.695V28.2057Z" fill="#040405"/>
<path d="M122.906 29.869C124.188 24.9832 128.658 23.8744 133.128 23.8744H141.445C142.207 23.8744 142.761 24.5328 142.761 25.2951V44.5609C142.761 45.3579 142.103 45.9816 141.306 45.9816H138.395C137.564 45.9816 136.94 45.3579 136.94 44.5263V40.6454H125.99L124.951 44.5263C124.743 45.3579 123.946 45.9816 123.114 45.9816H120.065C119.233 45.9816 118.783 45.3579 118.991 44.5609L122.906 29.869ZM127.134 36.2794H136.975V28.2057H132.574C130.599 28.2057 129.005 29.4185 128.485 31.2897L127.134 36.2794Z" fill="#040405"/>
<path d="M184.793 37.6308C184.793 38.9475 184.585 40.1256 184.204 41.1651C183.822 42.2047 183.268 43.0709 182.54 43.7986C181.813 44.5263 180.946 45.046 179.942 45.4272C178.902 45.8083 177.759 45.9816 176.442 45.9816C175.229 45.9816 174.155 45.8083 173.185 45.4618C172.214 45.1153 171.348 44.5956 170.655 43.9372C169.962 43.2788 169.408 42.4126 169.027 41.4077C168.645 40.4028 168.438 39.2247 168.438 37.8733V37.6308V25.8495V24.6367C168.438 24.2209 168.784 23.8744 169.2 23.8744H170.586C171.002 23.8744 171.348 24.2209 171.348 24.6367V25.8495V37.4921C171.348 38.497 171.452 39.3633 171.729 40.1256C171.972 40.8879 172.318 41.5116 172.804 41.9967C173.254 42.4819 173.808 42.863 174.467 43.1056C175.125 43.3481 175.853 43.4867 176.65 43.4867C177.481 43.4867 178.209 43.3828 178.867 43.1056C179.526 42.8284 180.08 42.4819 180.531 41.9967C180.981 41.5116 181.328 40.8879 181.57 40.1603C181.813 39.4326 181.917 38.601 181.917 37.6308V25.8495V24.6367C181.917 24.2209 182.263 23.8744 182.679 23.8744H184.065C184.481 23.8744 184.827 24.2209 184.827 24.6367V25.8495V37.6308H184.793Z" fill="#86B227"/>
<path fill-rule="evenodd" clip-rule="evenodd" d="M149.033 23.8744H150.419C150.835 23.8744 151.181 24.2209 151.181 24.6367V36.9724H161.022V24.6367C161.022 24.2209 161.369 23.8744 161.785 23.8744H163.171C163.586 23.8744 163.933 24.2209 163.933 24.6367V45.0114C163.933 45.4272 163.586 45.7737 163.171 45.7737H161.785C161.369 45.7737 161.022 45.4272 161.022 45.0114V39.8484H151.181V45.0114C151.181 45.4272 150.835 45.7737 150.419 45.7737H149.033C148.617 45.7737 148.271 45.4272 148.271 45.0114V24.6367C148.271 24.2209 148.617 23.8744 149.033 23.8744Z" fill="#86B227"/>
<path fill-rule="evenodd" clip-rule="evenodd" d="M201.113 38.3238C200.905 37.8387 200.593 37.4229 200.212 37.0764C199.796 36.7298 199.311 36.4873 198.722 36.314C198.133 36.1408 197.371 36.0368 196.435 36.0368H192.277V43.3828H197.163C197.821 43.3828 198.41 43.3135 198.896 43.1402C199.381 42.967 199.831 42.7591 200.212 42.4472C200.593 42.1354 200.871 41.7542 201.079 41.3037C201.564 40.2989 201.529 39.3287 201.113 38.3238ZM199.9 28.379C199.589 27.4434 198.896 26.7504 197.96 26.4732C197.44 26.3 196.782 26.2307 195.95 26.2307H192.277V33.7152H196.262C197.024 33.7152 197.613 33.6113 198.099 33.438C198.999 33.0569 199.623 32.3985 199.9 31.4629C200.178 30.562 200.178 29.2453 199.9 28.379ZM190.129 23.8744H190.441H191.48H196.089C197.406 23.8744 198.48 23.9783 199.311 24.2556C200.836 24.706 202.049 25.7109 202.672 27.2009C203.123 28.3097 203.227 30.1115 202.915 31.2897C202.672 32.2252 202.187 33.0569 201.46 33.6806C201.079 33.9924 200.663 34.2696 200.212 34.4429C200.801 34.5468 201.39 34.7547 201.876 35.0666C202.395 35.3785 202.846 35.7596 203.227 36.2101C203.608 36.6605 203.92 37.215 204.162 37.8387C204.613 39.0514 204.613 40.1256 204.232 41.4077C204.059 41.9968 203.816 42.5165 203.504 42.967C203.192 43.4174 202.811 43.8333 202.361 44.1798C201.91 44.5263 201.425 44.8381 200.871 45.046C200.316 45.2886 199.693 45.4618 199.069 45.5658C198.41 45.6698 197.683 45.7391 196.886 45.7391H191.55H190.51H190.198C189.782 45.7391 189.436 45.3925 189.436 44.9767V44.5609V25.0525V24.6367C189.367 24.2209 189.713 23.8744 190.129 23.8744Z" fill="#86B227"/>
<path d="M132.539 57.0352C132.539 56.4808 132.435 56.0303 132.158 55.7185C131.881 55.4066 131.5 55.2333 131.015 55.2333C130.738 55.2333 130.53 55.268 130.322 55.372C130.114 55.4759 129.975 55.6145 129.837 55.7531C129.698 55.9264 129.594 56.0996 129.525 56.3075C129.455 56.5154 129.421 56.758 129.386 57.0005H132.539V57.0352ZM133.579 57.347C133.579 57.5203 133.544 57.6243 133.44 57.6936C133.371 57.7629 133.267 57.7975 133.163 57.7975H129.386C129.386 58.1094 129.421 58.4212 129.49 58.6638C129.559 58.9063 129.663 59.1489 129.802 59.3221C129.941 59.4954 130.148 59.634 130.391 59.738C130.634 59.8419 130.911 59.8766 131.257 59.8766C131.535 59.8766 131.777 59.8419 131.985 59.8073C132.193 59.7726 132.401 59.7033 132.539 59.6687C132.678 59.5993 132.817 59.5647 132.921 59.53C133.024 59.4954 133.094 59.4607 133.163 59.4607C133.198 59.4607 133.232 59.4607 133.232 59.4954C133.267 59.4954 133.267 59.53 133.302 59.5647C133.302 59.5993 133.336 59.634 133.336 59.7033C133.336 59.7726 133.336 59.8073 133.336 59.9112C133.336 59.9805 133.336 60.0152 133.336 60.0498C133.336 60.0845 133.336 60.1191 133.336 60.1538C133.336 60.1884 133.302 60.2231 133.302 60.2577C133.302 60.2924 133.267 60.2924 133.232 60.327C133.198 60.3617 133.128 60.3963 133.024 60.431C132.921 60.5003 132.747 60.5349 132.574 60.6042C132.401 60.6389 132.193 60.7082 131.95 60.7428C131.708 60.7775 131.465 60.8121 131.188 60.8121C130.703 60.8121 130.287 60.7428 129.941 60.6042C129.594 60.4656 129.282 60.2924 129.04 60.0152C128.797 59.738 128.624 59.4261 128.485 59.0449C128.347 58.6638 128.312 58.2133 128.312 57.6936C128.312 57.2084 128.381 56.758 128.52 56.3768C128.658 55.9957 128.832 55.6492 129.074 55.372C129.317 55.0947 129.594 54.8868 129.941 54.7482C130.287 54.6096 130.668 54.5403 131.084 54.5403C131.535 54.5403 131.916 54.6096 132.228 54.7482C132.539 54.8868 132.817 55.0947 133.024 55.3373C133.232 55.5799 133.371 55.8571 133.475 56.2036C133.579 56.5154 133.614 56.8966 133.614 57.2777V57.347H133.579ZM126.025 57.6243C126.025 57.3471 125.99 57.0352 125.956 56.758C125.921 56.4808 125.817 56.2382 125.713 56.0303C125.609 55.8224 125.471 55.6492 125.263 55.5106C125.089 55.372 124.847 55.3027 124.57 55.3027C124.431 55.3027 124.292 55.3373 124.154 55.372C124.015 55.4066 123.877 55.4759 123.738 55.5799C123.599 55.6838 123.461 55.7878 123.322 55.9264C123.184 56.065 123.01 56.2382 122.837 56.4461V58.7331C123.114 59.0796 123.392 59.3568 123.669 59.5647C123.946 59.738 124.189 59.8419 124.5 59.8419C124.778 59.8419 124.986 59.7726 125.193 59.634C125.367 59.4954 125.54 59.3221 125.644 59.1142C125.748 58.9063 125.852 58.6638 125.886 58.3866C125.99 58.144 126.025 57.9015 126.025 57.6243ZM127.099 57.4857C127.099 58.0054 127.03 58.4559 126.926 58.837C126.822 59.2528 126.649 59.5647 126.441 59.8419C126.233 60.1191 125.956 60.327 125.644 60.5003C125.332 60.6389 124.986 60.7428 124.57 60.7428C124.396 60.7428 124.258 60.7082 124.085 60.7082C123.946 60.6735 123.807 60.6042 123.669 60.5349C123.53 60.4656 123.392 60.3617 123.253 60.2577C123.114 60.1538 122.976 60.0152 122.803 59.8766V62.7526C122.803 62.7872 122.803 62.8219 122.768 62.8565C122.768 62.8912 122.733 62.8912 122.699 62.9258C122.664 62.9258 122.595 62.9605 122.525 62.9605C122.456 62.9605 122.387 62.9605 122.248 62.9605C122.144 62.9605 122.075 62.9605 122.006 62.9605C121.936 62.9605 121.867 62.9258 121.832 62.9258C121.798 62.8912 121.763 62.8912 121.763 62.8565C121.763 62.8219 121.728 62.7872 121.728 62.7526V54.7136C121.728 54.6789 121.728 54.6443 121.763 54.6096C121.763 54.575 121.798 54.575 121.832 54.5403C121.867 54.5057 121.936 54.5057 121.971 54.5057C122.04 54.5057 122.109 54.5057 122.179 54.5057C122.283 54.5057 122.352 54.5057 122.387 54.5057C122.456 54.5057 122.491 54.5403 122.525 54.5403C122.56 54.575 122.595 54.575 122.595 54.6096C122.595 54.6443 122.629 54.6789 122.629 54.7136V55.4759C122.803 55.3027 122.976 55.1294 123.149 55.0254C123.322 54.8868 123.461 54.7829 123.634 54.7136C123.807 54.6096 123.981 54.575 124.154 54.5057C124.327 54.471 124.5 54.4364 124.708 54.4364C125.124 54.4364 125.471 54.5057 125.782 54.6789C126.06 54.8522 126.302 55.0601 126.51 55.3373C126.683 55.6145 126.822 55.961 126.926 56.3075C127.065 56.6887 127.099 57.0698 127.099 57.4857ZM120.516 60.327C120.55 60.3963 120.585 60.431 120.585 60.4656C120.585 60.5003 120.55 60.5349 120.516 60.5696C120.481 60.6042 120.412 60.6042 120.342 60.6389C120.273 60.6389 120.134 60.6389 120.03 60.6389C119.892 60.6389 119.788 60.6389 119.719 60.6389C119.649 60.6389 119.58 60.6042 119.545 60.6042C119.511 60.6042 119.476 60.5696 119.441 60.5349C119.407 60.5003 119.407 60.5003 119.372 60.4656L117.986 58.1787L116.6 60.4656C116.6 60.5003 116.565 60.5349 116.531 60.5349C116.496 60.5696 116.461 60.5696 116.427 60.6042C116.392 60.6042 116.323 60.6389 116.254 60.6389C116.184 60.6389 116.08 60.6389 115.976 60.6389C115.838 60.6389 115.768 60.6389 115.664 60.6389C115.595 60.6389 115.526 60.6042 115.491 60.5696C115.457 60.5349 115.422 60.5003 115.422 60.4656C115.422 60.431 115.457 60.3617 115.491 60.327L117.293 57.5203L115.595 54.8175C115.561 54.7482 115.56 54.7136 115.526 54.6789C115.526 54.6443 115.561 54.6096 115.595 54.575C115.63 54.5403 115.699 54.5403 115.768 54.5057C115.838 54.5057 115.976 54.5057 116.08 54.5057C116.219 54.5057 116.288 54.5057 116.392 54.5057C116.461 54.5057 116.531 54.5403 116.565 54.5403C116.6 54.5403 116.635 54.575 116.669 54.575C116.704 54.6096 116.704 54.6096 116.739 54.6443L118.055 56.7926L119.372 54.6443C119.372 54.6096 119.407 54.6096 119.441 54.575C119.476 54.5403 119.476 54.5403 119.511 54.5057C119.545 54.5057 119.615 54.471 119.649 54.471C119.719 54.471 119.823 54.471 119.926 54.471C120.065 54.471 120.134 54.471 120.238 54.471C120.308 54.471 120.377 54.5057 120.412 54.5057C120.446 54.5403 120.481 54.575 120.446 54.6096C120.446 54.6443 120.412 54.7136 120.377 54.7829L118.679 57.451L120.516 60.327ZM113.655 57.0352C113.655 56.4808 113.551 56.0303 113.274 55.7185C113.031 55.4066 112.615 55.2333 112.13 55.2333C111.853 55.2333 111.645 55.268 111.437 55.372C111.229 55.4759 111.091 55.6145 110.952 55.7531C110.813 55.9264 110.709 56.0996 110.64 56.3075C110.571 56.5154 110.536 56.758 110.501 57.0005H113.655V57.0352ZM114.729 57.347C114.729 57.5203 114.694 57.6243 114.59 57.6936C114.521 57.7629 114.417 57.7975 114.313 57.7975H110.536C110.536 58.1094 110.571 58.4212 110.64 58.6638C110.709 58.9063 110.813 59.1489 110.952 59.3221C111.091 59.4954 111.298 59.634 111.541 59.738C111.784 59.8419 112.061 59.8766 112.407 59.8766C112.684 59.8766 112.927 59.8419 113.135 59.8073C113.343 59.7726 113.551 59.7033 113.689 59.6687C113.828 59.5993 113.967 59.5647 114.071 59.53C114.174 59.4954 114.244 59.4607 114.313 59.4607C114.348 59.4607 114.382 59.4607 114.382 59.4954C114.417 59.4954 114.417 59.53 114.452 59.5647C114.452 59.5993 114.486 59.634 114.486 59.7033C114.486 59.7726 114.486 59.8073 114.486 59.9112C114.486 59.9805 114.486 60.0152 114.486 60.0498C114.486 60.0845 114.486 60.1191 114.486 60.1538C114.486 60.1884 114.486 60.2231 114.452 60.2577C114.452 60.2924 114.417 60.2924 114.382 60.327C114.348 60.3617 114.278 60.3963 114.174 60.431C114.071 60.5003 113.897 60.5349 113.724 60.6042C113.551 60.6389 113.343 60.7082 113.1 60.7428C112.858 60.7775 112.615 60.8121 112.338 60.8121C111.853 60.8121 111.437 60.7428 111.091 60.6042C110.744 60.4656 110.432 60.2924 110.19 60.0152C109.947 59.738 109.774 59.4261 109.635 59.0449C109.497 58.6638 109.462 58.2133 109.462 57.6936C109.462 57.2084 109.531 56.758 109.67 56.3768C109.808 55.9957 109.982 55.6492 110.224 55.372C110.467 55.0947 110.744 54.8868 111.091 54.7482C111.437 54.6096 111.818 54.5403 112.234 54.5403C112.684 54.5403 113.066 54.6096 113.378 54.7482C113.689 54.8868 113.967 55.0947 114.174 55.3373C114.382 55.5799 114.521 55.8571 114.625 56.2036C114.729 56.5154 114.764 56.8966 114.764 57.2777V57.347H114.729ZM105.685 55.0947C105.685 55.1987 105.685 55.268 105.685 55.3373C105.685 55.4066 105.685 55.4413 105.65 55.4759C105.65 55.5106 105.616 55.5452 105.616 55.5452C105.616 55.5799 105.581 55.5799 105.546 55.5799C105.512 55.5799 105.477 55.5799 105.408 55.5452C105.373 55.5106 105.304 55.5106 105.235 55.4759C105.165 55.4413 105.096 55.4413 105.027 55.4066C104.957 55.372 104.853 55.372 104.784 55.372C104.68 55.372 104.576 55.4066 104.472 55.4413C104.368 55.4759 104.264 55.5452 104.16 55.6492C104.056 55.7531 103.918 55.8917 103.814 56.0303C103.675 56.2036 103.571 56.3768 103.398 56.6194V60.3963C103.398 60.431 103.398 60.4656 103.363 60.5003C103.329 60.5349 103.329 60.5349 103.294 60.5696C103.259 60.5696 103.19 60.6042 103.121 60.6042C103.052 60.6042 102.982 60.6042 102.844 60.6042C102.74 60.6042 102.67 60.6042 102.601 60.6042C102.532 60.6042 102.463 60.5696 102.428 60.5696C102.393 60.5696 102.359 60.5349 102.359 60.5003C102.359 60.4656 102.324 60.431 102.324 60.3963V54.6443C102.324 54.6096 102.324 54.575 102.359 54.5403C102.359 54.5057 102.393 54.5057 102.428 54.471C102.463 54.4364 102.532 54.4364 102.566 54.4364C102.636 54.4364 102.705 54.4364 102.809 54.4364C102.913 54.4364 102.982 54.4364 103.052 54.4364C103.121 54.4364 103.156 54.471 103.19 54.471C103.225 54.5057 103.259 54.5057 103.259 54.5403C103.259 54.575 103.294 54.6096 103.294 54.6443V55.4759C103.467 55.2334 103.606 55.0601 103.745 54.9215C103.883 54.7829 104.022 54.6443 104.126 54.575C104.264 54.5057 104.368 54.4364 104.507 54.4017C104.646 54.3671 104.749 54.3671 104.888 54.3671C104.957 54.3671 104.992 54.3671 105.061 54.3671C105.131 54.3671 105.2 54.4017 105.269 54.4017C105.339 54.4364 105.408 54.4364 105.477 54.471C105.546 54.5057 105.581 54.5057 105.616 54.5403C105.65 54.575 105.65 54.575 105.65 54.6096C105.65 54.6443 105.65 54.6443 105.685 54.6789C105.685 54.7136 105.685 54.7482 105.685 54.8175C105.685 54.9215 105.685 54.9908 105.685 55.0947ZM100.349 60.4656C100.349 60.5003 100.349 60.5349 100.314 60.5696C100.314 60.6042 100.279 60.6042 100.245 60.6389C100.21 60.6389 100.141 60.6735 100.106 60.6735C100.037 60.6735 99.9677 60.6735 99.8637 60.6735C99.7597 60.6735 99.6904 60.6735 99.6211 60.6735C99.5518 60.6735 99.5172 60.6389 99.4825 60.6389C99.4479 60.6389 99.4132 60.6042 99.4132 60.5696C99.4132 60.5349 99.3786 60.5003 99.3786 60.4656V59.7033C99.0321 60.0498 98.7202 60.327 98.4084 60.5003C98.0965 60.6735 97.75 60.7428 97.4381 60.7428C97.057 60.7428 96.7451 60.6735 96.4679 60.5349C96.1907 60.3963 95.9828 60.2231 95.8442 60.0152C95.671 59.8073 95.567 59.53 95.4977 59.2528C95.4284 58.9756 95.3937 58.5945 95.3937 58.1787V54.6789C95.3937 54.6443 95.3937 54.6096 95.4284 54.575C95.4284 54.5403 95.4631 54.5403 95.5324 54.5057C95.567 54.471 95.6363 54.471 95.7056 54.471C95.7749 54.471 95.8442 54.471 95.9482 54.471C96.0521 54.471 96.1214 54.471 96.1907 54.471C96.26 54.471 96.3293 54.5057 96.364 54.5057C96.3986 54.5403 96.4333 54.5403 96.4333 54.575C96.4333 54.6096 96.4679 54.6443 96.4679 54.6789V58.0401C96.4679 58.3866 96.5026 58.6638 96.5372 58.837C96.5719 59.0449 96.6758 59.2182 96.7451 59.3568C96.8491 59.4954 96.9877 59.5994 97.1263 59.7033C97.2649 59.7726 97.4728 59.8073 97.646 59.8073C97.9232 59.8073 98.1658 59.7033 98.443 59.53C98.7202 59.3568 98.9974 59.0796 99.2746 58.6984V54.6789C99.2746 54.6443 99.2746 54.6096 99.3093 54.575C99.3093 54.5403 99.3439 54.5403 99.4132 54.5057C99.4479 54.471 99.5172 54.471 99.5865 54.471C99.6558 54.471 99.7251 54.471 99.829 54.471C99.933 54.471 100.002 54.471 100.072 54.471C100.141 54.471 100.21 54.5057 100.245 54.5057C100.279 54.5403 100.314 54.5403 100.349 54.575C100.383 54.6096 100.383 54.6443 100.383 54.6789V60.4656H100.349ZM92.7603 57.5896C92.7603 57.2777 92.7256 56.9659 92.6563 56.6887C92.587 56.4115 92.5177 56.1689 92.3791 55.961C92.2405 55.7531 92.0673 55.5799 91.8247 55.4759C91.6168 55.3373 91.305 55.3027 90.9931 55.3027C90.6812 55.3027 90.404 55.372 90.1961 55.4759C89.9882 55.5799 89.7803 55.7531 89.6417 55.961C89.5031 56.1689 89.3992 56.4115 89.3299 56.6887C89.2606 56.9659 89.2259 57.2777 89.2259 57.5896C89.2259 57.9015 89.2606 58.2133 89.3299 58.4905C89.3992 58.7677 89.4685 59.0103 89.6071 59.2182C89.7457 59.4261 89.9189 59.5994 90.1615 59.7033C90.404 59.8419 90.6812 59.8766 91.0278 59.8766C91.3396 59.8766 91.6168 59.8073 91.8247 59.7033C92.0673 59.5994 92.2405 59.4261 92.3791 59.2528C92.5177 59.0449 92.6217 58.8024 92.691 58.5252C92.7256 58.2133 92.7603 57.9361 92.7603 57.5896ZM93.8691 57.5203C93.8691 58.0054 93.7998 58.4212 93.6959 58.8024C93.5573 59.1835 93.384 59.5301 93.1414 59.8073C92.8989 60.0845 92.587 60.327 92.2059 60.4656C91.8247 60.6389 91.4089 60.7082 90.9238 60.7082C90.4387 60.7082 90.0229 60.6389 89.6764 60.5003C89.3299 60.3617 89.018 60.1538 88.8101 59.8766C88.5675 59.5994 88.3943 59.2875 88.2903 58.9063C88.1864 58.5252 88.1171 58.0747 88.1171 57.5896C88.1171 57.1045 88.1864 56.6887 88.2903 56.3075C88.4289 55.9264 88.6022 55.5799 88.8447 55.3027C89.0873 55.0254 89.3992 54.7829 89.7457 54.6443C90.1268 54.471 90.5426 54.4017 91.0278 54.4017C91.5129 54.4017 91.9287 54.471 92.2752 54.6096C92.6217 54.7482 92.9335 54.9561 93.1414 55.2333C93.384 55.5106 93.5572 55.8224 93.6612 56.2036C93.7998 56.6194 93.8691 57.0352 93.8691 57.5203ZM85.3797 60.6389L84.6174 62.7526C84.5827 62.8219 84.5134 62.8565 84.4095 62.9258C84.3055 62.9605 84.1322 62.9951 83.9243 62.9951C83.8204 62.9951 83.7164 62.9951 83.6471 62.9951C83.5778 62.9951 83.5432 62.9605 83.4739 62.9258C83.4392 62.8912 83.4046 62.8565 83.4046 62.8219C83.4046 62.7872 83.4046 62.7179 83.4392 62.6833L84.2362 60.6735C84.2015 60.6389 84.1669 60.6389 84.1322 60.6042C84.0976 60.5696 84.0629 60.5349 84.0629 60.4656L82.0185 54.9561C81.9839 54.8522 81.9839 54.7829 81.9839 54.7482C81.9839 54.6789 81.9839 54.6443 82.0185 54.6096C82.0532 54.575 82.1225 54.575 82.1918 54.5403C82.2611 54.5403 82.3651 54.5403 82.5037 54.5403C82.6423 54.5403 82.7462 54.5403 82.8155 54.5403C82.8848 54.5403 82.9541 54.575 82.9888 54.575C83.0234 54.575 83.0581 54.6096 83.0927 54.6443C83.1274 54.6789 83.1274 54.7136 83.162 54.7829L84.7906 59.3914H84.8253L86.4192 54.7482C86.4538 54.6789 86.4885 54.6096 86.5231 54.575C86.5578 54.5403 86.6271 54.5403 86.6964 54.5057C86.7657 54.5057 86.8697 54.5057 87.0083 54.5057C87.1122 54.5057 87.2162 54.5057 87.3201 54.5057C87.3894 54.5057 87.4587 54.5403 87.4934 54.575C87.528 54.6096 87.5627 54.6443 87.5627 54.7136C87.5627 54.7482 87.5627 54.8175 87.528 54.9215L85.3797 60.6389ZM78.3802 60.0498C78.3802 60.1884 78.3802 60.2577 78.3456 60.327C78.3456 60.3963 78.3109 60.4656 78.2763 60.5003C78.2416 60.5349 78.207 60.5696 78.1377 60.6042C78.0684 60.6389 77.9991 60.6735 77.8951 60.6735C77.7911 60.6735 77.7218 60.7082 77.6179 60.7082C77.5139 60.7082 77.41 60.7428 77.3407 60.7428C77.0288 60.7428 76.7863 60.7082 76.5784 60.6389C76.3705 60.5696 76.1972 60.431 76.0586 60.2924C75.92 60.1191 75.8161 59.9459 75.7468 59.6687C75.6775 59.4261 75.6428 59.1489 75.6428 58.8024V55.4413H74.8458C74.7765 55.4413 74.7419 55.4066 74.7072 55.3373C74.6726 55.268 74.6379 55.164 74.6379 54.9908C74.6379 54.9215 74.6379 54.8522 74.6379 54.7829C74.6379 54.7136 74.6726 54.6789 74.6726 54.6443C74.7072 54.6096 74.7072 54.575 74.7419 54.575C74.7765 54.575 74.8112 54.5403 74.8458 54.5403H75.6428V53.189C75.6428 53.1543 75.6428 53.1197 75.6774 53.1197C75.6774 53.085 75.7121 53.085 75.7468 53.0504C75.7814 53.0157 75.8507 53.0157 75.92 53.0157C75.9893 53.0157 76.0586 53.0157 76.1626 53.0157C76.2665 53.0157 76.3705 53.0157 76.4398 53.0157C76.5091 53.0157 76.5784 53.0504 76.613 53.0504C76.6477 53.085 76.6823 53.085 76.6823 53.1197C76.717 53.1543 76.717 53.1543 76.717 53.189V54.5403H78.1723C78.207 54.5403 78.2416 54.5403 78.2763 54.575C78.3109 54.575 78.3109 54.6096 78.3456 54.6443C78.3802 54.6789 78.3802 54.7136 78.3802 54.7829C78.3802 54.8522 78.3802 54.9215 78.3802 54.9908C78.3802 55.1294 78.3456 55.268 78.3109 55.3373C78.2763 55.4066 78.207 55.4413 78.1723 55.4413H76.717V58.6291C76.717 59.0103 76.7863 59.3221 76.8902 59.53C76.9942 59.738 77.2021 59.8419 77.5139 59.8419C77.6179 59.8419 77.6872 59.8419 77.7565 59.8073C77.8258 59.7726 77.8951 59.7726 77.9644 59.738C78.0337 59.7033 78.0684 59.7033 78.103 59.6687C78.1377 59.634 78.1723 59.634 78.207 59.634C78.2416 59.634 78.2416 59.634 78.2763 59.634C78.3109 59.634 78.3109 59.6687 78.3109 59.7033C78.3109 59.738 78.3456 59.7726 78.3456 59.8419C78.3802 59.9112 78.3802 59.9459 78.3802 60.0498ZM72.8014 57.0352C72.8014 56.4808 72.6975 56.0303 72.4203 55.7185C72.1431 55.4066 71.7619 55.2333 71.2768 55.2333C70.9996 55.2333 70.7917 55.268 70.5838 55.372C70.3759 55.4759 70.2373 55.6145 70.0987 55.7531C69.9601 55.9264 69.8561 56.0996 69.7868 56.3075C69.7175 56.5154 69.6829 56.758 69.6482 57.0005H72.8014V57.0352ZM73.8756 57.347C73.8756 57.5203 73.841 57.6243 73.737 57.6936C73.6677 57.7629 73.5638 57.7975 73.4598 57.7975H69.6829C69.6829 58.1094 69.7175 58.4212 69.7868 58.6638C69.8561 58.9063 69.9601 59.1489 70.0987 59.3221C70.2373 59.4954 70.4452 59.634 70.6877 59.738C70.9303 59.8419 71.2075 59.8766 71.554 59.8766C71.8312 59.8766 72.0738 59.8419 72.2817 59.8073C72.4896 59.7726 72.6975 59.7033 72.8361 59.6687C72.9747 59.5993 73.1133 59.5647 73.2172 59.53C73.3212 59.4954 73.3905 59.4607 73.4598 59.4607C73.4945 59.4607 73.5291 59.4607 73.5291 59.4954C73.5638 59.4954 73.5638 59.53 73.5984 59.5647C73.5984 59.5993 73.6331 59.634 73.6331 59.7033C73.6331 59.7726 73.6331 59.8073 73.6331 59.9112C73.6331 59.9805 73.6331 60.0152 73.6331 60.0498C73.6331 60.0845 73.6331 60.1191 73.6331 60.1538C73.6331 60.1884 73.5984 60.2231 73.5984 60.2577C73.5984 60.2924 73.5638 60.2924 73.5291 60.327C73.4945 60.3617 73.4252 60.3963 73.3212 60.431C73.2172 60.5003 73.044 60.5349 72.8707 60.6042C72.6975 60.6389 72.4896 60.7082 72.247 60.7428C72.0045 60.7775 71.7619 60.8121 71.4847 60.8121C70.9996 60.8121 70.5838 60.7428 70.2373 60.6042C69.8908 60.4656 69.5789 60.2924 69.3364 60.0152C69.0938 59.738 68.9205 59.4261 68.7819 59.0449C68.6433 58.6638 68.6087 58.2133 68.6087 57.6936C68.6087 57.2084 68.678 56.758 68.8166 56.3768C68.9552 55.9957 69.1285 55.6492 69.371 55.372C69.6136 55.0947 69.8908 54.8868 70.2373 54.7482C70.5838 54.6096 70.9649 54.5403 71.3808 54.5403C71.8312 54.5403 72.2124 54.6096 72.5242 54.7482C72.8361 54.8868 73.1133 55.0947 73.3212 55.3373C73.5291 55.5799 73.6677 55.8571 73.7717 56.2036C73.8756 56.5154 73.9103 56.8966 73.9103 57.2777V57.347H73.8756ZM66.2871 57.0352C66.2871 56.4808 66.1831 56.0303 65.9059 55.7185C65.6287 55.4066 65.2476 55.2333 64.7625 55.2333C64.4852 55.2333 64.2773 55.268 64.0694 55.372C63.8615 55.4759 63.7229 55.6145 63.5843 55.7531C63.4457 55.9264 63.3418 56.0996 63.2725 56.3075C63.2032 56.5154 63.1685 56.758 63.1339 57.0005H66.2871V57.0352ZM67.3613 57.347C67.3613 57.5203 67.3266 57.6243 67.2227 57.6936C67.1534 57.7629 67.0494 57.7975 66.9455 57.7975H63.1685C63.1685 58.1094 63.2032 58.4212 63.2725 58.6638C63.3418 58.9063 63.4457 59.1489 63.5843 59.3221C63.7229 59.4954 63.9308 59.634 64.1734 59.738C64.4159 59.8419 64.6932 59.8766 65.0397 59.8766C65.3169 59.8766 65.5594 59.8419 65.7673 59.8073C65.9752 59.7726 66.1831 59.7033 66.3217 59.6687C66.4603 59.5993 66.5989 59.5647 66.7029 59.53C66.8069 59.4954 66.8762 59.4607 66.9455 59.4607C66.9801 59.4607 67.0148 59.4607 67.0148 59.4954C67.0494 59.4954 67.0494 59.53 67.0841 59.5647C67.0841 59.5993 67.1187 59.634 67.1187 59.7033C67.1187 59.7726 67.1187 59.8073 67.1187 59.9112C67.1187 59.9805 67.1187 60.0152 67.1187 60.0498C67.1187 60.0845 67.1187 60.1191 67.1187 60.1538C67.1187 60.1884 67.1187 60.2231 67.0841 60.2577C67.0841 60.2924 67.0494 60.2924 67.0148 60.327C66.9801 60.3617 66.9108 60.3963 66.8069 60.431C66.7029 60.5003 66.5296 60.5349 66.3564 60.6042C66.1831 60.6389 65.9752 60.7082 65.7327 60.7428C65.4901 60.7775 65.2476 60.8121 64.9704 60.8121C64.4852 60.8121 64.0694 60.7428 63.7229 60.6042C63.3764 60.4656 63.0646 60.2924 62.822 60.0152C62.5795 59.738 62.4062 59.4261 62.2676 59.0449C62.129 58.6638 62.0943 58.2133 62.0943 57.6936C62.0943 57.2084 62.1636 56.758 62.3023 56.3768C62.4409 55.9957 62.6141 55.6492 62.8567 55.372C63.0992 55.0947 63.3764 54.8868 63.7229 54.7482C64.0694 54.6096 64.4506 54.5403 64.8664 54.5403C65.3169 54.5403 65.698 54.6096 66.0099 54.7482C66.3217 54.8868 66.5989 55.0947 66.8069 55.3373C67.0148 55.5799 67.1534 55.8571 67.2573 56.2036C67.3613 56.5154 67.3959 56.8966 67.3959 57.2777V57.347H67.3613ZM60.5351 60.4656C60.5351 60.5003 60.5351 60.5349 60.5004 60.5696C60.4658 60.6042 60.4658 60.6042 60.4311 60.6389C60.3965 60.6389 60.3272 60.6735 60.2579 60.6735C60.1886 60.6735 60.1193 60.6735 60.0153 60.6735C59.9113 60.6735 59.8074 60.6735 59.7381 60.6735C59.6688 60.6735 59.5995 60.6389 59.5648 60.6389C59.5302 60.6389 59.4955 60.6042 59.4955 60.5696C59.4609 60.5349 59.4609 60.5003 59.4609 60.4656V56.9659C59.4609 56.7233 59.4262 56.5154 59.3916 56.3075C59.3569 56.0996 59.2876 55.9264 59.1837 55.7878C59.0797 55.6492 58.9758 55.5452 58.8372 55.4413C58.6986 55.372 58.5253 55.3373 58.3174 55.3373C58.0749 55.3373 57.8323 55.4413 57.5897 55.6145C57.3472 55.7878 57.07 56.065 56.7928 56.4461V60.4656C56.7928 60.5003 56.7928 60.5349 56.7581 60.5696C56.7235 60.6042 56.7235 60.6042 56.6542 60.6389C56.6195 60.6389 56.5502 60.6735 56.4809 60.6735C56.4116 60.6735 56.3423 60.6735 56.2384 60.6735C56.1344 60.6735 56.0651 60.6735 55.9958 60.6735C55.9265 60.6735 55.8572 60.6389 55.8226 60.6389C55.7879 60.6389 55.7533 60.6042 55.7533 60.5696C55.7533 60.5349 55.7186 60.5003 55.7186 60.4656V56.9659C55.7186 56.7233 55.684 56.5154 55.6493 56.3075C55.6147 56.0996 55.5453 55.9264 55.4414 55.7878C55.3374 55.6492 55.2335 55.5452 55.0949 55.4413C54.9563 55.372 54.783 55.3373 54.5751 55.3373C54.3326 55.3373 54.09 55.4413 53.8475 55.6145C53.6049 55.7878 53.3277 56.065 53.0505 56.4461V60.4656C53.0505 60.5003 53.0505 60.5349 53.0158 60.5696C52.9812 60.6042 52.9812 60.6042 52.9465 60.6389C52.9119 60.6389 52.8426 60.6735 52.7733 60.6735C52.704 60.6735 52.6347 60.6735 52.4961 60.6735C52.3921 60.6735 52.3228 60.6735 52.2535 60.6735C52.1842 60.6735 52.1149 60.6389 52.0803 60.6389C52.0456 60.6389 52.011 60.6042 52.011 60.5696C52.011 60.5349 51.9763 60.5003 51.9763 60.4656V54.7136C51.9763 54.6789 51.9763 54.6443 52.011 54.6096C52.011 54.575 52.0456 54.575 52.0803 54.5403C52.1149 54.5057 52.1842 54.5057 52.2189 54.5057C52.2882 54.5057 52.3575 54.5057 52.4614 54.5057C52.5654 54.5057 52.6347 54.5057 52.704 54.5057C52.7733 54.5057 52.8079 54.5403 52.8426 54.5403C52.8772 54.575 52.9119 54.575 52.9119 54.6096C52.9119 54.6443 52.9465 54.6789 52.9465 54.7136V55.4759C53.2584 55.0948 53.5703 54.8522 53.8821 54.6789C54.194 54.5057 54.5058 54.4364 54.8177 54.4364C55.0602 54.4364 55.2681 54.471 55.476 54.5057C55.6493 54.575 55.8226 54.6443 55.9612 54.7482C56.0998 54.8522 56.2384 54.9561 56.3423 55.0947C56.4463 55.2334 56.5156 55.372 56.5849 55.5452C56.7928 55.3373 56.966 55.1641 57.1393 55.0254C57.3125 54.8868 57.4858 54.7482 57.6244 54.6789C57.7977 54.575 57.9363 54.5403 58.0749 54.471C58.2135 54.4364 58.3867 54.4017 58.5253 54.4017C58.9065 54.4017 59.2183 54.471 59.4609 54.6096C59.7034 54.7482 59.9113 54.9215 60.0846 55.1294C60.2232 55.3373 60.3618 55.6145 60.4311 55.8917C60.5004 56.1689 60.5351 56.4808 60.5351 56.8273V60.4656Z" fill="#040405"/>
<path d="M142.761 60.0498C142.761 60.1884 142.761 60.2577 142.727 60.3617C142.727 60.431 142.692 60.5003 142.657 60.5349C142.623 60.5696 142.588 60.6042 142.519 60.6389C142.45 60.6735 142.38 60.7082 142.276 60.7082C142.172 60.7428 142.103 60.7428 141.999 60.7428C141.895 60.7428 141.791 60.7775 141.722 60.7775C141.41 60.7775 141.167 60.7428 140.96 60.6735C140.752 60.6042 140.578 60.4656 140.44 60.327C140.301 60.1538 140.197 59.9805 140.128 59.7033C140.059 59.4608 140.024 59.1835 140.024 58.837V55.4413H139.227C139.158 55.4413 139.123 55.4066 139.088 55.3373C139.054 55.268 139.019 55.164 139.019 54.9908C139.019 54.9215 139.019 54.8522 139.019 54.7829C139.019 54.7136 139.054 54.6789 139.054 54.6443C139.088 54.6096 139.088 54.575 139.123 54.575C139.158 54.575 139.192 54.5403 139.227 54.5403H140.024V53.189C140.024 53.1543 140.024 53.1197 140.059 53.1197C140.059 53.085 140.093 53.085 140.128 53.0504C140.163 53.0157 140.232 53.0157 140.301 53.0157C140.37 53.0157 140.44 53.0157 140.544 53.0157C140.648 53.0157 140.752 53.0157 140.821 53.0157C140.89 53.0157 140.96 53.0504 140.994 53.0504C141.029 53.085 141.064 53.085 141.064 53.1197C141.064 53.1543 141.098 53.189 141.098 53.189V54.5403H142.553C142.588 54.5403 142.623 54.5403 142.657 54.575C142.692 54.575 142.692 54.6096 142.727 54.6443C142.761 54.6789 142.761 54.7136 142.761 54.7829C142.761 54.8522 142.761 54.9215 142.761 54.9908C142.761 55.1294 142.727 55.268 142.692 55.3373C142.657 55.4066 142.588 55.4413 142.553 55.4413H141.098V58.6291C141.098 59.0103 141.167 59.3221 141.271 59.5301C141.375 59.738 141.583 59.8419 141.895 59.8419C141.999 59.8419 142.068 59.8419 142.138 59.8073C142.207 59.7726 142.276 59.7726 142.346 59.738C142.415 59.7033 142.45 59.7033 142.484 59.6687C142.519 59.634 142.553 59.634 142.588 59.634C142.623 59.634 142.623 59.634 142.657 59.634C142.692 59.634 142.692 59.6687 142.692 59.7033C142.692 59.738 142.727 59.7726 142.727 59.8419C142.761 59.9112 142.761 59.9459 142.761 60.0498ZM138.569 55.0947C138.569 55.1987 138.569 55.268 138.569 55.3373C138.569 55.4066 138.569 55.4413 138.534 55.4759C138.534 55.5106 138.499 55.5452 138.499 55.5452C138.465 55.5799 138.465 55.5799 138.43 55.5799C138.395 55.5799 138.361 55.5799 138.291 55.5452C138.257 55.5106 138.187 55.5106 138.118 55.4759C138.049 55.4413 137.98 55.4413 137.91 55.4066C137.841 55.372 137.737 55.372 137.668 55.372C137.564 55.372 137.46 55.4066 137.356 55.4413C137.252 55.4759 137.148 55.5452 137.044 55.6492C136.94 55.7531 136.801 55.8917 136.698 56.0303C136.559 56.2036 136.455 56.3768 136.282 56.6194V60.3963C136.282 60.431 136.282 60.4656 136.247 60.5003C136.212 60.5349 136.212 60.5349 136.178 60.5696C136.143 60.5696 136.074 60.6042 136.004 60.6042C135.935 60.6042 135.866 60.6042 135.727 60.6042C135.623 60.6042 135.554 60.6042 135.485 60.6042C135.415 60.6042 135.346 60.5696 135.311 60.5696C135.277 60.5696 135.242 60.5349 135.242 60.5003C135.242 60.4656 135.208 60.431 135.208 60.3963V54.6443C135.208 54.6096 135.208 54.575 135.242 54.5403C135.242 54.5057 135.277 54.5057 135.311 54.471C135.346 54.4364 135.415 54.4364 135.45 54.4364C135.519 54.4364 135.589 54.4364 135.693 54.4364C135.797 54.4364 135.866 54.4364 135.935 54.4364C136.004 54.4364 136.039 54.471 136.074 54.471C136.108 54.5057 136.143 54.5057 136.143 54.5403C136.143 54.575 136.178 54.6096 136.178 54.6443V55.4759C136.351 55.2334 136.49 55.0601 136.628 54.9215C136.767 54.7829 136.905 54.6789 137.009 54.575C137.148 54.5057 137.252 54.4364 137.391 54.4017C137.529 54.3671 137.633 54.3671 137.772 54.3671C137.841 54.3671 137.876 54.3671 137.945 54.3671C138.014 54.3671 138.084 54.4017 138.153 54.4017C138.222 54.4364 138.291 54.4364 138.361 54.471C138.43 54.5057 138.465 54.5057 138.499 54.5403C138.534 54.575 138.534 54.575 138.534 54.6096C138.534 54.6443 138.569 54.6443 138.569 54.6789C138.569 54.7136 138.569 54.7482 138.569 54.8175C138.569 54.9215 138.569 54.9908 138.569 55.0947Z" fill="#040405"/>
</g>
<defs>
<clipPath id="clip0">
<rect width="204.474" height="64" fill="white"/>
</clipPath>
</defs>
</svg>