<svg width="16" height="16" viewBox="0 0 16 16" fill="none" xmlns="http://www.w3.org/2000/svg">
<path d="M8 0C4.69141 0 2 2.69172 2 6C2 10.4264 7.53581 15.6875 7.7715 15.9095C7.83594 15.9697 7.91797 16 8 16C8.08203 16 8.16406 15.9697 8.22853 15.9095C8.46419 15.6875 14 10.4264 14 6C14 2.69172 11.3086 0 8 0ZM8 9.33334C6.16209 9.33334 4.66666 7.83791 4.66666 6C4.66666 4.16209 6.16213 2.66666 8 2.66666C9.83787 2.66666 11.3333 4.16213 11.3333 6C11.3333 7.83787 9.83791 9.33334 8 9.33334Z" fill="white"/>
</svg>
