<svg width="48" height="48" viewBox="0 0 48 48" fill="none" xmlns="http://www.w3.org/2000/svg">
<circle cx="24" cy="24" r="24" fill="#FF0000"/>
<g clip-path="url(#clip0)">
<path d="M31.6703 20.1592C31.4859 19.4738 30.9455 18.9335 30.2602 18.7489C29.0081 18.4062 23.9998 18.4062 23.9998 18.4062C23.9998 18.4062 18.9917 18.4062 17.7396 18.7358C17.0675 18.9203 16.5139 19.4739 16.3295 20.1592C16 21.4111 16 24.0075 16 24.0075C16 24.0075 16 26.617 16.3295 27.8559C16.514 28.5412 17.0543 29.0816 17.7397 29.2662C19.0049 29.6088 24 29.6088 24 29.6088C24 29.6088 29.0081 29.6088 30.2602 29.2792C30.9456 29.0948 31.4859 28.5544 31.6705 27.8691C31.9999 26.617 31.9999 24.0207 31.9999 24.0207C31.9999 24.0207 32.0131 21.4111 31.6703 20.1592Z" fill="white"/>
<path d="M22.4053 26.4062L26.5699 24.0076L22.4053 21.6089V26.4062Z" fill="#FF0000"/>
</g>
<defs>
<clipPath id="clip0">
<rect width="16" height="16" fill="white" transform="translate(16 16)"/>
</clipPath>
</defs>
</svg>
