<svg width="28" height="28" viewBox="0 0 28 28" fill="none" xmlns="http://www.w3.org/2000/svg">
<path d="M21.1357 22.6115H18.8155L23.9637 27.7597C24.284 28.08 24.8035 28.08 25.1238 27.7597C25.4442 27.4393 25.4442 26.92 25.1238 26.5996L21.1357 22.6115Z" fill="#B4E4C9"/>
<path d="M2.87632 26.5996C2.55596 26.92 2.55596 27.4393 2.87632 27.7597C3.19662 28.08 3.71604 28.08 4.0364 27.7597L9.18463 22.6115H6.86446L2.87632 26.5996Z" fill="#B4E4C9"/>
<path d="M27.1797 0H0.820312C0.367281 0 0 0.367281 0 0.820312V20.1505C0 20.6036 0.367281 20.9708 0.820312 20.9708H27.1797C27.6327 20.9708 28 20.6036 28 20.1505V0.820312C28 0.367281 27.6327 0 27.1797 0ZM4.91493 8.42953C4.59462 8.74989 4.0752 8.74989 3.75484 8.42953C3.43448 8.10917 3.43448 7.5898 3.75484 7.26944L4.9321 6.09219L3.75484 4.91493C3.43448 4.59457 3.43448 4.0752 3.75484 3.75484C4.07515 3.43448 4.59457 3.43448 4.91493 3.75484L6.09219 4.9321L7.26945 3.75484C7.58975 3.43448 8.10917 3.43448 8.42953 3.75484C8.74989 4.0752 8.74989 4.59457 8.42953 4.91493L7.25227 6.09219L8.42953 7.26944C8.74989 7.5898 8.74989 8.10917 8.42953 8.42953C8.10923 8.74989 7.5898 8.74989 7.26945 8.42953L6.09219 7.25227L4.91493 8.42953ZM11.9141 13.7314C12.0867 14.0772 12.1844 14.4666 12.1844 14.8787C12.1844 16.2999 11.0281 17.4562 9.60679 17.4562C8.18552 17.4562 7.0292 16.2999 7.0292 14.8787C7.0292 13.4573 8.18552 12.301 9.60679 12.301C10.0188 12.301 10.4082 12.3987 10.754 12.5713L18.1702 5.15523H16.6359C16.1829 5.15523 15.8156 4.78794 15.8156 4.33491C15.8156 3.88188 16.1829 3.5146 16.6359 3.5146H20.1505C20.6036 3.5146 20.9709 3.88188 20.9709 4.33491V7.84951C20.9709 8.30255 20.6036 8.66983 20.1505 8.66983C19.6975 8.66983 19.3302 8.30255 19.3302 7.84951V6.31531L11.9141 13.7314ZM24.2452 16.0559C24.5655 16.3762 24.5655 16.8956 24.2452 17.216C23.9249 17.5363 23.4054 17.5363 23.0851 17.216L21.9078 16.0387L20.7306 17.216C20.4102 17.5363 19.8908 17.5363 19.5705 17.216C19.2501 16.8956 19.2501 16.3762 19.5705 16.0559L20.7477 14.8786L19.5705 13.7014C19.2501 13.381 19.2501 12.8617 19.5705 12.5413C19.8908 12.221 20.4102 12.221 20.7306 12.5413L21.9078 13.7186L23.0851 12.5413C23.4054 12.221 23.9248 12.221 24.2452 12.5413C24.5655 12.8617 24.5655 13.381 24.2452 13.7014L23.0679 14.8787L24.2452 16.0559Z" fill="#B4E4C9"/>
<path d="M9.60688 13.9417C9.09025 13.9417 8.66992 14.362 8.66992 14.8787C8.66992 15.3953 9.09025 15.8156 9.60688 15.8156C10.1235 15.8156 10.5438 15.3953 10.5438 14.8787C10.5438 14.362 10.1235 13.9417 9.60688 13.9417Z" fill="#B4E4C9"/>
</svg>
