<svg width="205" height="64" viewBox="0 0 205 64" fill="none" xmlns="http://www.w3.org/2000/svg">
<g clip-path="url(#clip0)">
<path fill-rule="evenodd" clip-rule="evenodd" d="M15.939 18.954C18.5378 18.954 20.9634 19.5777 23.1464 20.6519C23.7354 20.9637 25.0175 21.5181 26.4036 21.4488C27.9282 21.3449 29.3142 20.1321 29.6261 18.6075C29.6954 17.7412 29.5221 16.7363 29.141 16.0433C28.2747 14.484 27.7549 12.6822 27.7549 10.7764C27.7896 4.85111 32.606 0 38.6006 0C44.5606 0 49.4117 4.85111 49.4117 10.811C49.4117 16.771 44.5606 21.6221 38.6006 21.6221C36.9374 21.6221 35.3435 21.2409 33.9228 20.5826C33.507 20.3747 33.0219 20.2707 32.5367 20.2707C31.3933 20.2707 29.6954 21.137 29.0024 22.8349C28.5519 24.8793 29.5914 26.6811 30.0072 27.4781C31.22 29.6957 31.8784 32.2252 31.8784 34.928C31.8784 38.3584 30.7696 41.5463 28.9331 44.1798C28.4826 44.9074 28.3093 45.7737 28.448 46.64C28.7252 48.3378 30.2498 49.2041 31.22 49.2041C31.5665 49.2041 31.913 49.1348 32.2249 48.9616C33.2644 48.4764 34.4079 48.1992 35.6207 48.1992C39.9867 48.1992 43.521 51.7336 43.521 56.0996C43.521 60.4656 39.9867 64 35.6207 64C31.2547 64 27.7203 60.4656 27.7203 56.0996C27.7203 54.7136 28.1014 53.3969 28.7252 52.2534C29.0024 51.7683 29.1063 51.1099 29.0717 50.4862C28.8984 49.412 28.0668 48.4764 27.0619 48.1646C25.9877 47.8874 24.8789 48.1992 23.9087 48.719C21.102 50.3476 17.8448 51.0753 14.5876 50.8327C6.75656 50.1743 0.519419 43.8679 -0.000342721 35.9675C-0.242898 31.5322 1.28174 27.2355 4.33101 23.9783C7.31097 20.7905 11.573 18.9886 15.939 18.954Z" fill="url(#paint0_linear)"/>
<path d="M65.0053 45.9816C64.2083 45.9816 63.4113 45.3579 63.0995 44.5956L57.6593 29.4185V44.4916C57.6593 45.3232 57.0356 45.9816 56.204 45.9816H53.4319C52.6003 45.9816 51.9766 45.3232 51.9766 44.4916V25.3297C51.9766 24.4981 52.6003 23.8397 53.3972 23.8397H59.669C60.5007 23.8397 61.263 24.4981 61.5402 25.2951L66.0794 38.4624L70.6187 25.2951C70.8612 24.4981 71.6582 23.8397 72.4898 23.8397H78.7616C79.5586 23.8397 80.1823 24.4981 80.1823 25.3297V44.457C80.1823 45.2886 79.5586 45.9469 78.727 45.9469H75.9549C75.1233 45.9469 74.4996 45.2886 74.4996 44.457V29.4185L69.0594 44.5956C68.7822 45.3579 67.9506 45.9816 67.1536 45.9816H65.0053Z" fill="#254648"/>
<path d="M84.6523 25.3297C84.6523 24.4981 85.3107 23.8744 86.1077 23.8744H88.9837C89.8153 23.8744 90.4737 24.4981 90.4737 25.3297V44.5263C90.4737 45.3232 89.8153 45.9816 88.9837 45.9816H86.1077C85.3107 45.9816 84.6523 45.3579 84.6523 44.5609V25.3297Z" fill="#254648"/>
<path d="M100.694 37.8733V44.4916C100.694 45.2886 100.071 45.9469 99.2391 45.9469H96.3284C95.5314 45.9469 94.873 45.2886 94.873 44.4916V25.3297C94.873 24.4981 95.4968 23.8744 96.2937 23.8744H109.011C113.619 23.8744 117.05 26.5425 117.05 30.8739C117.05 34.2696 114.416 35.8636 111.228 36.4873C112.51 36.9724 113.481 38.0812 114.728 40.0563L117.535 44.5263C118.054 45.3579 117.812 45.9816 117.015 45.9816H113.307C112.51 45.9816 111.436 45.3579 110.951 44.5263L108.318 40.4028C107.521 39.1554 106.377 37.8733 104.402 37.8733H100.694ZM100.694 28.2057V33.5073H107.278C109.045 33.5073 111.298 32.8836 111.298 30.8392C111.298 28.8295 109.045 28.1711 107.278 28.1711H100.694V28.2057Z" fill="#254648"/>
<path d="M122.905 29.869C124.187 24.9832 128.657 23.8744 133.127 23.8744H141.444C142.206 23.8744 142.76 24.5328 142.76 25.2951V44.5609C142.76 45.3579 142.102 45.9816 141.305 45.9816H138.394C137.563 45.9816 136.939 45.3579 136.939 44.5263V40.6454H125.989L124.95 44.5263C124.742 45.3579 123.945 45.9816 123.113 45.9816H120.064C119.232 45.9816 118.782 45.3579 118.99 44.5609L122.905 29.869ZM127.133 36.2794H136.974V28.2057H132.573C130.598 28.2057 129.004 29.4185 128.484 31.2897L127.133 36.2794Z" fill="#254648"/>
<path fill-rule="evenodd" clip-rule="evenodd" d="M149.034 23.8744H150.42C150.836 23.8744 151.182 24.2209 151.182 24.6367V36.9724H161.023V24.6367C161.023 24.2209 161.369 23.8744 161.785 23.8744H163.171C163.587 23.8744 163.934 24.2209 163.934 24.6367V45.0114C163.934 45.4272 163.587 45.7737 163.171 45.7737H161.785C161.369 45.7737 161.023 45.4272 161.023 45.0114V39.8484H151.182V45.0114C151.182 45.4272 150.836 45.7737 150.42 45.7737H149.034C148.618 45.7737 148.271 45.4272 148.271 45.0114V24.6367C148.271 24.2209 148.618 23.8744 149.034 23.8744ZM184.793 37.6308C184.793 38.9475 184.585 40.1256 184.204 41.1651C183.822 42.2047 183.268 43.0709 182.54 43.7986C181.813 44.5263 180.946 45.046 179.942 45.4272C178.902 45.8083 177.759 45.9816 176.442 45.9816C175.229 45.9816 174.155 45.8083 173.185 45.4618C172.214 45.1153 171.348 44.5956 170.655 43.9372C169.962 43.2788 169.408 42.4126 169.027 41.4077C168.645 40.4028 168.438 39.2247 168.438 37.8733V37.6308V25.8495V24.6367C168.438 24.2209 168.784 23.8744 169.2 23.8744H170.586C171.002 23.8744 171.348 24.2209 171.348 24.6367V25.8495V37.4921C171.348 38.497 171.452 39.3633 171.729 40.1256C171.972 40.8879 172.318 41.5116 172.804 41.9967C173.254 42.4819 173.808 42.863 174.467 43.1056C175.125 43.3481 175.853 43.4867 176.65 43.4867C177.481 43.4867 178.209 43.3828 178.867 43.1056C179.526 42.8284 180.08 42.4819 180.531 41.9967C180.981 41.5116 181.328 40.8879 181.57 40.1603C181.813 39.4326 181.917 38.601 181.917 37.6308V25.8495V24.6367C181.917 24.2209 182.263 23.8744 182.679 23.8744H184.065C184.481 23.8744 184.827 24.2209 184.827 24.6367V25.8495V37.6308H184.793ZM200.213 37.0764C200.594 37.4229 200.906 37.8387 201.114 38.3238C201.53 39.3287 201.564 40.2989 201.079 41.3037C200.871 41.7542 200.594 42.1354 200.213 42.4472C199.832 42.7591 199.381 42.967 198.896 43.1402C198.411 43.3135 197.822 43.3828 197.164 43.3828H192.278V36.0368H196.436C197.372 36.0368 198.134 36.1408 198.723 36.314C199.312 36.4873 199.797 36.7298 200.213 37.0764ZM197.961 26.4732C198.896 26.7504 199.589 27.4434 199.901 28.379C200.178 29.2453 200.178 30.562 199.901 31.4629C199.624 32.3985 199 33.0569 198.099 33.438C197.614 33.6113 197.025 33.7152 196.263 33.7152H192.278V26.2306H195.951C196.783 26.2306 197.441 26.3 197.961 26.4732ZM190.441 23.8744H190.13C189.714 23.8744 189.367 24.2209 189.437 24.6367V25.0525V44.5609V44.9767C189.437 45.3925 189.783 45.7391 190.199 45.7391H190.511H191.55H196.887C197.684 45.7391 198.411 45.6698 199.07 45.5658C199.693 45.4618 200.317 45.2886 200.871 45.046C201.426 44.8381 201.911 44.5263 202.361 44.1798C202.812 43.8333 203.193 43.4174 203.505 42.967C203.817 42.5165 204.059 41.9968 204.233 41.4077C204.614 40.1256 204.614 39.0514 204.163 37.8387C203.921 37.215 203.609 36.6605 203.228 36.2101C202.846 35.7596 202.396 35.3785 201.876 35.0666C201.391 34.7547 200.802 34.5468 200.213 34.4429C200.663 34.2696 201.079 33.9924 201.46 33.6806C202.188 33.0569 202.673 32.2252 202.916 31.2897C203.228 30.1115 203.124 28.3097 202.673 27.2009C202.049 25.7109 200.837 24.706 199.312 24.2556C198.48 23.9783 197.406 23.8744 196.09 23.8744H191.481H190.441Z" fill="url(#paint1_linear)"/>
<path d="M132.54 57.0352C132.54 56.4808 132.436 56.0303 132.158 55.7185C131.881 55.4066 131.5 55.2333 131.015 55.2333C130.738 55.2333 130.53 55.268 130.322 55.372C130.114 55.4759 129.975 55.6145 129.837 55.7531C129.698 55.9264 129.594 56.0996 129.525 56.3075C129.456 56.5154 129.421 56.758 129.386 57.0005H132.54V57.0352ZM133.579 57.347C133.579 57.5203 133.544 57.6243 133.441 57.6936C133.371 57.7629 133.267 57.7975 133.163 57.7975H129.386C129.386 58.1094 129.421 58.4212 129.49 58.6638C129.56 58.9063 129.664 59.1489 129.802 59.3221C129.941 59.4954 130.149 59.634 130.391 59.738C130.634 59.8419 130.911 59.8766 131.258 59.8766C131.535 59.8766 131.777 59.8419 131.985 59.8073C132.193 59.7726 132.401 59.7033 132.54 59.6687C132.678 59.5993 132.817 59.5647 132.921 59.53C133.025 59.4954 133.094 59.4607 133.163 59.4607C133.198 59.4607 133.233 59.4607 133.233 59.4954C133.267 59.4954 133.267 59.53 133.302 59.5647C133.302 59.5993 133.337 59.634 133.337 59.7033C133.337 59.7726 133.337 59.8073 133.337 59.9112C133.337 59.9805 133.337 60.0152 133.337 60.0498C133.337 60.0845 133.337 60.1191 133.337 60.1538C133.337 60.1884 133.302 60.2231 133.302 60.2577C133.302 60.2924 133.267 60.2924 133.233 60.327C133.198 60.3617 133.129 60.3963 133.025 60.431C132.921 60.5003 132.748 60.5349 132.574 60.6042C132.401 60.6389 132.193 60.7082 131.951 60.7428C131.708 60.7775 131.465 60.8121 131.188 60.8121C130.703 60.8121 130.287 60.7428 129.941 60.6042C129.594 60.4656 129.282 60.2924 129.04 60.0152C128.797 59.738 128.624 59.4261 128.485 59.0449C128.347 58.6638 128.312 58.2133 128.312 57.6936C128.312 57.2084 128.382 56.758 128.52 56.3768C128.659 55.9957 128.832 55.6492 129.075 55.372C129.317 55.0947 129.594 54.8868 129.941 54.7482C130.287 54.6096 130.668 54.5403 131.084 54.5403C131.535 54.5403 131.916 54.6096 132.228 54.7482C132.54 54.8868 132.817 55.0947 133.025 55.3373C133.233 55.5799 133.371 55.8571 133.475 56.2036C133.579 56.5154 133.614 56.8966 133.614 57.2777V57.347H133.579ZM126.025 57.6243C126.025 57.3471 125.991 57.0352 125.956 56.758C125.921 56.4808 125.817 56.2382 125.713 56.0303C125.609 55.8224 125.471 55.6492 125.263 55.5106C125.09 55.372 124.847 55.3027 124.57 55.3027C124.431 55.3027 124.293 55.3373 124.154 55.372C124.016 55.4066 123.877 55.4759 123.738 55.5799C123.6 55.6838 123.461 55.7878 123.323 55.9264C123.184 56.065 123.011 56.2382 122.837 56.4461V58.7331C123.115 59.0796 123.392 59.3568 123.669 59.5647C123.946 59.738 124.189 59.8419 124.501 59.8419C124.778 59.8419 124.986 59.7726 125.194 59.634C125.367 59.4954 125.54 59.3221 125.644 59.1142C125.748 58.9063 125.852 58.6638 125.887 58.3866C125.991 58.144 126.025 57.9015 126.025 57.6243ZM127.099 57.4857C127.099 58.0054 127.03 58.4559 126.926 58.837C126.822 59.2528 126.649 59.5647 126.441 59.8419C126.233 60.1191 125.956 60.327 125.644 60.5003C125.332 60.6389 124.986 60.7428 124.57 60.7428C124.397 60.7428 124.258 60.7082 124.085 60.7082C123.946 60.6735 123.808 60.6042 123.669 60.5349C123.53 60.4656 123.392 60.3617 123.253 60.2577C123.115 60.1538 122.976 60.0152 122.803 59.8766V62.7526C122.803 62.7872 122.803 62.8219 122.768 62.8565C122.768 62.8912 122.733 62.8912 122.699 62.9258C122.664 62.9258 122.595 62.9605 122.526 62.9605C122.456 62.9605 122.387 62.9605 122.248 62.9605C122.144 62.9605 122.075 62.9605 122.006 62.9605C121.936 62.9605 121.867 62.9258 121.833 62.9258C121.798 62.8912 121.763 62.8912 121.763 62.8565C121.763 62.8219 121.729 62.7872 121.729 62.7526V54.7136C121.729 54.6789 121.729 54.6443 121.763 54.6096C121.763 54.575 121.798 54.575 121.833 54.5403C121.867 54.5057 121.936 54.5057 121.971 54.5057C122.04 54.5057 122.11 54.5057 122.179 54.5057C122.283 54.5057 122.352 54.5057 122.387 54.5057C122.456 54.5057 122.491 54.5403 122.526 54.5403C122.56 54.575 122.595 54.575 122.595 54.6096C122.595 54.6443 122.63 54.6789 122.63 54.7136V55.4759C122.803 55.3027 122.976 55.1294 123.149 55.0254C123.323 54.8868 123.461 54.7829 123.634 54.7136C123.808 54.6096 123.981 54.575 124.154 54.5057C124.327 54.471 124.501 54.4364 124.709 54.4364C125.124 54.4364 125.471 54.5057 125.783 54.6789C126.06 54.8522 126.302 55.0601 126.51 55.3373C126.684 55.6145 126.822 55.961 126.926 56.3075C127.065 56.6887 127.099 57.0698 127.099 57.4857ZM120.516 60.327C120.55 60.3963 120.585 60.431 120.585 60.4656C120.585 60.5003 120.55 60.5349 120.516 60.5696C120.481 60.6042 120.412 60.6042 120.343 60.6389C120.273 60.6389 120.135 60.6389 120.031 60.6389C119.892 60.6389 119.788 60.6389 119.719 60.6389C119.65 60.6389 119.58 60.6042 119.546 60.6042C119.511 60.6042 119.476 60.5696 119.442 60.5349C119.407 60.5003 119.407 60.5003 119.372 60.4656L117.986 58.1787L116.6 60.4656C116.6 60.5003 116.566 60.5349 116.531 60.5349C116.496 60.5696 116.462 60.5696 116.427 60.6042C116.392 60.6042 116.323 60.6389 116.254 60.6389C116.184 60.6389 116.081 60.6389 115.977 60.6389C115.838 60.6389 115.769 60.6389 115.665 60.6389C115.595 60.6389 115.526 60.6042 115.491 60.5696C115.457 60.5349 115.422 60.5003 115.422 60.4656C115.422 60.431 115.457 60.3617 115.491 60.327L117.293 57.5203L115.595 54.8175C115.561 54.7482 115.561 54.7136 115.526 54.6789C115.526 54.6443 115.561 54.6096 115.595 54.575C115.63 54.5403 115.699 54.5403 115.769 54.5057C115.838 54.5057 115.977 54.5057 116.081 54.5057C116.219 54.5057 116.288 54.5057 116.392 54.5057C116.462 54.5057 116.531 54.5403 116.566 54.5403C116.6 54.5403 116.635 54.575 116.67 54.575C116.704 54.6096 116.704 54.6096 116.739 54.6443L118.056 56.7926L119.372 54.6443C119.372 54.6096 119.407 54.6096 119.442 54.575C119.476 54.5403 119.476 54.5403 119.511 54.5057C119.546 54.5057 119.615 54.471 119.65 54.471C119.719 54.471 119.823 54.471 119.927 54.471C120.065 54.471 120.135 54.471 120.239 54.471C120.308 54.471 120.377 54.5057 120.412 54.5057C120.447 54.5403 120.481 54.575 120.447 54.6096C120.447 54.6443 120.412 54.7136 120.377 54.7829L118.679 57.451L120.516 60.327ZM113.655 57.0352C113.655 56.4808 113.551 56.0303 113.274 55.7185C113.031 55.4066 112.615 55.2333 112.13 55.2333C111.853 55.2333 111.645 55.268 111.437 55.372C111.229 55.4759 111.091 55.6145 110.952 55.7531C110.814 55.9264 110.71 56.0996 110.64 56.3075C110.571 56.5154 110.536 56.758 110.502 57.0005H113.655V57.0352ZM114.729 57.347C114.729 57.5203 114.694 57.6243 114.591 57.6936C114.521 57.7629 114.417 57.7975 114.313 57.7975H110.536C110.536 58.1094 110.571 58.4212 110.64 58.6638C110.71 58.9063 110.814 59.1489 110.952 59.3221C111.091 59.4954 111.299 59.634 111.541 59.738C111.784 59.8419 112.061 59.8766 112.408 59.8766C112.685 59.8766 112.927 59.8419 113.135 59.8073C113.343 59.7726 113.551 59.7033 113.69 59.6687C113.828 59.5993 113.967 59.5647 114.071 59.53C114.175 59.4954 114.244 59.4607 114.313 59.4607C114.348 59.4607 114.383 59.4607 114.383 59.4954C114.417 59.4954 114.417 59.53 114.452 59.5647C114.452 59.5993 114.487 59.634 114.487 59.7033C114.487 59.7726 114.487 59.8073 114.487 59.9112C114.487 59.9805 114.487 60.0152 114.487 60.0498C114.487 60.0845 114.487 60.1191 114.487 60.1538C114.487 60.1884 114.487 60.2231 114.452 60.2577C114.452 60.2924 114.417 60.2924 114.383 60.327C114.348 60.3617 114.279 60.3963 114.175 60.431C114.071 60.5003 113.898 60.5349 113.724 60.6042C113.551 60.6389 113.343 60.7082 113.101 60.7428C112.858 60.7775 112.615 60.8121 112.338 60.8121C111.853 60.8121 111.437 60.7428 111.091 60.6042C110.744 60.4656 110.432 60.2924 110.19 60.0152C109.947 59.738 109.774 59.4261 109.635 59.0449C109.497 58.6638 109.462 58.2133 109.462 57.6936C109.462 57.2084 109.532 56.758 109.67 56.3768C109.809 55.9957 109.982 55.6492 110.225 55.372C110.467 55.0947 110.744 54.8868 111.091 54.7482C111.437 54.6096 111.818 54.5403 112.234 54.5403C112.685 54.5403 113.066 54.6096 113.378 54.7482C113.69 54.8868 113.967 55.0947 114.175 55.3373C114.383 55.5799 114.521 55.8571 114.625 56.2036C114.729 56.5154 114.764 56.8966 114.764 57.2777V57.347H114.729ZM105.685 55.0947C105.685 55.1987 105.685 55.268 105.685 55.3373C105.685 55.4066 105.685 55.4413 105.651 55.4759C105.651 55.5106 105.616 55.5452 105.616 55.5452C105.616 55.5799 105.581 55.5799 105.547 55.5799C105.512 55.5799 105.477 55.5799 105.408 55.5452C105.373 55.5106 105.304 55.5106 105.235 55.4759C105.166 55.4413 105.096 55.4413 105.027 55.4066C104.958 55.372 104.854 55.372 104.784 55.372C104.68 55.372 104.576 55.4066 104.472 55.4413C104.369 55.4759 104.265 55.5452 104.161 55.6492C104.057 55.7531 103.918 55.8917 103.814 56.0303C103.676 56.2036 103.572 56.3768 103.398 56.6194V60.3963C103.398 60.431 103.398 60.4656 103.364 60.5003C103.329 60.5349 103.329 60.5349 103.294 60.5696C103.26 60.5696 103.19 60.6042 103.121 60.6042C103.052 60.6042 102.983 60.6042 102.844 60.6042C102.74 60.6042 102.671 60.6042 102.601 60.6042C102.532 60.6042 102.463 60.5696 102.428 60.5696C102.393 60.5696 102.359 60.5349 102.359 60.5003C102.359 60.4656 102.324 60.431 102.324 60.3963V54.6443C102.324 54.6096 102.324 54.575 102.359 54.5403C102.359 54.5057 102.393 54.5057 102.428 54.471C102.463 54.4364 102.532 54.4364 102.567 54.4364C102.636 54.4364 102.705 54.4364 102.809 54.4364C102.913 54.4364 102.983 54.4364 103.052 54.4364C103.121 54.4364 103.156 54.471 103.19 54.471C103.225 54.5057 103.26 54.5057 103.26 54.5403C103.26 54.575 103.294 54.6096 103.294 54.6443V55.4759C103.468 55.2334 103.606 55.0601 103.745 54.9215C103.883 54.7829 104.022 54.6443 104.126 54.575C104.265 54.5057 104.369 54.4364 104.507 54.4017C104.646 54.3671 104.75 54.3671 104.888 54.3671C104.958 54.3671 104.992 54.3671 105.062 54.3671C105.131 54.3671 105.2 54.4017 105.269 54.4017C105.339 54.4364 105.408 54.4364 105.477 54.471C105.547 54.5057 105.581 54.5057 105.616 54.5403C105.651 54.575 105.651 54.575 105.651 54.6096C105.651 54.6443 105.651 54.6443 105.685 54.6789C105.685 54.7136 105.685 54.7482 105.685 54.8175C105.685 54.9215 105.685 54.9908 105.685 55.0947ZM100.349 60.4656C100.349 60.5003 100.349 60.5349 100.314 60.5696C100.314 60.6042 100.28 60.6042 100.245 60.6389C100.21 60.6389 100.141 60.6735 100.106 60.6735C100.037 60.6735 99.9679 60.6735 99.8639 60.6735C99.76 60.6735 99.6907 60.6735 99.6214 60.6735C99.5521 60.6735 99.5174 60.6389 99.4828 60.6389C99.4481 60.6389 99.4135 60.6042 99.4135 60.5696C99.4135 60.5349 99.3788 60.5003 99.3788 60.4656V59.7033C99.0323 60.0498 98.7205 60.327 98.4086 60.5003C98.0967 60.6735 97.7502 60.7428 97.4384 60.7428C97.0572 60.7428 96.7454 60.6735 96.4682 60.5349C96.191 60.3963 95.9831 60.2231 95.8445 60.0152C95.6712 59.8073 95.5672 59.53 95.4979 59.2528C95.4286 58.9756 95.394 58.5945 95.394 58.1787V54.6789C95.394 54.6443 95.394 54.6096 95.4286 54.575C95.4286 54.5403 95.4633 54.5403 95.5326 54.5057C95.5672 54.471 95.6365 54.471 95.7058 54.471C95.7752 54.471 95.8444 54.471 95.9484 54.471C96.0523 54.471 96.1217 54.471 96.191 54.471C96.2603 54.471 96.3296 54.5057 96.3642 54.5057C96.3989 54.5403 96.4335 54.5403 96.4335 54.575C96.4335 54.6096 96.4682 54.6443 96.4682 54.6789V58.0401C96.4682 58.3866 96.5028 58.6638 96.5375 58.837C96.5721 59.0449 96.6761 59.2182 96.7454 59.3568C96.8493 59.4954 96.9879 59.5994 97.1265 59.7033C97.2651 59.7726 97.473 59.8073 97.6463 59.8073C97.9235 59.8073 98.1661 59.7033 98.4433 59.53C98.7205 59.3568 98.9977 59.0796 99.2749 58.6984V54.6789C99.2749 54.6443 99.2749 54.6096 99.3095 54.575C99.3095 54.5403 99.3442 54.5403 99.4135 54.5057C99.4481 54.471 99.5174 54.471 99.5867 54.471C99.656 54.471 99.7253 54.471 99.8293 54.471C99.9332 54.471 100.003 54.471 100.072 54.471C100.141 54.471 100.21 54.5057 100.245 54.5057C100.28 54.5403 100.314 54.5403 100.349 54.575C100.384 54.6096 100.384 54.6443 100.384 54.6789V60.4656H100.349ZM92.7605 57.5896C92.7605 57.2777 92.7259 56.9659 92.6566 56.6887C92.5873 56.4115 92.518 56.1689 92.3794 55.961C92.2408 55.7531 92.0675 55.5799 91.825 55.4759C91.6171 55.3373 91.3052 55.3027 90.9933 55.3027C90.6815 55.3027 90.4043 55.372 90.1964 55.4759C89.9885 55.5799 89.7806 55.7531 89.642 55.961C89.5034 56.1689 89.3994 56.4115 89.3301 56.6887C89.2608 56.9659 89.2262 57.2777 89.2262 57.5896C89.2262 57.9015 89.2608 58.2133 89.3301 58.4905C89.3994 58.7677 89.4687 59.0103 89.6073 59.2182C89.7459 59.4261 89.9192 59.5994 90.1617 59.7033C90.4043 59.8419 90.6815 59.8766 91.028 59.8766C91.3399 59.8766 91.6171 59.8073 91.825 59.7033C92.0675 59.5994 92.2408 59.4261 92.3794 59.2528C92.518 59.0449 92.6219 58.8024 92.6912 58.5252C92.7259 58.2133 92.7605 57.9361 92.7605 57.5896ZM93.8694 57.5203C93.8694 58.0054 93.8 58.4212 93.6961 58.8024C93.5575 59.1835 93.3842 59.5301 93.1417 59.8073C92.8991 60.0845 92.5873 60.327 92.2061 60.4656C91.825 60.6389 91.4091 60.7082 90.924 60.7082C90.4389 60.7082 90.0231 60.6389 89.6766 60.5003C89.3301 60.3617 89.0182 60.1538 88.8103 59.8766C88.5678 59.5994 88.3945 59.2875 88.2906 58.9063C88.1866 58.5252 88.1173 58.0747 88.1173 57.5896C88.1173 57.1045 88.1866 56.6887 88.2906 56.3075C88.4292 55.9264 88.6024 55.5799 88.845 55.3027C89.0875 55.0254 89.3994 54.7829 89.7459 54.6443C90.1271 54.471 90.5429 54.4017 91.028 54.4017C91.5131 54.4017 91.9289 54.471 92.2754 54.6096C92.6219 54.7482 92.9338 54.9561 93.1417 55.2333C93.3842 55.5106 93.5575 55.8224 93.6614 56.2036C93.8 56.6194 93.8694 57.0352 93.8694 57.5203ZM85.3799 60.6389L84.6176 62.7526C84.5829 62.8219 84.5136 62.8565 84.4097 62.9258C84.3057 62.9605 84.1325 62.9951 83.9246 62.9951C83.8206 62.9951 83.7167 62.9951 83.6474 62.9951C83.5781 62.9951 83.5434 62.9605 83.4741 62.9258C83.4395 62.8912 83.4048 62.8565 83.4048 62.8219C83.4048 62.7872 83.4048 62.7179 83.4395 62.6833L84.2364 60.6735C84.2018 60.6389 84.1671 60.6389 84.1325 60.6042C84.0978 60.5696 84.0632 60.5349 84.0632 60.4656L82.0188 54.9561C81.9841 54.8522 81.9841 54.7829 81.9841 54.7482C81.9841 54.6789 81.9841 54.6443 82.0188 54.6096C82.0534 54.575 82.1227 54.575 82.192 54.5403C82.2613 54.5403 82.3653 54.5403 82.5039 54.5403C82.6425 54.5403 82.7465 54.5403 82.8158 54.5403C82.8851 54.5403 82.9544 54.575 82.989 54.575C83.0237 54.575 83.0583 54.6096 83.093 54.6443C83.1276 54.6789 83.1276 54.7136 83.1623 54.7829L84.7908 59.3914H84.8255L86.4194 54.7482C86.4541 54.6789 86.4887 54.6096 86.5234 54.575C86.558 54.5403 86.6273 54.5403 86.6966 54.5057C86.7659 54.5057 86.8699 54.5057 87.0085 54.5057C87.1125 54.5057 87.2164 54.5057 87.3204 54.5057C87.3897 54.5057 87.459 54.5403 87.4936 54.575C87.5283 54.6096 87.5629 54.6443 87.5629 54.7136C87.5629 54.7482 87.5629 54.8175 87.5283 54.9215L85.3799 60.6389ZM78.3805 60.0498C78.3805 60.1884 78.3805 60.2577 78.3458 60.327C78.3458 60.3963 78.3112 60.4656 78.2765 60.5003C78.2418 60.5349 78.2072 60.5696 78.1379 60.6042C78.0686 60.6389 77.9993 60.6735 77.8953 60.6735C77.7914 60.6735 77.7221 60.7082 77.6181 60.7082C77.5142 60.7082 77.4102 60.7428 77.3409 60.7428C77.0291 60.7428 76.7865 60.7082 76.5786 60.6389C76.3707 60.5696 76.1975 60.431 76.0589 60.2924C75.9202 60.1191 75.8163 59.9459 75.747 59.6687C75.6777 59.4261 75.643 59.1489 75.643 58.8024V55.4413H74.8461C74.7768 55.4413 74.7421 55.4066 74.7075 55.3373C74.6728 55.268 74.6382 55.164 74.6382 54.9908C74.6382 54.9215 74.6382 54.8522 74.6382 54.7829C74.6382 54.7136 74.6728 54.6789 74.6728 54.6443C74.7075 54.6096 74.7075 54.575 74.7421 54.575C74.7768 54.575 74.8114 54.5403 74.8461 54.5403H75.643V53.189C75.643 53.1543 75.643 53.1197 75.6777 53.1197C75.6777 53.085 75.7123 53.085 75.747 53.0504C75.7817 53.0157 75.851 53.0157 75.9203 53.0157C75.9896 53.0157 76.0589 53.0157 76.1628 53.0157C76.2668 53.0157 76.3707 53.0157 76.44 53.0157C76.5093 53.0157 76.5786 53.0504 76.6133 53.0504C76.6479 53.085 76.6826 53.085 76.6826 53.1197C76.7172 53.1543 76.7172 53.1543 76.7172 53.189V54.5403H78.1726C78.2072 54.5403 78.2418 54.5403 78.2765 54.575C78.3112 54.575 78.3112 54.6096 78.3458 54.6443C78.3805 54.6789 78.3805 54.7136 78.3805 54.7829C78.3805 54.8522 78.3805 54.9215 78.3805 54.9908C78.3805 55.1294 78.3458 55.268 78.3112 55.3373C78.2765 55.4066 78.2072 55.4413 78.1726 55.4413H76.7172V58.6291C76.7172 59.0103 76.7865 59.3221 76.8905 59.53C76.9944 59.738 77.2023 59.8419 77.5142 59.8419C77.6181 59.8419 77.6874 59.8419 77.7567 59.8073C77.826 59.7726 77.8953 59.7726 77.9646 59.738C78.0339 59.7033 78.0686 59.7033 78.1032 59.6687C78.1379 59.634 78.1726 59.634 78.2072 59.634C78.2419 59.634 78.2418 59.634 78.2765 59.634C78.3112 59.634 78.3112 59.6687 78.3112 59.7033C78.3112 59.738 78.3458 59.7726 78.3458 59.8419C78.3805 59.9112 78.3805 59.9459 78.3805 60.0498ZM72.8017 57.0352C72.8017 56.4808 72.6977 56.0303 72.4205 55.7185C72.1433 55.4066 71.7622 55.2333 71.277 55.2333C70.9998 55.2333 70.7919 55.268 70.584 55.372C70.3761 55.4759 70.2375 55.6145 70.0989 55.7531C69.9603 55.9264 69.8564 56.0996 69.7871 56.3075C69.7178 56.5154 69.6831 56.758 69.6485 57.0005H72.8017V57.0352ZM73.8759 57.347C73.8759 57.5203 73.8412 57.6243 73.7373 57.6936C73.668 57.7629 73.564 57.7975 73.46 57.7975H69.6831C69.6831 58.1094 69.7178 58.4212 69.7871 58.6638C69.8564 58.9063 69.9603 59.1489 70.0989 59.3221C70.2375 59.4954 70.4454 59.634 70.688 59.738C70.9305 59.8419 71.2077 59.8766 71.5543 59.8766C71.8315 59.8766 72.074 59.8419 72.2819 59.8073C72.4898 59.7726 72.6977 59.7033 72.8363 59.6687C72.9749 59.5993 73.1135 59.5647 73.2175 59.53C73.3214 59.4954 73.3907 59.4607 73.46 59.4607C73.4947 59.4607 73.5293 59.4607 73.5293 59.4954C73.564 59.4954 73.564 59.53 73.5986 59.5647C73.5986 59.5993 73.6333 59.634 73.6333 59.7033C73.6333 59.7726 73.6333 59.8073 73.6333 59.9112C73.6333 59.9805 73.6333 60.0152 73.6333 60.0498C73.6333 60.0845 73.6333 60.1191 73.6333 60.1538C73.6333 60.1884 73.5986 60.2231 73.5986 60.2577C73.5986 60.2924 73.564 60.2924 73.5293 60.327C73.4947 60.3617 73.4254 60.3963 73.3214 60.431C73.2175 60.5003 73.0442 60.5349 72.871 60.6042C72.6977 60.6389 72.4898 60.7082 72.2473 60.7428C72.0047 60.7775 71.7622 60.8121 71.485 60.8121C70.9998 60.8121 70.584 60.7428 70.2375 60.6042C69.891 60.4656 69.5792 60.2924 69.3366 60.0152C69.094 59.738 68.9208 59.4261 68.7822 59.0449C68.6436 58.6638 68.6089 58.2133 68.6089 57.6936C68.6089 57.2084 68.6782 56.758 68.8168 56.3768C68.9554 55.9957 69.1287 55.6492 69.3713 55.372C69.6138 55.0947 69.891 54.8868 70.2375 54.7482C70.584 54.6096 70.9652 54.5403 71.381 54.5403C71.8315 54.5403 72.2126 54.6096 72.5245 54.7482C72.8363 54.8868 73.1135 55.0947 73.3214 55.3373C73.5293 55.5799 73.6679 55.8571 73.7719 56.2036C73.8759 56.5154 73.9105 56.8966 73.9105 57.2777V57.347H73.8759ZM66.2873 57.0352C66.2873 56.4808 66.1834 56.0303 65.9062 55.7185C65.629 55.4066 65.2478 55.2333 64.7627 55.2333C64.4855 55.2333 64.2776 55.268 64.0697 55.372C63.8618 55.4759 63.7232 55.6145 63.5846 55.7531C63.446 55.9264 63.342 56.0996 63.2727 56.3075C63.2034 56.5154 63.1688 56.758 63.1341 57.0005H66.2873V57.0352ZM67.3615 57.347C67.3615 57.5203 67.3269 57.6243 67.2229 57.6936C67.1536 57.7629 67.0497 57.7975 66.9457 57.7975H63.1688C63.1688 58.1094 63.2034 58.4212 63.2727 58.6638C63.342 58.9063 63.446 59.1489 63.5846 59.3221C63.7232 59.4954 63.9311 59.634 64.1736 59.738C64.4162 59.8419 64.6934 59.8766 65.0399 59.8766C65.3171 59.8766 65.5597 59.8419 65.7676 59.8073C65.9755 59.7726 66.1834 59.7033 66.322 59.6687C66.4606 59.5993 66.5992 59.5647 66.7031 59.53C66.8071 59.4954 66.8764 59.4607 66.9457 59.4607C66.9803 59.4607 67.015 59.4607 67.015 59.4954C67.0496 59.4954 67.0497 59.53 67.0843 59.5647C67.0843 59.5993 67.119 59.634 67.119 59.7033C67.119 59.7726 67.119 59.8073 67.119 59.9112C67.119 59.9805 67.119 60.0152 67.119 60.0498C67.119 60.0845 67.119 60.1191 67.119 60.1538C67.119 60.1884 67.119 60.2231 67.0843 60.2577C67.0843 60.2924 67.0496 60.2924 67.015 60.327C66.9803 60.3617 66.911 60.3963 66.8071 60.431C66.7031 60.5003 66.5299 60.5349 66.3566 60.6042C66.1834 60.6389 65.9755 60.7082 65.7329 60.7428C65.4904 60.7775 65.2478 60.8121 64.9706 60.8121C64.4855 60.8121 64.0697 60.7428 63.7232 60.6042C63.3767 60.4656 63.0648 60.2924 62.8223 60.0152C62.5797 59.738 62.4064 59.4261 62.2678 59.0449C62.1292 58.6638 62.0946 58.2133 62.0946 57.6936C62.0946 57.2084 62.1639 56.758 62.3025 56.3768C62.4411 55.9957 62.6143 55.6492 62.8569 55.372C63.0995 55.0947 63.3767 54.8868 63.7232 54.7482C64.0697 54.6096 64.4508 54.5403 64.8667 54.5403C65.3171 54.5403 65.6983 54.6096 66.0101 54.7482C66.322 54.8868 66.5992 55.0947 66.8071 55.3373C67.015 55.5799 67.1536 55.8571 67.2576 56.2036C67.3615 56.5154 67.3962 56.8966 67.3962 57.2777V57.347H67.3615ZM60.5353 60.4656C60.5353 60.5003 60.5353 60.5349 60.5007 60.5696C60.466 60.6042 60.466 60.6042 60.4314 60.6389C60.3967 60.6389 60.3274 60.6735 60.2581 60.6735C60.1888 60.6735 60.1195 60.6735 60.0155 60.6735C59.9116 60.6735 59.8076 60.6735 59.7383 60.6735C59.669 60.6735 59.5997 60.6389 59.5651 60.6389C59.5304 60.6389 59.4958 60.6042 59.4958 60.5696C59.4611 60.5349 59.4611 60.5003 59.4611 60.4656V56.9659C59.4611 56.7233 59.4265 56.5154 59.3918 56.3075C59.3572 56.0996 59.2879 55.9264 59.1839 55.7878C59.08 55.6492 58.976 55.5452 58.8374 55.4413C58.6988 55.372 58.5256 55.3373 58.3177 55.3373C58.0751 55.3373 57.8325 55.4413 57.59 55.6145C57.3474 55.7878 57.0702 56.065 56.793 56.4461V60.4656C56.793 60.5003 56.793 60.5349 56.7584 60.5696C56.7237 60.6042 56.7237 60.6042 56.6544 60.6389C56.6198 60.6389 56.5505 60.6735 56.4812 60.6735C56.4119 60.6735 56.3426 60.6735 56.2386 60.6735C56.1347 60.6735 56.0654 60.6735 55.9961 60.6735C55.9268 60.6735 55.8575 60.6389 55.8228 60.6389C55.7882 60.6389 55.7535 60.6042 55.7535 60.5696C55.7535 60.5349 55.7188 60.5003 55.7188 60.4656V56.9659C55.7188 56.7233 55.6842 56.5154 55.6495 56.3075C55.6149 56.0996 55.5456 55.9264 55.4416 55.7878C55.3377 55.6492 55.2337 55.5452 55.0951 55.4413C54.9565 55.372 54.7833 55.3373 54.5754 55.3373C54.3328 55.3373 54.0903 55.4413 53.8477 55.6145C53.6051 55.7878 53.3279 56.065 53.0507 56.4461V60.4656C53.0507 60.5003 53.0507 60.5349 53.0161 60.5696C52.9814 60.6042 52.9814 60.6042 52.9468 60.6389C52.9121 60.6389 52.8428 60.6735 52.7735 60.6735C52.7042 60.6735 52.6349 60.6735 52.4963 60.6735C52.3924 60.6735 52.3231 60.6735 52.2538 60.6735C52.1845 60.6735 52.1152 60.6389 52.0805 60.6389C52.0459 60.6389 52.0112 60.6042 52.0112 60.5696C52.0112 60.5349 51.9766 60.5003 51.9766 60.4656V54.7136C51.9766 54.6789 51.9766 54.6443 52.0112 54.6096C52.0112 54.575 52.0459 54.575 52.0805 54.5403C52.1152 54.5057 52.1845 54.5057 52.2191 54.5057C52.2884 54.5057 52.3577 54.5057 52.4617 54.5057C52.5656 54.5057 52.6349 54.5057 52.7042 54.5057C52.7735 54.5057 52.8082 54.5403 52.8428 54.5403C52.8775 54.575 52.9121 54.575 52.9121 54.6096C52.9121 54.6443 52.9468 54.6789 52.9468 54.7136V55.4759C53.2586 55.0948 53.5705 54.8522 53.8824 54.6789C54.1942 54.5057 54.5061 54.4364 54.8179 54.4364C55.0605 54.4364 55.2684 54.471 55.4763 54.5057C55.6495 54.575 55.8228 54.6443 55.9614 54.7482C56.1 54.8522 56.2386 54.9561 56.3426 55.0947C56.4465 55.2334 56.5158 55.372 56.5851 55.5452C56.793 55.3373 56.9663 55.1641 57.1395 55.0254C57.3128 54.8868 57.486 54.7482 57.6246 54.6789C57.7979 54.575 57.9365 54.5403 58.0751 54.471C58.2137 54.4364 58.387 54.4017 58.5256 54.4017C58.9067 54.4017 59.2186 54.471 59.4611 54.6096C59.7037 54.7482 59.9116 54.9215 60.0848 55.1294C60.2234 55.3373 60.362 55.6145 60.4314 55.8917C60.5007 56.1689 60.5353 56.4808 60.5353 56.8273V60.4656Z" fill="#254648"/>
<path d="M142.761 60.0498C142.761 60.1884 142.761 60.2577 142.726 60.3617C142.726 60.431 142.692 60.5003 142.657 60.5349C142.622 60.5696 142.588 60.6042 142.518 60.6389C142.449 60.6735 142.38 60.7082 142.276 60.7082C142.172 60.7428 142.103 60.7428 141.999 60.7428C141.895 60.7428 141.791 60.7775 141.721 60.7775C141.41 60.7775 141.167 60.7428 140.959 60.6735C140.751 60.6042 140.578 60.4656 140.439 60.327C140.301 60.1538 140.197 59.9805 140.127 59.7033C140.058 59.4608 140.023 59.1835 140.023 58.837V55.4413H139.227C139.157 55.4413 139.123 55.4066 139.088 55.3373C139.053 55.268 139.019 55.164 139.019 54.9908C139.019 54.9215 139.019 54.8522 139.019 54.7829C139.019 54.7136 139.053 54.6789 139.053 54.6443C139.088 54.6096 139.088 54.575 139.123 54.575C139.157 54.575 139.192 54.5403 139.227 54.5403H140.023V53.189C140.023 53.1543 140.023 53.1197 140.058 53.1197C140.058 53.085 140.093 53.085 140.127 53.0504C140.162 53.0157 140.231 53.0157 140.301 53.0157C140.37 53.0157 140.439 53.0157 140.543 53.0157C140.647 53.0157 140.751 53.0157 140.82 53.0157C140.89 53.0157 140.959 53.0504 140.994 53.0504C141.028 53.085 141.063 53.085 141.063 53.1197C141.063 53.1543 141.098 53.189 141.098 53.189V54.5403H142.553C142.588 54.5403 142.622 54.5403 142.657 54.575C142.692 54.575 142.692 54.6096 142.726 54.6443C142.761 54.6789 142.761 54.7136 142.761 54.7829C142.761 54.8522 142.761 54.9215 142.761 54.9908C142.761 55.1294 142.726 55.268 142.692 55.3373C142.657 55.4066 142.588 55.4413 142.553 55.4413H141.098V58.6291C141.098 59.0103 141.167 59.3221 141.271 59.5301C141.375 59.738 141.583 59.8419 141.895 59.8419C141.999 59.8419 142.068 59.8419 142.137 59.8073C142.207 59.7726 142.276 59.7726 142.345 59.738C142.414 59.7033 142.449 59.7033 142.484 59.6687C142.518 59.634 142.553 59.634 142.588 59.634C142.622 59.634 142.622 59.634 142.657 59.634C142.692 59.634 142.692 59.6687 142.692 59.7033C142.692 59.738 142.726 59.7726 142.726 59.8419C142.761 59.9112 142.761 59.9459 142.761 60.0498ZM138.568 55.0947C138.568 55.1987 138.568 55.268 138.568 55.3373C138.568 55.4066 138.568 55.4413 138.534 55.4759C138.534 55.5106 138.499 55.5452 138.499 55.5452C138.464 55.5799 138.464 55.5799 138.43 55.5799C138.395 55.5799 138.36 55.5799 138.291 55.5452C138.256 55.5106 138.187 55.5106 138.118 55.4759C138.048 55.4413 137.979 55.4413 137.91 55.4066C137.84 55.372 137.737 55.372 137.667 55.372C137.563 55.372 137.459 55.4066 137.355 55.4413C137.251 55.4759 137.147 55.5452 137.044 55.6492C136.94 55.7531 136.801 55.8917 136.697 56.0303C136.558 56.2036 136.454 56.3768 136.281 56.6194V60.3963C136.281 60.431 136.281 60.4656 136.247 60.5003C136.212 60.5349 136.212 60.5349 136.177 60.5696C136.143 60.5696 136.073 60.6042 136.004 60.6042C135.935 60.6042 135.865 60.6042 135.727 60.6042C135.623 60.6042 135.554 60.6042 135.484 60.6042C135.415 60.6042 135.346 60.5696 135.311 60.5696C135.276 60.5696 135.242 60.5349 135.242 60.5003C135.242 60.4656 135.207 60.431 135.207 60.3963V54.6443C135.207 54.6096 135.207 54.575 135.242 54.5403C135.242 54.5057 135.276 54.5057 135.311 54.471C135.346 54.4364 135.415 54.4364 135.45 54.4364C135.519 54.4364 135.588 54.4364 135.692 54.4364C135.796 54.4364 135.865 54.4364 135.935 54.4364C136.004 54.4364 136.039 54.471 136.073 54.471C136.108 54.5057 136.143 54.5057 136.143 54.5403C136.143 54.575 136.177 54.6096 136.177 54.6443V55.4759C136.351 55.2334 136.489 55.0601 136.628 54.9215C136.766 54.7829 136.905 54.6789 137.009 54.575C137.147 54.5057 137.251 54.4364 137.39 54.4017C137.529 54.3671 137.633 54.3671 137.771 54.3671C137.84 54.3671 137.875 54.3671 137.944 54.3671C138.014 54.3671 138.083 54.4017 138.152 54.4017C138.222 54.4364 138.291 54.4364 138.36 54.471C138.43 54.5057 138.464 54.5057 138.499 54.5403C138.534 54.575 138.534 54.575 138.534 54.6096C138.534 54.6443 138.568 54.6443 138.568 54.6789C138.568 54.7136 138.568 54.7482 138.568 54.8175C138.568 54.9215 138.568 54.9908 138.568 55.0947Z" fill="#254648"/>
</g>
<defs>
<linearGradient id="paint0_linear" x1="-0.0253906" y1="0" x2="53.3227" y2="3.44554" gradientUnits="userSpaceOnUse">
<stop stop-color="#51DB91"/>
<stop offset="1" stop-color="#38D0B5"/>
</linearGradient>
<linearGradient id="paint1_linear" x1="148.271" y1="23.8744" x2="206.575" y2="36.2755" gradientUnits="userSpaceOnUse">
<stop stop-color="#51DB91"/>
<stop offset="1" stop-color="#38D0B5"/>
</linearGradient>
<clipPath id="clip0">
<rect width="204.474" height="64" fill="white"/>
</clipPath>
</defs>
</svg>
