<svg width="205" height="64" fill="none" xmlns="http://www.w3.org/2000/svg"><g clip-path="url(#clip0)"><path fill-rule="evenodd" clip-rule="evenodd" d="M15.94 18.954c2.598 0 5.024.624 7.207 1.698.589.312 1.87.866 3.257.797 1.524-.104 2.91-1.317 3.222-2.841.07-.867-.104-1.872-.485-2.565a10.849 10.849 0 0 1-1.386-5.267C27.79 4.851 32.606 0 38.601 0c5.96 0 10.811 4.851 10.811 10.811s-4.851 10.811-10.811 10.811a11.13 11.13 0 0 1-4.678-1.04 3.126 3.126 0 0 0-1.386-.311c-1.143 0-2.841.866-3.534 2.564-.45 2.044.589 3.846 1.005 4.643 1.212 2.218 1.87 4.747 1.87 7.45 0 3.43-1.108 6.618-2.945 9.252a3.579 3.579 0 0 0-.485 2.46c.277 1.698 1.802 2.564 2.772 2.564.347 0 .693-.07 1.005-.242a7.99 7.99 0 0 1 3.396-.763c4.366 0 7.9 3.535 7.9 7.9a7.896 7.896 0 0 1-7.9 7.901 7.897 7.897 0 0 1-7.9-7.9c0-1.386.38-2.703 1.005-3.847.277-.485.38-1.143.346-1.767-.173-1.074-1.005-2.01-2.01-2.321-1.074-.278-2.183.034-3.153.554-2.807 1.629-6.064 2.356-9.321 2.114C6.757 50.174.52 43.868 0 35.968c-.243-4.436 1.282-8.733 4.331-11.99 2.98-3.188 7.242-4.99 11.608-5.024z" fill="#86B227"/><path d="M65.005 45.982c-.797 0-1.594-.624-1.906-1.386l-5.44-15.177v15.073c0 .831-.624 1.49-1.455 1.49H53.43c-.831 0-1.455-.659-1.455-1.49V25.33c0-.832.624-1.49 1.42-1.49h6.273c.831 0 1.594.658 1.87 1.455l4.54 13.167 4.54-13.167c.242-.797 1.039-1.455 1.87-1.455h6.272c.797 0 1.42.658 1.42 1.49v19.127c0 .832-.623 1.49-1.454 1.49h-2.773c-.831 0-1.455-.658-1.455-1.49V29.419l-5.44 15.177c-.277.762-1.109 1.386-1.906 1.386h-2.148zM84.652 25.33c0-.832.658-1.456 1.455-1.456h2.876c.832 0 1.49.624 1.49 1.456v19.196c0 .797-.658 1.456-1.49 1.456h-2.876c-.797 0-1.455-.624-1.455-1.421V25.33zm16.043 12.543v6.619c0 .797-.624 1.455-1.455 1.455h-2.91a1.464 1.464 0 0 1-1.456-1.455V25.33c0-.832.624-1.456 1.42-1.456h12.717c4.609 0 8.039 2.669 8.039 7 0 3.396-2.633 4.99-5.821 5.613 1.282.485 2.252 1.594 3.5 3.57l2.806 4.47c.52.83.278 1.455-.519 1.455h-3.708c-.797 0-1.871-.624-2.356-1.456l-2.634-4.123c-.797-1.248-1.94-2.53-3.915-2.53h-3.708zm0-9.667v5.301h6.584c1.767 0 4.019-.623 4.019-2.668 0-2.01-2.252-2.668-4.019-2.668h-6.584v.035zm22.211 1.663c1.282-4.886 5.752-5.995 10.222-5.995h8.316c.763 0 1.317.659 1.317 1.421v19.266c0 .797-.658 1.42-1.455 1.42h-2.911c-.831 0-1.455-.623-1.455-1.455v-3.88h-10.95l-1.039 3.88c-.208.832-1.005 1.456-1.837 1.456h-3.049c-.832 0-1.282-.624-1.074-1.421l3.915-14.692zm4.228 6.41h9.841v-8.073h-4.401c-1.975 0-3.569 1.213-4.089 3.084l-1.351 4.99z" fill="#fff"/><path d="M184.793 37.63c0 1.317-.208 2.496-.589 3.535a7.13 7.13 0 0 1-1.664 2.634c-.727.727-1.594 1.247-2.599 1.628-1.039.381-2.183.555-3.499.555-1.213 0-2.287-.174-3.257-.52-.971-.347-1.837-.866-2.53-1.525-.693-.658-1.247-1.524-1.629-2.53-.381-1.004-.589-2.182-.589-3.534V24.637a.77.77 0 0 1 .763-.763h1.386a.77.77 0 0 1 .762.763v12.855c0 1.005.104 1.871.381 2.634.243.762.589 1.386 1.074 1.87a4.26 4.26 0 0 0 1.664 1.11 6.272 6.272 0 0 0 2.183.38c.831 0 1.559-.103 2.217-.38.659-.278 1.213-.624 1.664-1.11.45-.484.797-1.108 1.039-1.836.243-.727.347-1.559.347-2.53V24.638a.77.77 0 0 1 .762-.763h1.386a.77.77 0 0 1 .762.763V37.63h-.034z" fill="#86B227"/><path fill-rule="evenodd" clip-rule="evenodd" d="M149.033 23.874h1.386a.77.77 0 0 1 .762.763v12.335h9.841V24.637a.77.77 0 0 1 .763-.763h1.386a.77.77 0 0 1 .762.763V45.01a.77.77 0 0 1-.762.763h-1.386a.77.77 0 0 1-.763-.763v-5.163h-9.841v5.163a.769.769 0 0 1-.762.763h-1.386a.769.769 0 0 1-.762-.763V24.637a.77.77 0 0 1 .762-.763zm52.08 14.45a3.614 3.614 0 0 0-.901-1.248c-.415-.346-.901-.589-1.49-.762-.589-.173-1.351-.277-2.287-.277h-4.158v7.346h4.886c.658 0 1.247-.07 1.733-.243.485-.173.935-.38 1.316-.693.381-.312.659-.693.867-1.143.485-1.005.45-1.975.034-2.98zm-1.213-9.945c-.311-.936-1.004-1.629-1.94-1.906-.52-.173-1.178-.242-2.01-.242h-3.673v7.484h3.985c.762 0 1.352-.104 1.837-.277.901-.381 1.524-1.04 1.801-1.975.278-.901.278-2.218 0-3.084zm-9.771-4.505h5.96c1.317 0 2.391.104 3.222.382 1.525.45 2.738 1.455 3.362 2.945.45 1.109.554 2.91.242 4.089-.242.935-.728 1.767-1.455 2.39-.381.312-.797.59-1.248.763.589.104 1.178.312 1.664.624.519.312.97.693 1.351 1.143.381.45.693 1.005.936 1.629.45 1.212.45 2.287.069 3.569a5.378 5.378 0 0 1-.728 1.559c-.312.45-.693.866-1.143 1.213-.451.346-.936.658-1.49.866a7.726 7.726 0 0 1-1.802.52c-.659.104-1.386.173-2.183.173h-6.688a.769.769 0 0 1-.762-.762v-20.34c-.069-.416.277-.763.693-.763z" fill="#86B227"/><path d="M132.539 57.035c0-.554-.104-1.005-.381-1.316-.277-.312-.658-.486-1.143-.486-.278 0-.485.035-.693.139-.208.104-.347.242-.485.381a1.745 1.745 0 0 0-.312.554c-.07.208-.104.451-.139.694h3.153v.034zm1.04.312c0 .173-.035.277-.139.347a.392.392 0 0 1-.277.103h-3.777c0 .312.035.624.104.867.069.242.173.485.312.658a1.5 1.5 0 0 0 .589.416c.242.104.52.139.866.139.277 0 .52-.035.728-.07.208-.034.416-.104.554-.138.139-.07.277-.104.381-.139.104-.035.174-.07.243-.07.035 0 .069 0 .069.035.035 0 .035.035.07.07 0 .034.034.069.034.138v.451c0 .034-.034.07-.034.104 0 .034-.035.034-.07.069a.559.559 0 0 1-.208.104c-.104.07-.277.104-.45.173-.173.035-.381.104-.624.139-.242.035-.485.07-.762.07-.485 0-.901-.07-1.248-.209-.346-.138-.658-.312-.9-.589a2.96 2.96 0 0 1-.555-.97c-.138-.381-.173-.832-.173-1.351 0-.486.069-.936.208-1.317.138-.381.312-.728.554-1.005a2.23 2.23 0 0 1 .866-.624 3.056 3.056 0 0 1 1.144-.208c.45 0 .832.07 1.143.208.312.139.589.347.797.59.208.242.347.52.451.866.104.311.138.693.138 1.074v.069h-.034zm-7.554.277c0-.277-.035-.589-.069-.866a2.257 2.257 0 0 0-.243-.728 1.301 1.301 0 0 0-.45-.52c-.174-.138-.416-.207-.693-.207a1.73 1.73 0 0 0-.416.069 1.17 1.17 0 0 0-.416.208 3.666 3.666 0 0 0-.416.346c-.138.139-.312.312-.485.52v2.287c.277.347.554.624.832.832.277.173.519.277.831.277.277 0 .485-.07.693-.208.174-.139.347-.312.451-.52.104-.208.208-.45.242-.727a1.87 1.87 0 0 0 .139-.763zm1.074-.138c0 .52-.069.97-.173 1.351a2.718 2.718 0 0 1-.485 1.005c-.208.277-.485.485-.797.658a2.583 2.583 0 0 1-1.074.243c-.174 0-.312-.035-.486-.035a2.117 2.117 0 0 1-.415-.173 2.834 2.834 0 0 1-.416-.277c-.139-.104-.277-.243-.451-.381v2.876c0 .034 0 .069-.034.103 0 .035-.035.035-.07.07-.034 0-.104.035-.173.035h-.52c-.069 0-.138-.035-.173-.035-.034-.035-.069-.035-.069-.07 0-.034-.035-.069-.035-.103v-8.04c0-.034 0-.069.035-.103 0-.035.035-.035.069-.07.035-.034.104-.034.139-.034h.416c.069 0 .104.034.138.034.035.035.069.035.069.07 0 .034.035.069.035.104v.762c.173-.173.347-.347.52-.45.173-.14.312-.243.485-.312.173-.104.347-.139.52-.208.173-.035.346-.07.554-.07.416 0 .762.07 1.074.243.278.173.52.381.728.658.173.277.312.624.416.97.138.382.173.763.173 1.179zm-6.584 2.841c.035.07.07.104.07.139 0 .034-.035.069-.07.104-.034.034-.104.034-.173.069h-.624c-.069 0-.138-.035-.173-.035-.034 0-.069-.034-.104-.07l-.069-.068-1.386-2.287-1.386 2.287c0 .034-.035.069-.069.069-.035.035-.07.035-.104.07-.035 0-.104.034-.174.034h-.589a.266.266 0 0 1-.173-.07c-.035-.034-.069-.069-.069-.103a.26.26 0 0 1 .069-.139l1.802-2.807-1.698-2.703c-.035-.069-.035-.103-.069-.138 0-.035.034-.07.069-.104.035-.035.104-.035.173-.07h.624c.069 0 .139.035.173.035.035 0 .07.035.104.035l.07.07 1.316 2.148 1.317-2.149c0-.034.035-.034.069-.069l.07-.07c.034 0 .104-.034.138-.034h.589c.07 0 .139.035.173.035.035.034.07.069.035.104 0 .034-.035.104-.069.173l-1.698 2.668 1.836 2.876zm-6.86-3.292c0-.554-.104-1.005-.382-1.316-.242-.312-.658-.486-1.143-.486-.277 0-.485.035-.693.139-.208.104-.347.242-.485.381a1.745 1.745 0 0 0-.312.554c-.069.208-.104.451-.139.694h3.154v.034zm1.074.312c0 .173-.035.277-.139.347a.392.392 0 0 1-.277.103h-3.777c0 .312.035.624.104.867.069.242.173.485.312.658a1.5 1.5 0 0 0 .589.416c.242.104.52.139.866.139.277 0 .52-.035.728-.07.208-.034.416-.104.554-.138.139-.07.277-.104.381-.139.104-.035.174-.07.243-.07.035 0 .069 0 .069.035.035 0 .035.035.07.07 0 .034.034.069.034.138v.451c0 .034 0 .07-.034.104 0 .034-.035.034-.07.069a.559.559 0 0 1-.208.104c-.104.07-.277.104-.45.173-.173.035-.381.104-.624.139-.242.035-.485.07-.762.07-.485 0-.901-.07-1.248-.209-.346-.138-.658-.312-.9-.589a2.96 2.96 0 0 1-.555-.97c-.139-.381-.173-.832-.173-1.351 0-.486.069-.936.208-1.317.138-.381.312-.728.554-1.005a2.23 2.23 0 0 1 .866-.624 3.056 3.056 0 0 1 1.144-.208c.45 0 .832.07 1.143.208.312.139.589.347.797.59.208.242.347.52.451.866.104.311.138.693.138 1.074v.069h-.034zm-9.044-2.252v.242c0 .07 0 .104-.035.139 0 .035-.034.07-.034.07 0 .034-.035.034-.07.034-.034 0-.069 0-.138-.035-.035-.034-.104-.034-.174-.07-.069-.034-.138-.034-.207-.068-.07-.035-.174-.035-.243-.035-.104 0-.208.035-.312.07a.817.817 0 0 0-.312.207 3.785 3.785 0 0 0-.346.381c-.139.174-.243.347-.416.59v3.776c0 .035 0 .07-.035.104l-.069.07c-.035 0-.104.034-.173.034h-.52c-.069 0-.139-.034-.173-.034a.075.075 0 0 1-.07-.07c0-.034-.034-.069-.034-.104v-5.752c0-.034 0-.069.034-.104 0-.034.035-.034.07-.069.034-.035.104-.035.138-.035h.485c.07 0 .104.035.139.035.035.035.069.035.069.07 0 .034.035.069.035.103v.832c.173-.243.312-.416.45-.554a3.03 3.03 0 0 1 .382-.347c.138-.07.242-.139.381-.173.138-.035.242-.035.381-.035h.173c.069 0 .139.035.208.035.069.034.139.034.208.069.069.035.104.035.139.07.034.034.034.034.034.069 0 .034 0 .034.035.069v.416zm-5.336 5.37c0 .035 0 .07-.035.105 0 .034-.035.034-.069.069-.035 0-.104.034-.139.034h-.485c-.07 0-.104-.034-.139-.034a.075.075 0 0 1-.069-.07c0-.034-.034-.069-.034-.103v-.763c-.347.347-.659.624-.97.797a2.013 2.013 0 0 1-.971.243 2.11 2.11 0 0 1-.97-.208 1.57 1.57 0 0 1-.624-.52c-.173-.208-.277-.485-.346-.762-.07-.277-.104-.659-.104-1.074v-3.5c0-.035 0-.07.034-.104 0-.035.035-.035.104-.07.035-.034.104-.034.174-.034h.485c.069 0 .138.035.173.035.034.034.07.034.07.069s.034.07.034.104v3.361c0 .347.034.624.07.797.034.208.138.381.207.52.104.138.243.242.381.346.139.07.347.104.52.104.277 0 .52-.104.797-.277.277-.173.554-.45.832-.832v-4.02c0-.034 0-.068.034-.103 0-.035.035-.035.104-.07.035-.034.104-.034.173-.034h.485c.07 0 .139.035.174.035.034.034.069.034.104.069.034.035.034.07.034.104v5.787h-.034zM92.76 57.59a3.79 3.79 0 0 0-.104-.901c-.07-.278-.138-.52-.277-.728a1.261 1.261 0 0 0-.554-.485c-.208-.139-.52-.173-.832-.173-.312 0-.59.069-.797.173a1.484 1.484 0 0 0-.554.485 2.31 2.31 0 0 0-.312.728c-.07.277-.104.589-.104.9 0 .313.034.624.104.901.069.278.138.52.277.728.139.208.312.381.554.485.243.139.52.174.867.174.311 0 .589-.07.797-.174.242-.104.415-.277.554-.45a2.31 2.31 0 0 0 .312-.728c.034-.312.07-.589.07-.935zm1.109-.07c0 .485-.07.901-.173 1.282-.139.382-.312.728-.555 1.005-.242.277-.554.52-.935.659-.381.173-.797.242-1.282.242s-.901-.07-1.248-.208c-.346-.138-.658-.346-.866-.623a2.39 2.39 0 0 1-.52-.97 5.052 5.052 0 0 1-.173-1.317c0-.486.07-.901.173-1.283.139-.38.312-.727.555-1.004.242-.278.554-.52.9-.659.382-.173.797-.242 1.283-.242.485 0 .9.069 1.247.208.347.138.658.346.866.623.243.278.416.59.52.97.139.416.208.832.208 1.317zm-8.49 3.119l-.762 2.114c-.034.069-.104.103-.208.173a1.59 1.59 0 0 1-.485.07h-.277c-.07 0-.104-.035-.173-.07-.035-.035-.07-.07-.07-.104 0-.035 0-.104.035-.139l.797-2.01c-.035-.034-.07-.034-.104-.069-.035-.034-.07-.07-.07-.138l-2.044-5.51c-.034-.104-.034-.173-.034-.208 0-.07 0-.104.034-.138.035-.035.104-.035.174-.07h.623c.07 0 .139.035.174.035.034 0 .069.035.104.07.034.034.034.069.069.138l1.628 4.608h.035l1.594-4.643a.756.756 0 0 1 .104-.173c.035-.035.104-.035.173-.07h.624a.26.26 0 0 1 .173.07c.035.035.07.07.07.139 0 .034 0 .104-.035.208l-2.149 5.717zm-6.999-.59c0 .14 0 .209-.035.278a.26.26 0 0 1-.069.173.466.466 0 0 1-.138.104.5.5 0 0 1-.243.07c-.104 0-.173.034-.277.034-.104 0-.208.035-.277.035-.312 0-.555-.035-.763-.104a1.37 1.37 0 0 1-.52-.347 1.508 1.508 0 0 1-.311-.623 3.12 3.12 0 0 1-.104-.867v-3.36h-.797c-.07 0-.104-.035-.139-.105a.746.746 0 0 1-.07-.346v-.208c0-.07.035-.104.035-.139.035-.034.035-.069.07-.069.034 0 .07-.035.104-.035h.797v-1.35c0-.035 0-.07.034-.07 0-.034.035-.034.07-.069.034-.034.104-.034.173-.034h.52c.069 0 .138.034.173.034.035.035.07.035.07.07.034.034.034.034.034.069v1.351h1.455c.035 0 .07 0 .104.035.035 0 .035.035.07.07.034.034.034.069.034.138v.208a.87.87 0 0 1-.07.346c-.034.07-.103.104-.138.104h-1.455v3.188c0 .381.07.693.173.901.104.208.312.312.624.312.104 0 .173 0 .242-.035.07-.034.139-.034.208-.069.07-.035.104-.035.139-.07.035-.034.07-.034.104-.034h.07c.034 0 .034.035.034.07 0 .034.034.069.034.138.035.07.035.104.035.208zm-5.579-3.014c0-.554-.104-1.005-.38-1.316-.278-.312-.66-.486-1.144-.486-.278 0-.485.035-.693.139-.208.104-.347.242-.485.381a1.758 1.758 0 0 0-.312.554c-.07.208-.104.451-.139.694h3.153v.034zm1.075.312c0 .173-.035.277-.14.347a.393.393 0 0 1-.276.103h-3.777c0 .312.034.624.104.867.069.242.173.485.312.658a1.5 1.5 0 0 0 .589.416c.242.104.52.139.866.139.277 0 .52-.035.728-.07.208-.034.415-.104.554-.138.139-.07.277-.104.381-.139.104-.035.173-.07.243-.07.034 0 .069 0 .069.035.035 0 .035.035.07.07 0 .034.034.069.034.138v.451c0 .034-.035.07-.035.104 0 .034-.034.034-.069.069a.565.565 0 0 1-.208.104c-.104.07-.277.104-.45.173-.174.035-.381.104-.624.139-.243.035-.485.07-.762.07-.486 0-.901-.07-1.248-.209-.346-.138-.658-.312-.9-.589a2.96 2.96 0 0 1-.555-.97c-.139-.381-.173-.832-.173-1.351 0-.486.069-.936.208-1.317.138-.381.311-.728.554-1.005a2.23 2.23 0 0 1 .866-.624 3.052 3.052 0 0 1 1.144-.208c.45 0 .831.07 1.143.208.312.139.59.347.797.59.208.242.347.52.45.866.105.311.14.693.14 1.074v.069h-.035zm-7.589-.312c0-.554-.104-1.005-.381-1.316-.277-.312-.659-.486-1.144-.486-.277 0-.485.035-.693.139-.208.104-.346.242-.485.381a1.758 1.758 0 0 0-.312.554 4.06 4.06 0 0 0-.138.694h3.153v.034zm1.074.312c0 .173-.035.277-.139.347a.393.393 0 0 1-.277.103h-3.777c0 .312.035.624.104.867.07.242.174.485.312.658.139.173.347.312.59.416.242.104.519.139.865.139.278 0 .52-.035.728-.07.208-.034.416-.104.555-.138.138-.07.277-.104.38-.139.105-.035.174-.07.243-.07.035 0 .07 0 .07.035.034 0 .034.035.069.07 0 .034.035.069.035.138v.451c0 .034 0 .07-.035.104 0 .034-.035.034-.07.069a.563.563 0 0 1-.207.104c-.104.07-.278.104-.45.173-.174.035-.382.104-.624.139-.243.035-.486.07-.763.07-.485 0-.9-.07-1.247-.209-.347-.138-.659-.312-.901-.589a2.958 2.958 0 0 1-.555-.97c-.138-.381-.173-.832-.173-1.351 0-.486.07-.936.208-1.317.139-.381.312-.728.554-1.005.243-.277.52-.485.867-.624a3.052 3.052 0 0 1 1.143-.208c.45 0 .832.07 1.144.208.312.139.589.347.797.59.208.242.346.52.45.866.104.311.139.693.139 1.074v.069h-.035zm-6.826 3.119c0 .034 0 .069-.035.104l-.069.069c-.035 0-.104.034-.173.034h-.52c-.07 0-.139-.034-.173-.034a.075.075 0 0 1-.07-.07c-.034-.034-.034-.069-.034-.103v-3.5c0-.243-.035-.45-.07-.659a1.174 1.174 0 0 0-.207-.52 1.643 1.643 0 0 0-.347-.346 1.158 1.158 0 0 0-.52-.104c-.242 0-.485.104-.727.277-.243.174-.52.451-.797.832v4.02c0 .034 0 .069-.035.104-.035.034-.035.034-.104.069-.035 0-.104.034-.173.034h-.485c-.07 0-.139-.034-.174-.034a.075.075 0 0 1-.069-.07c0-.034-.035-.069-.035-.103v-3.5c0-.243-.034-.45-.069-.659a1.174 1.174 0 0 0-.208-.52 1.643 1.643 0 0 0-.346-.346 1.157 1.157 0 0 0-.52-.104c-.243 0-.485.104-.728.277-.242.174-.52.451-.797.832v4.02c0 .034 0 .069-.034.104l-.07.069c-.034 0-.103.034-.173.034h-.52c-.069 0-.138-.034-.173-.034a.075.075 0 0 1-.07-.07c0-.034-.034-.069-.034-.103v-5.752c0-.035 0-.07.035-.104 0-.035.034-.035.07-.07.034-.034.103-.034.138-.034h.485c.07 0 .104.034.139.034.034.035.069.035.069.07 0 .034.034.069.034.104v.762a3.19 3.19 0 0 1 .936-.797 1.89 1.89 0 0 1 .936-.243c.242 0 .45.035.658.07.173.069.346.138.485.242a1.8 1.8 0 0 1 .381.347c.104.138.173.277.243.45.208-.208.38-.38.554-.52.173-.138.347-.277.485-.346.173-.104.312-.139.45-.208.14-.035.313-.07.451-.07.381 0 .693.07.936.209.242.138.45.312.623.52a2.5 2.5 0 0 1 .347.762c.07.277.104.589.104.935v3.639zm82.226-.416c0 .138 0 .208-.034.312a.264.264 0 0 1-.07.173.47.47 0 0 1-.138.104c-.07.034-.139.07-.243.07-.104.034-.173.034-.277.034-.104 0-.208.035-.277.035-.312 0-.555-.035-.763-.105a1.37 1.37 0 0 1-.519-.346 1.5 1.5 0 0 1-.312-.624 3.131 3.131 0 0 1-.104-.866v-3.396h-.797c-.069 0-.104-.034-.139-.104a.755.755 0 0 1-.069-.346v-.208c0-.07.035-.104.035-.139.034-.034.034-.069.069-.069s.069-.035.104-.035h.797v-1.35c0-.035 0-.07.035-.07 0-.034.034-.034.069-.069.034-.034.104-.034.173-.034h.52c.069 0 .138.034.173.034.035.035.069.035.069.07 0 .034.035.069.035.069v1.351h1.455c.035 0 .07 0 .104.035.035 0 .035.035.07.07.034.034.034.069.034.138v.208a.864.864 0 0 1-.069.346c-.035.07-.104.104-.139.104h-1.455v3.188c0 .381.069.693.173.901.104.208.312.312.624.312.104 0 .173 0 .243-.035.069-.034.138-.034.207-.069.07-.035.104-.035.139-.07.035-.034.069-.034.104-.034h.069c.035 0 .035.035.035.07 0 .034.035.069.035.138.034.07.034.104.034.208zm-4.192-4.955v.242c0 .07 0 .104-.035.139 0 .035-.035.07-.035.07-.034.034-.034.034-.069.034s-.069 0-.139-.035c-.034-.034-.104-.034-.173-.07-.069-.034-.139-.034-.208-.068-.069-.035-.173-.035-.242-.035-.104 0-.208.035-.312.07a.817.817 0 0 0-.312.207c-.104.104-.243.243-.347.381-.138.174-.242.347-.415.59v3.776c0 .035 0 .07-.035.104l-.069.07c-.035 0-.104.034-.174.034h-.519c-.07 0-.139-.034-.174-.034-.034 0-.069-.035-.069-.07 0-.034-.035-.069-.035-.104v-5.752c0-.034 0-.069.035-.104 0-.034.035-.034.069-.069.035-.035.104-.035.139-.035h.485c.069 0 .104.035.139.035.034.035.069.035.069.07 0 .034.035.069.035.103v.832c.173-.243.311-.416.45-.554.139-.14.277-.243.381-.347.139-.07.243-.139.381-.173.139-.035.243-.035.382-.035h.173c.069 0 .138.035.208.035.069.034.138.034.208.069.069.035.104.035.138.07.035.034.035.034.035.069 0 .034.035.034.035.069v.416z" fill="#fff"/></g><defs><clipPath id="clip0"><path fill="#fff" d="M0 0h204.474v64H0z"/></clipPath></defs></svg>