<svg width="205" height="64" viewBox="0 0 205 64" fill="none" xmlns="http://www.w3.org/2000/svg">
<g clip-path="url(#clip0)">
<path fill-rule="evenodd" clip-rule="evenodd" d="M15.9394 18.954C18.5382 18.954 20.9637 19.5777 23.1467 20.6519C23.7358 20.9637 25.0179 21.5181 26.4039 21.4488C27.9285 21.3449 29.3146 20.1321 29.6264 18.6075C29.6957 17.7412 29.5225 16.7363 29.1413 16.0433C28.275 14.484 27.7553 12.6822 27.7553 10.7764C27.7899 4.85111 32.6064 0 38.601 0C44.5609 0 49.412 4.85111 49.412 10.811C49.412 16.771 44.5609 21.6221 38.601 21.6221C36.9377 21.6221 35.3438 21.2409 33.9231 20.5826C33.5073 20.3747 33.0222 20.2707 32.5371 20.2707C31.3936 20.2707 29.6957 21.137 29.0027 22.8349C28.5522 24.8793 29.5918 26.6811 30.0076 27.4781C31.2204 29.6957 31.8787 32.2252 31.8787 34.928C31.8787 38.3584 30.7699 41.5463 28.9334 44.1798C28.4829 44.9074 28.3097 45.7737 28.4483 46.64C28.7255 48.3378 30.2501 49.2041 31.2204 49.2041C31.5669 49.2041 31.9134 49.1348 32.2252 48.9616C33.2647 48.4764 34.4082 48.1992 35.621 48.1992C39.987 48.1992 43.5214 51.7336 43.5214 56.0996C43.5214 60.4656 39.987 64 35.621 64C31.255 64 27.7206 60.4656 27.7206 56.0996C27.7206 54.7136 28.1018 53.3969 28.7255 52.2534C29.0027 51.7683 29.1067 51.1099 29.072 50.4862C28.8987 49.412 28.0671 48.4764 27.0623 48.1646C25.9881 47.8874 24.8793 48.1992 23.909 48.719C21.1023 50.3476 17.8451 51.0753 14.588 50.8327C6.7569 50.1743 0.519755 43.8679 -7.02776e-06 35.9675C-0.242563 31.5322 1.28207 27.2355 4.33134 23.9783C7.31131 20.7905 11.5734 18.9886 15.9394 18.954Z" fill="#86B227"/>
<path d="M65.0049 45.9816C64.2079 45.9816 63.411 45.3579 63.0991 44.5956L57.6589 29.4185V44.4916C57.6589 45.3232 57.0352 45.9816 56.2036 45.9816H53.4315C52.5999 45.9816 51.9762 45.3232 51.9762 44.4916V25.3297C51.9762 24.4981 52.5999 23.8397 53.3969 23.8397H59.6687C60.5003 23.8397 61.2626 24.4981 61.5398 25.2951L66.0791 38.4624L70.6183 25.2951C70.8609 24.4981 71.6578 23.8397 72.4894 23.8397H78.7612C79.5582 23.8397 80.1819 24.4981 80.1819 25.3297V44.457C80.1819 45.2886 79.5582 45.9469 78.7266 45.9469H75.9545C75.1229 45.9469 74.4992 45.2886 74.4992 44.457V29.4185L69.059 44.5956C68.7818 45.3579 67.9502 45.9816 67.1532 45.9816H65.0049Z" fill="white"/>
<path d="M84.6518 25.3297C84.6518 24.4981 85.3102 23.8744 86.1071 23.8744H88.9832C89.8148 23.8744 90.4732 24.4981 90.4732 25.3297V44.5263C90.4732 45.3232 89.8148 45.9816 88.9832 45.9816H86.1071C85.3102 45.9816 84.6518 45.3579 84.6518 44.5609V25.3297Z" fill="white"/>
<path d="M100.695 37.8733V44.4916C100.695 45.2886 100.071 45.9469 99.2398 45.9469H96.3291C95.5321 45.9469 94.8738 45.2886 94.8738 44.4916V25.3297C94.8738 24.4981 95.4975 23.8744 96.2945 23.8744H109.011C113.62 23.8744 117.05 26.5425 117.05 30.8739C117.05 34.2696 114.417 35.8636 111.229 36.4873C112.511 36.9724 113.481 38.0812 114.729 40.0563L117.535 44.5263C118.055 45.3579 117.813 45.9816 117.016 45.9816H113.308C112.511 45.9816 111.437 45.3579 110.952 44.5263L108.318 40.4028C107.521 39.1554 106.378 37.8733 104.403 37.8733H100.695ZM100.695 28.2057V33.5073H107.279C109.046 33.5073 111.298 32.8836 111.298 30.8392C111.298 28.8295 109.046 28.1711 107.279 28.1711H100.695V28.2057Z" fill="white"/>
<path d="M122.906 29.869C124.188 24.9832 128.658 23.8744 133.128 23.8744H141.444C142.207 23.8744 142.761 24.5328 142.761 25.2951V44.5609C142.761 45.3579 142.103 45.9816 141.306 45.9816H138.395C137.564 45.9816 136.94 45.3579 136.94 44.5263V40.6454H125.99L124.951 44.5263C124.743 45.3579 123.946 45.9816 123.114 45.9816H120.065C119.233 45.9816 118.783 45.3579 118.991 44.5609L122.906 29.869ZM127.134 36.2794H136.975V28.2057H132.574C130.599 28.2057 129.005 29.4185 128.485 31.2897L127.134 36.2794Z" fill="white"/>
<path d="M184.793 37.6308C184.793 38.9475 184.585 40.1256 184.204 41.1651C183.822 42.2047 183.268 43.0709 182.54 43.7986C181.813 44.5263 180.946 45.046 179.941 45.4272C178.902 45.8083 177.758 45.9816 176.442 45.9816C175.229 45.9816 174.155 45.8083 173.185 45.4618C172.214 45.1153 171.348 44.5956 170.655 43.9372C169.962 43.2788 169.408 42.4126 169.026 41.4077C168.645 40.4028 168.437 39.2247 168.437 37.8733V37.6308V25.8495V24.6367C168.437 24.2209 168.784 23.8744 169.2 23.8744H170.586C171.002 23.8744 171.348 24.2209 171.348 24.6367V25.8495V37.4921C171.348 38.497 171.452 39.3633 171.729 40.1256C171.972 40.8879 172.318 41.5116 172.803 41.9967C173.254 42.4819 173.808 42.863 174.467 43.1056C175.125 43.3481 175.853 43.4867 176.65 43.4867C177.481 43.4867 178.209 43.3828 178.867 43.1056C179.526 42.8284 180.08 42.4819 180.531 41.9967C180.981 41.5116 181.328 40.8879 181.57 40.1603C181.813 39.4326 181.917 38.601 181.917 37.6308V25.8495V24.6367C181.917 24.2209 182.263 23.8744 182.679 23.8744H184.065C184.481 23.8744 184.827 24.2209 184.827 24.6367V25.8495V37.6308H184.793Z" fill="#86B227"/>
<path fill-rule="evenodd" clip-rule="evenodd" d="M149.033 23.8744H150.419C150.835 23.8744 151.181 24.2209 151.181 24.6367V36.9724H161.022V24.6367C161.022 24.2209 161.369 23.8744 161.785 23.8744H163.171C163.586 23.8744 163.933 24.2209 163.933 24.6367V45.0114C163.933 45.4272 163.586 45.7737 163.171 45.7737H161.785C161.369 45.7737 161.022 45.4272 161.022 45.0114V39.8484H151.181V45.0114C151.181 45.4272 150.835 45.7737 150.419 45.7737H149.033C148.617 45.7737 148.271 45.4272 148.271 45.0114V24.6367C148.271 24.2209 148.617 23.8744 149.033 23.8744Z" fill="#86B227"/>
<path fill-rule="evenodd" clip-rule="evenodd" d="M201.113 38.3238C200.905 37.8387 200.593 37.4229 200.212 37.0764C199.797 36.7298 199.311 36.4873 198.722 36.314C198.133 36.1408 197.371 36.0368 196.435 36.0368H192.277V43.3828H197.163C197.821 43.3828 198.41 43.3135 198.896 43.1402C199.381 42.967 199.831 42.7591 200.212 42.4472C200.593 42.1354 200.871 41.7542 201.079 41.3037C201.564 40.2989 201.529 39.3287 201.113 38.3238ZM199.9 28.379C199.589 27.4434 198.896 26.7504 197.96 26.4732C197.44 26.3 196.782 26.2307 195.95 26.2307H192.277V33.7152H196.262C197.024 33.7152 197.614 33.6113 198.099 33.438C199 33.0569 199.623 32.3985 199.9 31.4629C200.178 30.562 200.178 29.2453 199.9 28.379ZM190.129 23.8744H190.441H191.48H196.089C197.406 23.8744 198.48 23.9783 199.311 24.2556C200.836 24.706 202.049 25.7109 202.673 27.2009C203.123 28.3097 203.227 30.1115 202.915 31.2897C202.673 32.2252 202.187 33.0569 201.46 33.6806C201.079 33.9924 200.663 34.2696 200.212 34.4429C200.801 34.5468 201.39 34.7547 201.876 35.0666C202.395 35.3785 202.846 35.7596 203.227 36.2101C203.608 36.6605 203.92 37.215 204.163 37.8387C204.613 39.0514 204.613 40.1256 204.232 41.4077C204.059 41.9968 203.816 42.5165 203.504 42.967C203.192 43.4174 202.811 43.8333 202.361 44.1798C201.91 44.5263 201.425 44.8381 200.871 45.046C200.316 45.2886 199.693 45.4618 199.069 45.5658C198.41 45.6698 197.683 45.7391 196.886 45.7391H191.55H190.51H190.198C189.782 45.7391 189.436 45.3925 189.436 44.9767V44.5609V25.0525V24.6367C189.367 24.2209 189.713 23.8744 190.129 23.8744Z" fill="#86B227"/>
<path d="M132.539 57.0352C132.539 56.4808 132.435 56.0303 132.158 55.7185C131.881 55.4066 131.5 55.2333 131.015 55.2333C130.737 55.2333 130.53 55.268 130.322 55.372C130.114 55.4759 129.975 55.6145 129.837 55.7531C129.698 55.9264 129.594 56.0996 129.525 56.3075C129.455 56.5154 129.421 56.758 129.386 57.0005H132.539V57.0352ZM133.579 57.347C133.579 57.5203 133.544 57.6243 133.44 57.6936C133.371 57.7629 133.267 57.7975 133.163 57.7975H129.386C129.386 58.1094 129.421 58.4212 129.49 58.6638C129.559 58.9063 129.663 59.1489 129.802 59.3221C129.94 59.4954 130.148 59.634 130.391 59.738C130.633 59.8419 130.911 59.8766 131.257 59.8766C131.534 59.8766 131.777 59.8419 131.985 59.8073C132.193 59.7726 132.401 59.7033 132.539 59.6687C132.678 59.5993 132.816 59.5647 132.92 59.53C133.024 59.4954 133.094 59.4607 133.163 59.4607C133.198 59.4607 133.232 59.4607 133.232 59.4954C133.267 59.4954 133.267 59.53 133.302 59.5647C133.302 59.5993 133.336 59.634 133.336 59.7033C133.336 59.7726 133.336 59.8073 133.336 59.9112C133.336 59.9805 133.336 60.0152 133.336 60.0498C133.336 60.0845 133.336 60.1191 133.336 60.1538C133.336 60.1884 133.302 60.2231 133.302 60.2577C133.302 60.2924 133.267 60.2924 133.232 60.327C133.198 60.3617 133.128 60.3963 133.024 60.431C132.92 60.5003 132.747 60.5349 132.574 60.6042C132.401 60.6389 132.193 60.7082 131.95 60.7428C131.708 60.7775 131.465 60.8121 131.188 60.8121C130.703 60.8121 130.287 60.7428 129.94 60.6042C129.594 60.4656 129.282 60.2924 129.04 60.0152C128.797 59.738 128.624 59.4261 128.485 59.0449C128.347 58.6638 128.312 58.2133 128.312 57.6936C128.312 57.2084 128.381 56.758 128.52 56.3768C128.658 55.9957 128.832 55.6492 129.074 55.372C129.317 55.0947 129.594 54.8868 129.94 54.7482C130.287 54.6096 130.668 54.5403 131.084 54.5403C131.534 54.5403 131.916 54.6096 132.227 54.7482C132.539 54.8868 132.816 55.0947 133.024 55.3373C133.232 55.5799 133.371 55.8571 133.475 56.2036C133.579 56.5154 133.613 56.8966 133.613 57.2777V57.347H133.579ZM126.025 57.6243C126.025 57.3471 125.99 57.0352 125.956 56.758C125.921 56.4808 125.817 56.2382 125.713 56.0303C125.609 55.8224 125.47 55.6492 125.263 55.5106C125.089 55.372 124.847 55.3027 124.57 55.3027C124.431 55.3027 124.292 55.3373 124.154 55.372C124.015 55.4066 123.877 55.4759 123.738 55.5799C123.599 55.6838 123.461 55.7878 123.322 55.9264C123.184 56.065 123.01 56.2382 122.837 56.4461V58.7331C123.114 59.0796 123.391 59.3568 123.669 59.5647C123.946 59.738 124.188 59.8419 124.5 59.8419C124.777 59.8419 124.985 59.7726 125.193 59.634C125.367 59.4954 125.54 59.3221 125.644 59.1142C125.748 58.9063 125.852 58.6638 125.886 58.3866C125.99 58.144 126.025 57.9015 126.025 57.6243ZM127.099 57.4857C127.099 58.0054 127.03 58.4559 126.926 58.837C126.822 59.2528 126.649 59.5647 126.441 59.8419C126.233 60.1191 125.956 60.327 125.644 60.5003C125.332 60.6389 124.985 60.7428 124.57 60.7428C124.396 60.7428 124.258 60.7082 124.084 60.7082C123.946 60.6735 123.807 60.6042 123.669 60.5349C123.53 60.4656 123.391 60.3617 123.253 60.2577C123.114 60.1538 122.976 60.0152 122.802 59.8766V62.7526C122.802 62.7872 122.802 62.8219 122.768 62.8565C122.768 62.8912 122.733 62.8912 122.698 62.9258C122.664 62.9258 122.594 62.9605 122.525 62.9605C122.456 62.9605 122.387 62.9605 122.248 62.9605C122.144 62.9605 122.075 62.9605 122.005 62.9605C121.936 62.9605 121.867 62.9258 121.832 62.9258C121.798 62.8912 121.763 62.8912 121.763 62.8565C121.763 62.8219 121.728 62.7872 121.728 62.7526V54.7136C121.728 54.6789 121.728 54.6443 121.763 54.6096C121.763 54.575 121.798 54.575 121.832 54.5403C121.867 54.5057 121.936 54.5057 121.971 54.5057C122.04 54.5057 122.109 54.5057 122.179 54.5057C122.283 54.5057 122.352 54.5057 122.387 54.5057C122.456 54.5057 122.491 54.5403 122.525 54.5403C122.56 54.575 122.594 54.575 122.594 54.6096C122.594 54.6443 122.629 54.6789 122.629 54.7136V55.4759C122.802 55.3027 122.976 55.1294 123.149 55.0254C123.322 54.8868 123.461 54.7829 123.634 54.7136C123.807 54.6096 123.981 54.575 124.154 54.5057C124.327 54.471 124.5 54.4364 124.708 54.4364C125.124 54.4364 125.47 54.5057 125.782 54.6789C126.06 54.8522 126.302 55.0601 126.51 55.3373C126.683 55.6145 126.822 55.961 126.926 56.3075C127.064 56.6887 127.099 57.0698 127.099 57.4857ZM120.515 60.327C120.55 60.3963 120.585 60.431 120.585 60.4656C120.585 60.5003 120.55 60.5349 120.515 60.5696C120.481 60.6042 120.411 60.6042 120.342 60.6389C120.273 60.6389 120.134 60.6389 120.03 60.6389C119.892 60.6389 119.788 60.6389 119.718 60.6389C119.649 60.6389 119.58 60.6042 119.545 60.6042C119.511 60.6042 119.476 60.5696 119.441 60.5349C119.407 60.5003 119.407 60.5003 119.372 60.4656L117.986 58.1787L116.6 60.4656C116.6 60.5003 116.565 60.5349 116.531 60.5349C116.496 60.5696 116.461 60.5696 116.427 60.6042C116.392 60.6042 116.323 60.6389 116.253 60.6389C116.184 60.6389 116.08 60.6389 115.976 60.6389C115.838 60.6389 115.768 60.6389 115.664 60.6389C115.595 60.6389 115.526 60.6042 115.491 60.5696C115.456 60.5349 115.422 60.5003 115.422 60.4656C115.422 60.431 115.456 60.3617 115.491 60.327L117.293 57.5203L115.595 54.8175C115.56 54.7482 115.56 54.7136 115.526 54.6789C115.526 54.6443 115.56 54.6096 115.595 54.575C115.63 54.5403 115.699 54.5403 115.768 54.5057C115.838 54.5057 115.976 54.5057 116.08 54.5057C116.219 54.5057 116.288 54.5057 116.392 54.5057C116.461 54.5057 116.531 54.5403 116.565 54.5403C116.6 54.5403 116.635 54.575 116.669 54.575C116.704 54.6096 116.704 54.6096 116.739 54.6443L118.055 56.7926L119.372 54.6443C119.372 54.6096 119.407 54.6096 119.441 54.575C119.476 54.5403 119.476 54.5403 119.511 54.5057C119.545 54.5057 119.615 54.471 119.649 54.471C119.718 54.471 119.822 54.471 119.926 54.471C120.065 54.471 120.134 54.471 120.238 54.471C120.308 54.471 120.377 54.5057 120.411 54.5057C120.446 54.5403 120.481 54.575 120.446 54.6096C120.446 54.6443 120.411 54.7136 120.377 54.7829L118.679 57.451L120.515 60.327ZM113.655 57.0352C113.655 56.4808 113.551 56.0303 113.273 55.7185C113.031 55.4066 112.615 55.2333 112.13 55.2333C111.853 55.2333 111.645 55.268 111.437 55.372C111.229 55.4759 111.09 55.6145 110.952 55.7531C110.813 55.9264 110.709 56.0996 110.64 56.3075C110.571 56.5154 110.536 56.758 110.501 57.0005H113.655V57.0352ZM114.729 57.347C114.729 57.5203 114.694 57.6243 114.59 57.6936C114.521 57.7629 114.417 57.7975 114.313 57.7975H110.536C110.536 58.1094 110.571 58.4212 110.64 58.6638C110.709 58.9063 110.813 59.1489 110.952 59.3221C111.09 59.4954 111.298 59.634 111.541 59.738C111.783 59.8419 112.061 59.8766 112.407 59.8766C112.684 59.8766 112.927 59.8419 113.135 59.8073C113.343 59.7726 113.551 59.7033 113.689 59.6687C113.828 59.5993 113.966 59.5647 114.07 59.53C114.174 59.4954 114.244 59.4607 114.313 59.4607C114.348 59.4607 114.382 59.4607 114.382 59.4954C114.417 59.4954 114.417 59.53 114.452 59.5647C114.452 59.5993 114.486 59.634 114.486 59.7033C114.486 59.7726 114.486 59.8073 114.486 59.9112C114.486 59.9805 114.486 60.0152 114.486 60.0498C114.486 60.0845 114.486 60.1191 114.486 60.1538C114.486 60.1884 114.486 60.2231 114.452 60.2577C114.452 60.2924 114.417 60.2924 114.382 60.327C114.348 60.3617 114.278 60.3963 114.174 60.431C114.07 60.5003 113.897 60.5349 113.724 60.6042C113.551 60.6389 113.343 60.7082 113.1 60.7428C112.858 60.7775 112.615 60.8121 112.338 60.8121C111.853 60.8121 111.437 60.7428 111.09 60.6042C110.744 60.4656 110.432 60.2924 110.19 60.0152C109.947 59.738 109.774 59.4261 109.635 59.0449C109.496 58.6638 109.462 58.2133 109.462 57.6936C109.462 57.2084 109.531 56.758 109.67 56.3768C109.808 55.9957 109.982 55.6492 110.224 55.372C110.467 55.0947 110.744 54.8868 111.09 54.7482C111.437 54.6096 111.818 54.5403 112.234 54.5403C112.684 54.5403 113.066 54.6096 113.377 54.7482C113.689 54.8868 113.966 55.0947 114.174 55.3373C114.382 55.5799 114.521 55.8571 114.625 56.2036C114.729 56.5154 114.763 56.8966 114.763 57.2777V57.347H114.729ZM105.685 55.0947C105.685 55.1987 105.685 55.268 105.685 55.3373C105.685 55.4066 105.685 55.4413 105.65 55.4759C105.65 55.5106 105.616 55.5452 105.616 55.5452C105.616 55.5799 105.581 55.5799 105.546 55.5799C105.512 55.5799 105.477 55.5799 105.408 55.5452C105.373 55.5106 105.304 55.5106 105.234 55.4759C105.165 55.4413 105.096 55.4413 105.027 55.4066C104.957 55.372 104.853 55.372 104.784 55.372C104.68 55.372 104.576 55.4066 104.472 55.4413C104.368 55.4759 104.264 55.5452 104.16 55.6492C104.056 55.7531 103.918 55.8917 103.814 56.0303C103.675 56.2036 103.571 56.3768 103.398 56.6194V60.3963C103.398 60.431 103.398 60.4656 103.363 60.5003C103.329 60.5349 103.329 60.5349 103.294 60.5696C103.259 60.5696 103.19 60.6042 103.121 60.6042C103.051 60.6042 102.982 60.6042 102.844 60.6042C102.74 60.6042 102.67 60.6042 102.601 60.6042C102.532 60.6042 102.462 60.5696 102.428 60.5696C102.393 60.5696 102.358 60.5349 102.358 60.5003C102.358 60.4656 102.324 60.431 102.324 60.3963V54.6443C102.324 54.6096 102.324 54.575 102.358 54.5403C102.358 54.5057 102.393 54.5057 102.428 54.471C102.462 54.4364 102.532 54.4364 102.566 54.4364C102.636 54.4364 102.705 54.4364 102.809 54.4364C102.913 54.4364 102.982 54.4364 103.051 54.4364C103.121 54.4364 103.155 54.471 103.19 54.471C103.225 54.5057 103.259 54.5057 103.259 54.5403C103.259 54.575 103.294 54.6096 103.294 54.6443V55.4759C103.467 55.2334 103.606 55.0601 103.744 54.9215C103.883 54.7829 104.022 54.6443 104.126 54.575C104.264 54.5057 104.368 54.4364 104.507 54.4017C104.645 54.3671 104.749 54.3671 104.888 54.3671C104.957 54.3671 104.992 54.3671 105.061 54.3671C105.13 54.3671 105.2 54.4017 105.269 54.4017C105.338 54.4364 105.408 54.4364 105.477 54.471C105.546 54.5057 105.581 54.5057 105.616 54.5403C105.65 54.575 105.65 54.575 105.65 54.6096C105.65 54.6443 105.65 54.6443 105.685 54.6789C105.685 54.7136 105.685 54.7482 105.685 54.8175C105.685 54.9215 105.685 54.9908 105.685 55.0947ZM100.349 60.4656C100.349 60.5003 100.349 60.5349 100.314 60.5696C100.314 60.6042 100.279 60.6042 100.245 60.6389C100.21 60.6389 100.141 60.6735 100.106 60.6735C100.037 60.6735 99.9675 60.6735 99.8636 60.6735C99.7596 60.6735 99.6903 60.6735 99.621 60.6735C99.5517 60.6735 99.5171 60.6389 99.4824 60.6389C99.4478 60.6389 99.4131 60.6042 99.4131 60.5696C99.4131 60.5349 99.3785 60.5003 99.3785 60.4656V59.7033C99.0319 60.0498 98.7201 60.327 98.4082 60.5003C98.0964 60.6735 97.7499 60.7428 97.438 60.7428C97.0569 60.7428 96.745 60.6735 96.4678 60.5349C96.1906 60.3963 95.9827 60.2231 95.8441 60.0152C95.6708 59.8073 95.5669 59.53 95.4976 59.2528C95.4283 58.9756 95.3936 58.5945 95.3936 58.1787V54.6789C95.3936 54.6443 95.3936 54.6096 95.4283 54.575C95.4283 54.5403 95.4629 54.5403 95.5322 54.5057C95.5669 54.471 95.6362 54.471 95.7055 54.471C95.7748 54.471 95.8441 54.471 95.948 54.471C96.052 54.471 96.1213 54.471 96.1906 54.471C96.2599 54.471 96.3292 54.5057 96.3638 54.5057C96.3985 54.5403 96.4331 54.5403 96.4331 54.575C96.4331 54.6096 96.4678 54.6443 96.4678 54.6789V58.0401C96.4678 58.3866 96.5024 58.6638 96.5371 58.837C96.5718 59.0449 96.6757 59.2182 96.745 59.3568C96.849 59.4954 96.9876 59.5994 97.1262 59.7033C97.2648 59.7726 97.4727 59.8073 97.6459 59.8073C97.9231 59.8073 98.1657 59.7033 98.4429 59.53C98.7201 59.3568 98.9973 59.0796 99.2745 58.6984V54.6789C99.2745 54.6443 99.2745 54.6096 99.3092 54.575C99.3092 54.5403 99.3438 54.5403 99.4131 54.5057C99.4478 54.471 99.5171 54.471 99.5864 54.471C99.6557 54.471 99.725 54.471 99.8289 54.471C99.9329 54.471 100.002 54.471 100.071 54.471C100.141 54.471 100.21 54.5057 100.245 54.5057C100.279 54.5403 100.314 54.5403 100.349 54.575C100.383 54.6096 100.383 54.6443 100.383 54.6789V60.4656H100.349ZM92.7602 57.5896C92.7602 57.2777 92.7255 56.9659 92.6562 56.6887C92.5869 56.4115 92.5176 56.1689 92.379 55.961C92.2404 55.7531 92.0671 55.5799 91.8246 55.4759C91.6167 55.3373 91.3048 55.3027 90.993 55.3027C90.6811 55.3027 90.4039 55.372 90.196 55.4759C89.9881 55.5799 89.7802 55.7531 89.6416 55.961C89.503 56.1689 89.399 56.4115 89.3297 56.6887C89.2604 56.9659 89.2258 57.2777 89.2258 57.5896C89.2258 57.9015 89.2604 58.2133 89.3297 58.4905C89.399 58.7677 89.4683 59.0103 89.6069 59.2182C89.7455 59.4261 89.9188 59.5994 90.1614 59.7033C90.4039 59.8419 90.6811 59.8766 91.0276 59.8766C91.3395 59.8766 91.6167 59.8073 91.8246 59.7033C92.0671 59.5994 92.2404 59.4261 92.379 59.2528C92.5176 59.0449 92.6216 58.8024 92.6909 58.5252C92.7255 58.2133 92.7602 57.9361 92.7602 57.5896ZM93.869 57.5203C93.869 58.0054 93.7997 58.4212 93.6957 58.8024C93.5571 59.1835 93.3839 59.5301 93.1413 59.8073C92.8988 60.0845 92.5869 60.327 92.2058 60.4656C91.8246 60.6389 91.4088 60.7082 90.9237 60.7082C90.4386 60.7082 90.0227 60.6389 89.6762 60.5003C89.3297 60.3617 89.0179 60.1538 88.81 59.8766C88.5674 59.5994 88.3942 59.2875 88.2902 58.9063C88.1863 58.5252 88.117 58.0747 88.117 57.5896C88.117 57.1045 88.1863 56.6887 88.2902 56.3075C88.4288 55.9264 88.6021 55.5799 88.8446 55.3027C89.0872 55.0254 89.399 54.7829 89.7455 54.6443C90.1267 54.471 90.5425 54.4017 91.0276 54.4017C91.5127 54.4017 91.9285 54.471 92.275 54.6096C92.6216 54.7482 92.9334 54.9561 93.1413 55.2333C93.3839 55.5106 93.5571 55.8224 93.6611 56.2036C93.7997 56.6194 93.869 57.0352 93.869 57.5203ZM85.3795 60.6389L84.6172 62.7526C84.5826 62.8219 84.5133 62.8565 84.4093 62.9258C84.3054 62.9605 84.1321 62.9951 83.9242 62.9951C83.8203 62.9951 83.7163 62.9951 83.647 62.9951C83.5777 62.9951 83.5431 62.9605 83.4738 62.9258C83.4391 62.8912 83.4045 62.8565 83.4045 62.8219C83.4045 62.7872 83.4045 62.7179 83.4391 62.6833L84.2361 60.6735C84.2014 60.6389 84.1668 60.6389 84.1321 60.6042C84.0975 60.5696 84.0628 60.5349 84.0628 60.4656L82.0184 54.9561C81.9838 54.8522 81.9838 54.7829 81.9838 54.7482C81.9838 54.6789 81.9838 54.6443 82.0184 54.6096C82.0531 54.575 82.1224 54.575 82.1917 54.5403C82.261 54.5403 82.3649 54.5403 82.5035 54.5403C82.6421 54.5403 82.7461 54.5403 82.8154 54.5403C82.8847 54.5403 82.954 54.575 82.9886 54.575C83.0233 54.575 83.0579 54.6096 83.0926 54.6443C83.1272 54.6789 83.1272 54.7136 83.1619 54.7829L84.7905 59.3914H84.8251L86.4191 54.7482C86.4537 54.6789 86.4884 54.6096 86.523 54.575C86.5577 54.5403 86.627 54.5403 86.6963 54.5057C86.7656 54.5057 86.8695 54.5057 87.0081 54.5057C87.1121 54.5057 87.216 54.5057 87.32 54.5057C87.3893 54.5057 87.4586 54.5403 87.4932 54.575C87.5279 54.6096 87.5625 54.6443 87.5625 54.7136C87.5625 54.7482 87.5625 54.8175 87.5279 54.9215L85.3795 60.6389ZM78.3801 60.0498C78.3801 60.1884 78.3801 60.2577 78.3454 60.327C78.3454 60.3963 78.3108 60.4656 78.2761 60.5003C78.2415 60.5349 78.2068 60.5696 78.1375 60.6042C78.0682 60.6389 77.9989 60.6735 77.895 60.6735C77.791 60.6735 77.7217 60.7082 77.6178 60.7082C77.5138 60.7082 77.4099 60.7428 77.3406 60.7428C77.0287 60.7428 76.7862 60.7082 76.5782 60.6389C76.3703 60.5696 76.1971 60.431 76.0585 60.2924C75.9199 60.1191 75.8159 59.9459 75.7466 59.6687C75.6773 59.4261 75.6427 59.1489 75.6427 58.8024V55.4413H74.8457C74.7764 55.4413 74.7418 55.4066 74.7071 55.3373C74.6725 55.268 74.6378 55.164 74.6378 54.9908C74.6378 54.9215 74.6378 54.8522 74.6378 54.7829C74.6378 54.7136 74.6725 54.6789 74.6725 54.6443C74.7071 54.6096 74.7071 54.575 74.7418 54.575C74.7764 54.575 74.8111 54.5403 74.8457 54.5403H75.6427V53.189C75.6427 53.1543 75.6427 53.1197 75.6773 53.1197C75.6773 53.085 75.712 53.085 75.7466 53.0504C75.7813 53.0157 75.8506 53.0157 75.9199 53.0157C75.9892 53.0157 76.0585 53.0157 76.1624 53.0157C76.2664 53.0157 76.3703 53.0157 76.4396 53.0157C76.5089 53.0157 76.5783 53.0504 76.6129 53.0504C76.6476 53.085 76.6822 53.085 76.6822 53.1197C76.7169 53.1543 76.7169 53.1543 76.7169 53.189V54.5403H78.1722C78.2068 54.5403 78.2415 54.5403 78.2761 54.575C78.3108 54.575 78.3108 54.6096 78.3454 54.6443C78.3801 54.6789 78.3801 54.7136 78.3801 54.7829C78.3801 54.8522 78.3801 54.9215 78.3801 54.9908C78.3801 55.1294 78.3454 55.268 78.3108 55.3373C78.2761 55.4066 78.2068 55.4413 78.1722 55.4413H76.7169V58.6291C76.7169 59.0103 76.7862 59.3221 76.8901 59.53C76.9941 59.738 77.202 59.8419 77.5138 59.8419C77.6178 59.8419 77.6871 59.8419 77.7564 59.8073C77.8257 59.7726 77.895 59.7726 77.9643 59.738C78.0336 59.7033 78.0682 59.7033 78.1029 59.6687C78.1375 59.634 78.1722 59.634 78.2068 59.634C78.2415 59.634 78.2415 59.634 78.2761 59.634C78.3108 59.634 78.3108 59.6687 78.3108 59.7033C78.3108 59.738 78.3454 59.7726 78.3454 59.8419C78.3801 59.9112 78.3801 59.9459 78.3801 60.0498ZM72.8013 57.0352C72.8013 56.4808 72.6974 56.0303 72.4202 55.7185C72.143 55.4066 71.7618 55.2333 71.2767 55.2333C70.9995 55.2333 70.7916 55.268 70.5837 55.372C70.3758 55.4759 70.2372 55.6145 70.0986 55.7531C69.96 55.9264 69.856 56.0996 69.7867 56.3075C69.7174 56.5154 69.6827 56.758 69.6481 57.0005H72.8013V57.0352ZM73.8755 57.347C73.8755 57.5203 73.8408 57.6243 73.7369 57.6936C73.6676 57.7629 73.5636 57.7975 73.4597 57.7975H69.6827C69.6827 58.1094 69.7174 58.4212 69.7867 58.6638C69.856 58.9063 69.96 59.1489 70.0986 59.3221C70.2372 59.4954 70.4451 59.634 70.6876 59.738C70.9302 59.8419 71.2074 59.8766 71.5539 59.8766C71.8311 59.8766 72.0737 59.8419 72.2816 59.8073C72.4895 59.7726 72.6974 59.7033 72.836 59.6687C72.9746 59.5993 73.1132 59.5647 73.2171 59.53C73.3211 59.4954 73.3904 59.4607 73.4597 59.4607C73.4943 59.4607 73.529 59.4607 73.529 59.4954C73.5636 59.4954 73.5636 59.53 73.5983 59.5647C73.5983 59.5993 73.6329 59.634 73.6329 59.7033C73.6329 59.7726 73.6329 59.8073 73.6329 59.9112C73.6329 59.9805 73.6329 60.0152 73.6329 60.0498C73.6329 60.0845 73.6329 60.1191 73.6329 60.1538C73.6329 60.1884 73.5983 60.2231 73.5983 60.2577C73.5983 60.2924 73.5636 60.2924 73.529 60.327C73.4943 60.3617 73.425 60.3963 73.3211 60.431C73.2171 60.5003 73.0439 60.5349 72.8706 60.6042C72.6974 60.6389 72.4895 60.7082 72.2469 60.7428C72.0043 60.7775 71.7618 60.8121 71.4846 60.8121C70.9995 60.8121 70.5837 60.7428 70.2372 60.6042C69.8906 60.4656 69.5788 60.2924 69.3362 60.0152C69.0937 59.738 68.9204 59.4261 68.7818 59.0449C68.6432 58.6638 68.6086 58.2133 68.6086 57.6936C68.6086 57.2084 68.6779 56.758 68.8165 56.3768C68.9551 55.9957 69.1283 55.6492 69.3709 55.372C69.6134 55.0947 69.8906 54.8868 70.2372 54.7482C70.5837 54.6096 70.9648 54.5403 71.3806 54.5403C71.8311 54.5403 72.2123 54.6096 72.5241 54.7482C72.836 54.8868 73.1132 55.0947 73.3211 55.3373C73.529 55.5799 73.6676 55.8571 73.7715 56.2036C73.8755 56.5154 73.9101 56.8966 73.9101 57.2777V57.347H73.8755ZM66.287 57.0352C66.287 56.4808 66.183 56.0303 65.9058 55.7185C65.6286 55.4066 65.2474 55.2333 64.7623 55.2333C64.4851 55.2333 64.2772 55.268 64.0693 55.372C63.8614 55.4759 63.7228 55.6145 63.5842 55.7531C63.4456 55.9264 63.3417 56.0996 63.2724 56.3075C63.2031 56.5154 63.1684 56.758 63.1337 57.0005H66.287V57.0352ZM67.3611 57.347C67.3611 57.5203 67.3265 57.6243 67.2225 57.6936C67.1532 57.7629 67.0493 57.7975 66.9453 57.7975H63.1684C63.1684 58.1094 63.2031 58.4212 63.2724 58.6638C63.3417 58.9063 63.4456 59.1489 63.5842 59.3221C63.7228 59.4954 63.9307 59.634 64.1733 59.738C64.4158 59.8419 64.693 59.8766 65.0395 59.8766C65.3167 59.8766 65.5593 59.8419 65.7672 59.8073C65.9751 59.7726 66.183 59.7033 66.3216 59.6687C66.4602 59.5993 66.5988 59.5647 66.7028 59.53C66.8067 59.4954 66.876 59.4607 66.9453 59.4607C66.98 59.4607 67.0146 59.4607 67.0146 59.4954C67.0493 59.4954 67.0493 59.53 67.0839 59.5647C67.0839 59.5993 67.1186 59.634 67.1186 59.7033C67.1186 59.7726 67.1186 59.8073 67.1186 59.9112C67.1186 59.9805 67.1186 60.0152 67.1186 60.0498C67.1186 60.0845 67.1186 60.1191 67.1186 60.1538C67.1186 60.1884 67.1186 60.2231 67.0839 60.2577C67.0839 60.2924 67.0493 60.2924 67.0146 60.327C66.98 60.3617 66.9107 60.3963 66.8067 60.431C66.7028 60.5003 66.5295 60.5349 66.3563 60.6042C66.183 60.6389 65.9751 60.7082 65.7326 60.7428C65.49 60.7775 65.2474 60.8121 64.9702 60.8121C64.4851 60.8121 64.0693 60.7428 63.7228 60.6042C63.3763 60.4656 63.0644 60.2924 62.8219 60.0152C62.5793 59.738 62.4061 59.4261 62.2675 59.0449C62.1289 58.6638 62.0942 58.2133 62.0942 57.6936C62.0942 57.2084 62.1635 56.758 62.3021 56.3768C62.4407 55.9957 62.614 55.6492 62.8565 55.372C63.0991 55.0947 63.3763 54.8868 63.7228 54.7482C64.0693 54.6096 64.4505 54.5403 64.8663 54.5403C65.3167 54.5403 65.6979 54.6096 66.0098 54.7482C66.3216 54.8868 66.5988 55.0947 66.8067 55.3373C67.0146 55.5799 67.1532 55.8571 67.2572 56.2036C67.3611 56.5154 67.3958 56.8966 67.3958 57.2777V57.347H67.3611ZM60.5349 60.4656C60.5349 60.5003 60.5349 60.5349 60.5003 60.5696C60.4656 60.6042 60.4656 60.6042 60.431 60.6389C60.3963 60.6389 60.327 60.6735 60.2577 60.6735C60.1884 60.6735 60.1191 60.6735 60.0152 60.6735C59.9112 60.6735 59.8073 60.6735 59.738 60.6735C59.6687 60.6735 59.5994 60.6389 59.5647 60.6389C59.5301 60.6389 59.4954 60.6042 59.4954 60.5696C59.4608 60.5349 59.4608 60.5003 59.4608 60.4656V56.9659C59.4608 56.7233 59.4261 56.5154 59.3915 56.3075C59.3568 56.0996 59.2875 55.9264 59.1836 55.7878C59.0796 55.6492 58.9757 55.5452 58.8371 55.4413C58.6984 55.372 58.5252 55.3373 58.3173 55.3373C58.0747 55.3373 57.8322 55.4413 57.5896 55.6145C57.3471 55.7878 57.0699 56.065 56.7927 56.4461V60.4656C56.7927 60.5003 56.7927 60.5349 56.758 60.5696C56.7234 60.6042 56.7234 60.6042 56.6541 60.6389C56.6194 60.6389 56.5501 60.6735 56.4808 60.6735C56.4115 60.6735 56.3422 60.6735 56.2382 60.6735C56.1343 60.6735 56.065 60.6735 55.9957 60.6735C55.9264 60.6735 55.8571 60.6389 55.8224 60.6389C55.7878 60.6389 55.7531 60.6042 55.7531 60.5696C55.7531 60.5349 55.7185 60.5003 55.7185 60.4656V56.9659C55.7185 56.7233 55.6838 56.5154 55.6492 56.3075C55.6145 56.0996 55.5452 55.9264 55.4413 55.7878C55.3373 55.6492 55.2334 55.5452 55.0948 55.4413C54.9562 55.372 54.7829 55.3373 54.575 55.3373C54.3324 55.3373 54.0899 55.4413 53.8473 55.6145C53.6048 55.7878 53.3276 56.065 53.0504 56.4461V60.4656C53.0504 60.5003 53.0504 60.5349 53.0157 60.5696C52.9811 60.6042 52.9811 60.6042 52.9464 60.6389C52.9118 60.6389 52.8425 60.6735 52.7732 60.6735C52.7039 60.6735 52.6346 60.6735 52.496 60.6735C52.392 60.6735 52.3227 60.6735 52.2534 60.6735C52.1841 60.6735 52.1148 60.6389 52.0801 60.6389C52.0455 60.6389 52.0108 60.6042 52.0108 60.5696C52.0108 60.5349 51.9762 60.5003 51.9762 60.4656V54.7136C51.9762 54.6789 51.9762 54.6443 52.0108 54.6096C52.0108 54.575 52.0455 54.575 52.0801 54.5403C52.1148 54.5057 52.1841 54.5057 52.2188 54.5057C52.2881 54.5057 52.3574 54.5057 52.4613 54.5057C52.5653 54.5057 52.6346 54.5057 52.7039 54.5057C52.7732 54.5057 52.8078 54.5403 52.8425 54.5403C52.8771 54.575 52.9118 54.575 52.9118 54.6096C52.9118 54.6443 52.9464 54.6789 52.9464 54.7136V55.4759C53.2583 55.0948 53.5701 54.8522 53.882 54.6789C54.1938 54.5057 54.5057 54.4364 54.8176 54.4364C55.0601 54.4364 55.268 54.471 55.4759 54.5057C55.6492 54.575 55.8224 54.6443 55.961 54.7482C56.0996 54.8522 56.2382 54.9561 56.3422 55.0947C56.4461 55.2334 56.5154 55.372 56.5848 55.5452C56.7927 55.3373 56.9659 55.1641 57.1392 55.0254C57.3124 54.8868 57.4857 54.7482 57.6243 54.6789C57.7975 54.575 57.9361 54.5403 58.0747 54.471C58.2133 54.4364 58.3866 54.4017 58.5252 54.4017C58.9064 54.4017 59.2182 54.471 59.4608 54.6096C59.7033 54.7482 59.9112 54.9215 60.0845 55.1294C60.2231 55.3373 60.3617 55.6145 60.431 55.8917C60.5003 56.1689 60.5349 56.4808 60.5349 56.8273V60.4656Z" fill="white"/>
<path d="M142.761 60.0498C142.761 60.1884 142.761 60.2577 142.727 60.3617C142.727 60.431 142.692 60.5003 142.657 60.5349C142.623 60.5696 142.588 60.6042 142.519 60.6389C142.449 60.6735 142.38 60.7082 142.276 60.7082C142.172 60.7428 142.103 60.7428 141.999 60.7428C141.895 60.7428 141.791 60.7775 141.722 60.7775C141.41 60.7775 141.167 60.7428 140.959 60.6735C140.752 60.6042 140.578 60.4656 140.44 60.327C140.301 60.1538 140.197 59.9805 140.128 59.7033C140.059 59.4608 140.024 59.1835 140.024 58.837V55.4413H139.227C139.158 55.4413 139.123 55.4066 139.088 55.3373C139.054 55.268 139.019 55.164 139.019 54.9908C139.019 54.9215 139.019 54.8522 139.019 54.7829C139.019 54.7136 139.054 54.6789 139.054 54.6443C139.088 54.6096 139.088 54.575 139.123 54.575C139.158 54.575 139.192 54.5403 139.227 54.5403H140.024V53.189C140.024 53.1543 140.024 53.1197 140.059 53.1197C140.059 53.085 140.093 53.085 140.128 53.0504C140.162 53.0157 140.232 53.0157 140.301 53.0157C140.37 53.0157 140.44 53.0157 140.544 53.0157C140.648 53.0157 140.752 53.0157 140.821 53.0157C140.89 53.0157 140.959 53.0504 140.994 53.0504C141.029 53.085 141.063 53.085 141.063 53.1197C141.063 53.1543 141.098 53.189 141.098 53.189V54.5403H142.553C142.588 54.5403 142.623 54.5403 142.657 54.575C142.692 54.575 142.692 54.6096 142.727 54.6443C142.761 54.6789 142.761 54.7136 142.761 54.7829C142.761 54.8522 142.761 54.9215 142.761 54.9908C142.761 55.1294 142.727 55.268 142.692 55.3373C142.657 55.4066 142.588 55.4413 142.553 55.4413H141.098V58.6291C141.098 59.0103 141.167 59.3221 141.271 59.5301C141.375 59.738 141.583 59.8419 141.895 59.8419C141.999 59.8419 142.068 59.8419 142.138 59.8073C142.207 59.7726 142.276 59.7726 142.345 59.738C142.415 59.7033 142.449 59.7033 142.484 59.6687C142.519 59.634 142.553 59.634 142.588 59.634C142.623 59.634 142.623 59.634 142.657 59.634C142.692 59.634 142.692 59.6687 142.692 59.7033C142.692 59.738 142.727 59.7726 142.727 59.8419C142.761 59.9112 142.761 59.9459 142.761 60.0498ZM138.569 55.0947C138.569 55.1987 138.569 55.268 138.569 55.3373C138.569 55.4066 138.569 55.4413 138.534 55.4759C138.534 55.5106 138.499 55.5452 138.499 55.5452C138.465 55.5799 138.465 55.5799 138.43 55.5799C138.395 55.5799 138.361 55.5799 138.291 55.5452C138.257 55.5106 138.187 55.5106 138.118 55.4759C138.049 55.4413 137.979 55.4413 137.91 55.4066C137.841 55.372 137.737 55.372 137.668 55.372C137.564 55.372 137.46 55.4066 137.356 55.4413C137.252 55.4759 137.148 55.5452 137.044 55.6492C136.94 55.7531 136.801 55.8917 136.697 56.0303C136.559 56.2036 136.455 56.3768 136.282 56.6194V60.3963C136.282 60.431 136.282 60.4656 136.247 60.5003C136.212 60.5349 136.212 60.5349 136.178 60.5696C136.143 60.5696 136.074 60.6042 136.004 60.6042C135.935 60.6042 135.866 60.6042 135.727 60.6042C135.623 60.6042 135.554 60.6042 135.485 60.6042C135.415 60.6042 135.346 60.5696 135.311 60.5696C135.277 60.5696 135.242 60.5349 135.242 60.5003C135.242 60.4656 135.207 60.431 135.207 60.3963V54.6443C135.207 54.6096 135.207 54.575 135.242 54.5403C135.242 54.5057 135.277 54.5057 135.311 54.471C135.346 54.4364 135.415 54.4364 135.45 54.4364C135.519 54.4364 135.589 54.4364 135.693 54.4364C135.796 54.4364 135.866 54.4364 135.935 54.4364C136.004 54.4364 136.039 54.471 136.074 54.471C136.108 54.5057 136.143 54.5057 136.143 54.5403C136.143 54.575 136.178 54.6096 136.178 54.6443V55.4759C136.351 55.2334 136.489 55.0601 136.628 54.9215C136.767 54.7829 136.905 54.6789 137.009 54.575C137.148 54.5057 137.252 54.4364 137.39 54.4017C137.529 54.3671 137.633 54.3671 137.772 54.3671C137.841 54.3671 137.876 54.3671 137.945 54.3671C138.014 54.3671 138.083 54.4017 138.153 54.4017C138.222 54.4364 138.291 54.4364 138.361 54.471C138.43 54.5057 138.465 54.5057 138.499 54.5403C138.534 54.575 138.534 54.575 138.534 54.6096C138.534 54.6443 138.569 54.6443 138.569 54.6789C138.569 54.7136 138.569 54.7482 138.569 54.8175C138.569 54.9215 138.569 54.9908 138.569 55.0947Z" fill="white"/>
</g>
<defs>
<clipPath id="clip0">
<rect width="204.474" height="64" fill="white"/>
</clipPath>
</defs>
</svg>
